<?xml version="1.0" encoding="UTF-8"?>
<!DOCTYPE svg PUBLIC "-//W3C//DTD SVG 1.1//EN" "http://www.w3.org/Graphics/SVG/1.1/DTD/svg11.dtd">
<!-- Creator: CorelDRAW 2021 (64-Bit) -->
<svg xmlns="http://www.w3.org/2000/svg" xml:space="preserve" width="118px" height="118px" version="1.1" style="shape-rendering:geometricPrecision; text-rendering:geometricPrecision; image-rendering:optimizeQuality; fill-rule:evenodd; clip-rule:evenodd"
viewBox="0 0 31.73 31.73"
 xmlns:xlink="http://www.w3.org/1999/xlink"
 xmlns:xodm="http://www.corel.com/coreldraw/odm/2003">
 <defs>
  <style type="text/css">
   <![CDATA[
    .fil0 {fill:black}
   ]]>
  </style>
 </defs>
 <g id="Слой_x0020_1">
  <metadata id="CorelCorpID_0Corel-Layer"/>
  <path class="fil0" d="M0 0l31.73 0 0 31.73 -31.73 0 0 -31.73zm12.11 6.9c-2.87,0 -5.21,2.34 -5.21,5.21l0 7.52c0,2.86 2.34,5.2 5.21,5.2l7.52 0c2.86,0 5.2,-2.34 5.2,-5.2l0 -7.52c0,-2.87 -2.34,-5.21 -5.2,-5.21l-7.52 0zm0 1.38l7.52 0c2.12,0 3.82,1.71 3.82,3.83l0 7.52c0,2.12 -1.7,3.82 -3.82,3.82l-7.52 0c-2.12,0 -3.83,-1.7 -3.83,-3.82l0 -7.52c0,-2.12 1.71,-3.83 3.83,-3.83zm8.93 1.38c-0.57,0 -1.04,0.47 -1.04,1.04 0,0.57 0.47,1.03 1.04,1.03 0.57,0 1.03,-0.46 1.03,-1.03 0,-0.57 -0.46,-1.04 -1.03,-1.04zm-5.17 1.38c-2.66,0 -4.83,2.17 -4.83,4.83 0,2.66 2.17,4.82 4.83,4.82 2.66,0 4.82,-2.16 4.82,-4.82 0,-2.66 -2.16,-4.83 -4.82,-4.83zm0 1.38c1.91,0 3.44,1.54 3.44,3.45 0,1.91 -1.53,3.44 -3.44,3.44 -1.91,0 -3.45,-1.53 -3.45,-3.44 0,-1.91 1.54,-3.45 3.45,-3.45z"/>
 </g>
</svg>
