<?xml version="1.0" encoding="UTF-8"?>
<!DOCTYPE svg PUBLIC "-//W3C//DTD SVG 1.1//EN" "http://www.w3.org/Graphics/SVG/1.1/DTD/svg11.dtd">
<!-- Creator: CorelDRAW 2021 (64-Bit) -->
<svg xmlns="http://www.w3.org/2000/svg" xml:space="preserve" width="118px" height="118px" version="1.1" style="shape-rendering:geometricPrecision; text-rendering:geometricPrecision; image-rendering:optimizeQuality; fill-rule:evenodd; clip-rule:evenodd"
viewBox="0 0 20.95 20.95"
 xmlns:xlink="http://www.w3.org/1999/xlink"
 xmlns:xodm="http://www.corel.com/coreldraw/odm/2003">
 <defs>
  <style type="text/css">
   <![CDATA[
    .fil0 {fill:black}
   ]]>
  </style>
 </defs>
 <g id="Слой_x0020_1">
  <metadata id="CorelCorpID_0Corel-Layer"/>
  <path class="fil0" d="M0 0l20.95 0 0 20.95 -20.95 0 0 -20.95zm15.92 4.56c-0.18,0.01 -0.34,0.06 -0.49,0.12 -0.13,0.05 -0.65,0.28 -1.47,0.63 -0.82,0.35 -1.91,0.82 -3.07,1.32 -2.32,0.99 -4.92,2.11 -6.26,2.69 -0.05,0.02 -0.22,0.08 -0.41,0.22 -0.18,0.15 -0.38,0.45 -0.38,0.78 0,0.27 0.13,0.54 0.29,0.7 0.16,0.16 0.33,0.24 0.48,0.3 0.53,0.22 2.18,0.89 2.5,1.02 0.11,0.34 0.71,2.17 0.84,2.62 0.1,0.29 0.18,0.48 0.3,0.62 0.05,0.08 0.12,0.14 0.2,0.19 0.03,0.02 0.06,0.04 0.1,0.05l0 0c0.01,0.01 0.02,0.01 0.03,0.02 0.01,0 0.02,0 0.04,0.01 0.09,0.02 0.17,0.04 0.24,0.04 0.32,0 0.52,-0.18 0.52,-0.18l0.01 0 1.64 -1.42 1.99 1.88c0.03,0.04 0.29,0.4 0.87,0.4 0.34,0 0.61,-0.17 0.79,-0.36 0.17,-0.18 0.28,-0.37 0.33,-0.61l0 0c0.04,-0.23 1.87,-9.65 1.87,-9.65l0 0.01c0.06,-0.24 0.07,-0.47 0.01,-0.7 -0.06,-0.22 -0.22,-0.44 -0.41,-0.56 -0.19,-0.11 -0.38,-0.15 -0.56,-0.14zm-0.1 1.14c0,0.02 0,0.01 0,0.03l0 0 -0.01 0.01c0,0 -1.81,9.3 -1.87,9.65 0,-0.02 -0.02,0.03 -0.05,0.06 -0.03,-0.02 -0.09,-0.05 -0.09,-0.05l-0.02 -0.01 -2.71 -2.57 -1.93 1.66 0.57 -2.29c0,0 3.58,-3.7 3.8,-3.92 0.17,-0.17 0.21,-0.23 0.21,-0.29 0,-0.08 -0.05,-0.14 -0.14,-0.14 -0.08,0 -0.19,0.08 -0.25,0.12 -0.79,0.5 -4.22,2.5 -5.76,3.39 -0.24,-0.1 -1.94,-0.79 -2.51,-1.03 0,0 0,0 0,0 1.34,-0.57 3.94,-1.7 6.26,-2.69 1.16,-0.5 2.25,-0.97 3.07,-1.32 0.8,-0.35 1.36,-0.58 1.43,-0.61z"/>
 </g>
</svg>
