<?xml version="1.0" encoding="UTF-8"?>
<!DOCTYPE svg PUBLIC "-//W3C//DTD SVG 1.1//EN" "http://www.w3.org/Graphics/SVG/1.1/DTD/svg11.dtd">
<!-- Creator: CorelDRAW 2021 (64-Bit) -->
<svg xmlns="http://www.w3.org/2000/svg" xml:space="preserve" width="500px" height="500px" version="1.1" style="shape-rendering:geometricPrecision; text-rendering:geometricPrecision; image-rendering:optimizeQuality; fill-rule:evenodd; clip-rule:evenodd"
viewBox="0 0 22.64 22.64"
 xmlns:xlink="http://www.w3.org/1999/xlink"
 xmlns:xodm="http://www.corel.com/coreldraw/odm/2003">
 <defs>
  <style type="text/css">
   <![CDATA[
    .fil0 {fill:black}
   ]]>
  </style>
 </defs>
 <g id="Слой_x0020_1">
  <metadata id="CorelCorpID_0Corel-Layer"/>
  <g id="_2474529704624">
   <g>
    <path class="fil0" d="M6.99 0.39c0,-0.19 -0.16,-0.35 -0.35,-0.35 -0.2,0 -0.36,0.16 -0.36,0.35 0,0.19 0.16,0.35 0.36,0.35 0.19,0 0.35,-0.16 0.35,-0.35z"/>
    <path class="fil0" d="M7.77 0.39c0,-0.19 -0.16,-0.35 -0.35,-0.35 -0.2,0 -0.35,0.16 -0.35,0.35 0,0.19 0.15,0.35 0.35,0.35 0.19,0 0.35,-0.16 0.35,-0.35z"/>
    <path class="fil0" d="M12.45 0.39c0,-0.19 -0.16,-0.35 -0.35,-0.35 -0.19,0 -0.35,0.16 -0.35,0.35 0,0.19 0.16,0.35 0.35,0.35 0.19,0 0.35,-0.16 0.35,-0.35z"/>
    <path class="fil0" d="M13.23 0.39c0,-0.19 -0.16,-0.35 -0.35,-0.35 -0.19,0 -0.35,0.16 -0.35,0.35 0,0.19 0.16,0.35 0.35,0.35 0.19,0 0.35,-0.16 0.35,-0.35z"/>
    <path class="fil0" d="M14.01 0.39c0,-0.19 -0.15,-0.35 -0.35,-0.35 -0.19,0 -0.35,0.16 -0.35,0.35 0,0.19 0.16,0.35 0.35,0.35 0.2,0 0.35,-0.16 0.35,-0.35z"/>
    <path class="fil0" d="M14.79 0.39c0,-0.19 -0.15,-0.35 -0.35,-0.35 -0.19,0 -0.35,0.16 -0.35,0.35 0,0.19 0.16,0.35 0.35,0.35 0.2,0 0.35,-0.16 0.35,-0.35z"/>
    <path class="fil0" d="M16.35 0.39c0,-0.19 -0.15,-0.35 -0.35,-0.35 -0.19,0 -0.35,0.16 -0.35,0.35 0,0.19 0.16,0.35 0.35,0.35 0.2,0 0.35,-0.16 0.35,-0.35z"/>
    <path class="fil0" d="M6.99 1.17c0,-0.19 -0.16,-0.35 -0.35,-0.35 -0.2,0 -0.36,0.16 -0.36,0.35 0,0.2 0.16,0.35 0.36,0.35 0.19,0 0.35,-0.15 0.35,-0.35z"/>
    <path class="fil0" d="M7.77 1.17c0,-0.19 -0.16,-0.35 -0.35,-0.35 -0.2,0 -0.35,0.16 -0.35,0.35 0,0.2 0.15,0.35 0.35,0.35 0.19,0 0.35,-0.15 0.35,-0.35z"/>
    <path class="fil0" d="M9.33 1.17c0,-0.19 -0.16,-0.35 -0.35,-0.35 -0.2,0 -0.35,0.16 -0.35,0.35 0,0.2 0.15,0.35 0.35,0.35 0.19,0 0.35,-0.15 0.35,-0.35z"/>
    <path class="fil0" d="M10.89 1.17c0,-0.19 -0.16,-0.35 -0.35,-0.35 -0.2,0 -0.35,0.16 -0.35,0.35 0,0.2 0.15,0.35 0.35,0.35 0.19,0 0.35,-0.15 0.35,-0.35z"/>
    <path class="fil0" d="M13.23 1.17c0,-0.19 -0.16,-0.35 -0.35,-0.35 -0.19,0 -0.35,0.16 -0.35,0.35 0,0.2 0.16,0.35 0.35,0.35 0.19,0 0.35,-0.15 0.35,-0.35z"/>
    <path class="fil0" d="M14.01 1.17c0,-0.19 -0.15,-0.35 -0.35,-0.35 -0.19,0 -0.35,0.16 -0.35,0.35 0,0.2 0.16,0.35 0.35,0.35 0.2,0 0.35,-0.15 0.35,-0.35z"/>
    <path class="fil0" d="M15.57 1.17c0,-0.19 -0.15,-0.35 -0.35,-0.35 -0.19,0 -0.35,0.16 -0.35,0.35 0,0.2 0.16,0.35 0.35,0.35 0.2,0 0.35,-0.15 0.35,-0.35z"/>
    <path class="fil0" d="M6.99 1.95c0,-0.19 -0.16,-0.35 -0.35,-0.35 -0.2,0 -0.36,0.16 -0.36,0.35 0,0.2 0.16,0.35 0.36,0.35 0.19,0 0.35,-0.15 0.35,-0.35z"/>
    <path class="fil0" d="M10.11 1.95c0,-0.19 -0.16,-0.35 -0.35,-0.35 -0.2,0 -0.35,0.16 -0.35,0.35 0,0.2 0.15,0.35 0.35,0.35 0.19,0 0.35,-0.15 0.35,-0.35z"/>
    <path class="fil0" d="M13.23 1.95c0,-0.19 -0.16,-0.35 -0.35,-0.35 -0.19,0 -0.35,0.16 -0.35,0.35 0,0.2 0.16,0.35 0.35,0.35 0.19,0 0.35,-0.15 0.35,-0.35z"/>
    <path class="fil0" d="M14.79 1.95c0,-0.19 -0.15,-0.35 -0.35,-0.35 -0.19,0 -0.35,0.16 -0.35,0.35 0,0.2 0.16,0.35 0.35,0.35 0.2,0 0.35,-0.15 0.35,-0.35z"/>
    <path class="fil0" d="M15.57 1.95c0,-0.19 -0.15,-0.35 -0.35,-0.35 -0.19,0 -0.35,0.16 -0.35,0.35 0,0.2 0.16,0.35 0.35,0.35 0.2,0 0.35,-0.15 0.35,-0.35z"/>
    <path class="fil0" d="M16.35 1.95c0,-0.19 -0.15,-0.35 -0.35,-0.35 -0.19,0 -0.35,0.16 -0.35,0.35 0,0.2 0.16,0.35 0.35,0.35 0.2,0 0.35,-0.15 0.35,-0.35z"/>
    <path class="fil0" d="M8.55 2.73c0,-0.19 -0.16,-0.35 -0.35,-0.35 -0.2,0 -0.35,0.16 -0.35,0.35 0,0.2 0.15,0.35 0.35,0.35 0.19,0 0.35,-0.15 0.35,-0.35z"/>
    <path class="fil0" d="M9.33 2.73c0,-0.19 -0.16,-0.35 -0.35,-0.35 -0.2,0 -0.35,0.16 -0.35,0.35 0,0.2 0.15,0.35 0.35,0.35 0.19,0 0.35,-0.15 0.35,-0.35z"/>
    <path class="fil0" d="M10.89 2.73c0,-0.19 -0.16,-0.35 -0.35,-0.35 -0.2,0 -0.35,0.16 -0.35,0.35 0,0.2 0.15,0.35 0.35,0.35 0.19,0 0.35,-0.15 0.35,-0.35z"/>
    <path class="fil0" d="M13.23 2.73c0,-0.19 -0.16,-0.35 -0.35,-0.35 -0.19,0 -0.35,0.16 -0.35,0.35 0,0.2 0.16,0.35 0.35,0.35 0.19,0 0.35,-0.15 0.35,-0.35z"/>
    <path class="fil0" d="M14.01 2.73c0,-0.19 -0.15,-0.35 -0.35,-0.35 -0.19,0 -0.35,0.16 -0.35,0.35 0,0.2 0.16,0.35 0.35,0.35 0.2,0 0.35,-0.15 0.35,-0.35z"/>
    <path class="fil0" d="M15.57 2.73c0,-0.19 -0.15,-0.35 -0.35,-0.35 -0.19,0 -0.35,0.16 -0.35,0.35 0,0.2 0.16,0.35 0.35,0.35 0.2,0 0.35,-0.15 0.35,-0.35z"/>
    <path class="fil0" d="M7.77 3.51c0,-0.19 -0.16,-0.35 -0.35,-0.35 -0.2,0 -0.35,0.16 -0.35,0.35 0,0.2 0.15,0.35 0.35,0.35 0.19,0 0.35,-0.15 0.35,-0.35z"/>
    <path class="fil0" d="M9.33 3.51c0,-0.19 -0.16,-0.35 -0.35,-0.35 -0.2,0 -0.35,0.16 -0.35,0.35 0,0.2 0.15,0.35 0.35,0.35 0.19,0 0.35,-0.15 0.35,-0.35z"/>
    <path class="fil0" d="M10.11 3.51c0,-0.19 -0.16,-0.35 -0.35,-0.35 -0.2,0 -0.35,0.16 -0.35,0.35 0,0.2 0.15,0.35 0.35,0.35 0.19,0 0.35,-0.15 0.35,-0.35z"/>
    <path class="fil0" d="M11.67 3.51c0,-0.19 -0.16,-0.35 -0.35,-0.35 -0.19,0 -0.35,0.16 -0.35,0.35 0,0.2 0.16,0.35 0.35,0.35 0.19,0 0.35,-0.15 0.35,-0.35z"/>
    <path class="fil0" d="M12.45 3.51c0,-0.19 -0.16,-0.35 -0.35,-0.35 -0.19,0 -0.35,0.16 -0.35,0.35 0,0.2 0.16,0.35 0.35,0.35 0.19,0 0.35,-0.15 0.35,-0.35z"/>
    <path class="fil0" d="M15.57 3.51c0,-0.19 -0.15,-0.35 -0.35,-0.35 -0.19,0 -0.35,0.16 -0.35,0.35 0,0.2 0.16,0.35 0.35,0.35 0.2,0 0.35,-0.15 0.35,-0.35z"/>
    <path class="fil0" d="M16.35 3.51c0,-0.19 -0.15,-0.35 -0.35,-0.35 -0.19,0 -0.35,0.16 -0.35,0.35 0,0.2 0.16,0.35 0.35,0.35 0.2,0 0.35,-0.15 0.35,-0.35z"/>
    <path class="fil0" d="M6.99 4.29c0,-0.19 -0.16,-0.35 -0.35,-0.35 -0.2,0 -0.36,0.16 -0.36,0.35 0,0.2 0.16,0.35 0.36,0.35 0.19,0 0.35,-0.15 0.35,-0.35z"/>
    <path class="fil0" d="M7.77 4.29c0,-0.19 -0.16,-0.35 -0.35,-0.35 -0.2,0 -0.35,0.16 -0.35,0.35 0,0.2 0.15,0.35 0.35,0.35 0.19,0 0.35,-0.15 0.35,-0.35z"/>
    <path class="fil0" d="M8.55 4.29c0,-0.19 -0.16,-0.35 -0.35,-0.35 -0.2,0 -0.35,0.16 -0.35,0.35 0,0.2 0.15,0.35 0.35,0.35 0.19,0 0.35,-0.15 0.35,-0.35z"/>
    <path class="fil0" d="M10.11 4.29c0,-0.19 -0.16,-0.35 -0.35,-0.35 -0.2,0 -0.35,0.16 -0.35,0.35 0,0.2 0.15,0.35 0.35,0.35 0.19,0 0.35,-0.15 0.35,-0.35z"/>
    <path class="fil0" d="M11.67 4.29c0,-0.19 -0.16,-0.35 -0.35,-0.35 -0.19,0 -0.35,0.16 -0.35,0.35 0,0.2 0.16,0.35 0.35,0.35 0.19,0 0.35,-0.15 0.35,-0.35z"/>
    <path class="fil0" d="M12.45 4.29c0,-0.19 -0.16,-0.35 -0.35,-0.35 -0.19,0 -0.35,0.16 -0.35,0.35 0,0.2 0.16,0.35 0.35,0.35 0.19,0 0.35,-0.15 0.35,-0.35z"/>
    <path class="fil0" d="M13.23 4.29c0,-0.19 -0.16,-0.35 -0.35,-0.35 -0.19,0 -0.35,0.16 -0.35,0.35 0,0.2 0.16,0.35 0.35,0.35 0.19,0 0.35,-0.15 0.35,-0.35z"/>
    <path class="fil0" d="M14.79 4.29c0,-0.19 -0.15,-0.35 -0.35,-0.35 -0.19,0 -0.35,0.16 -0.35,0.35 0,0.2 0.16,0.35 0.35,0.35 0.2,0 0.35,-0.15 0.35,-0.35z"/>
    <path class="fil0" d="M6.99 5.07c0,-0.19 -0.16,-0.35 -0.35,-0.35 -0.2,0 -0.36,0.16 -0.36,0.35 0,0.2 0.16,0.36 0.36,0.36 0.19,0 0.35,-0.16 0.35,-0.36z"/>
    <path class="fil0" d="M8.55 5.07c0,-0.19 -0.16,-0.35 -0.35,-0.35 -0.2,0 -0.35,0.16 -0.35,0.35 0,0.2 0.15,0.36 0.35,0.36 0.19,0 0.35,-0.16 0.35,-0.36z"/>
    <path class="fil0" d="M10.11 5.07c0,-0.19 -0.16,-0.35 -0.35,-0.35 -0.2,0 -0.35,0.16 -0.35,0.35 0,0.2 0.15,0.36 0.35,0.36 0.19,0 0.35,-0.16 0.35,-0.36z"/>
    <path class="fil0" d="M11.67 5.07c0,-0.19 -0.16,-0.35 -0.35,-0.35 -0.19,0 -0.35,0.16 -0.35,0.35 0,0.2 0.16,0.36 0.35,0.36 0.19,0 0.35,-0.16 0.35,-0.36z"/>
    <path class="fil0" d="M13.23 5.07c0,-0.19 -0.16,-0.35 -0.35,-0.35 -0.19,0 -0.35,0.16 -0.35,0.35 0,0.2 0.16,0.36 0.35,0.36 0.19,0 0.35,-0.16 0.35,-0.36z"/>
    <path class="fil0" d="M14.79 5.07c0,-0.19 -0.15,-0.35 -0.35,-0.35 -0.19,0 -0.35,0.16 -0.35,0.35 0,0.2 0.16,0.36 0.35,0.36 0.2,0 0.35,-0.16 0.35,-0.36z"/>
    <path class="fil0" d="M16.35 5.07c0,-0.19 -0.15,-0.35 -0.35,-0.35 -0.19,0 -0.35,0.16 -0.35,0.35 0,0.2 0.16,0.36 0.35,0.36 0.2,0 0.35,-0.16 0.35,-0.36z"/>
    <path class="fil0" d="M6.99 5.86c0,-0.2 -0.16,-0.36 -0.35,-0.36 -0.2,0 -0.36,0.16 -0.36,0.36 0,0.19 0.16,0.35 0.36,0.35 0.19,0 0.35,-0.16 0.35,-0.35z"/>
    <path class="fil0" d="M7.77 5.86c0,-0.2 -0.16,-0.36 -0.35,-0.36 -0.2,0 -0.35,0.16 -0.35,0.36 0,0.19 0.15,0.35 0.35,0.35 0.19,0 0.35,-0.16 0.35,-0.35z"/>
    <path class="fil0" d="M8.55 5.86c0,-0.2 -0.16,-0.36 -0.35,-0.36 -0.2,0 -0.35,0.16 -0.35,0.36 0,0.19 0.15,0.35 0.35,0.35 0.19,0 0.35,-0.16 0.35,-0.35z"/>
    <path class="fil0" d="M10.11 5.86c0,-0.2 -0.16,-0.36 -0.35,-0.36 -0.2,0 -0.35,0.16 -0.35,0.36 0,0.19 0.15,0.35 0.35,0.35 0.19,0 0.35,-0.16 0.35,-0.35z"/>
    <path class="fil0" d="M12.45 5.86c0,-0.2 -0.16,-0.36 -0.35,-0.36 -0.19,0 -0.35,0.16 -0.35,0.36 0,0.19 0.16,0.35 0.35,0.35 0.19,0 0.35,-0.16 0.35,-0.35z"/>
    <path class="fil0" d="M13.23 5.86c0,-0.2 -0.16,-0.36 -0.35,-0.36 -0.19,0 -0.35,0.16 -0.35,0.36 0,0.19 0.16,0.35 0.35,0.35 0.19,0 0.35,-0.16 0.35,-0.35z"/>
    <path class="fil0" d="M15.57 5.86c0,-0.2 -0.15,-0.36 -0.35,-0.36 -0.19,0 -0.35,0.16 -0.35,0.36 0,0.19 0.16,0.35 0.35,0.35 0.2,0 0.35,-0.16 0.35,-0.35z"/>
    <path class="fil0" d="M2.3 6.64c0,-0.2 -0.15,-0.36 -0.35,-0.36 -0.19,0 -0.35,0.16 -0.35,0.36 0,0.19 0.16,0.35 0.35,0.35 0.2,0 0.35,-0.16 0.35,-0.35z"/>
    <path class="fil0" d="M3.08 6.64c0,-0.2 -0.15,-0.36 -0.35,-0.36 -0.19,0 -0.35,0.16 -0.35,0.36 0,0.19 0.16,0.35 0.35,0.35 0.2,0 0.35,-0.16 0.35,-0.35z"/>
    <path class="fil0" d="M3.86 6.64c0,-0.2 -0.15,-0.36 -0.35,-0.36 -0.19,0 -0.35,0.16 -0.35,0.36 0,0.19 0.16,0.35 0.35,0.35 0.2,0 0.35,-0.16 0.35,-0.35z"/>
    <path class="fil0" d="M5.43 6.64c0,-0.2 -0.16,-0.36 -0.36,-0.36 -0.19,0 -0.35,0.16 -0.35,0.36 0,0.19 0.16,0.35 0.35,0.35 0.2,0 0.36,-0.16 0.36,-0.35z"/>
    <path class="fil0" d="M6.99 6.64c0,-0.2 -0.16,-0.36 -0.35,-0.36 -0.2,0 -0.36,0.16 -0.36,0.36 0,0.19 0.16,0.35 0.36,0.35 0.19,0 0.35,-0.16 0.35,-0.35z"/>
    <path class="fil0" d="M7.77 6.64c0,-0.2 -0.16,-0.36 -0.35,-0.36 -0.2,0 -0.35,0.16 -0.35,0.36 0,0.19 0.15,0.35 0.35,0.35 0.19,0 0.35,-0.16 0.35,-0.35z"/>
    <path class="fil0" d="M8.55 6.64c0,-0.2 -0.16,-0.36 -0.35,-0.36 -0.2,0 -0.35,0.16 -0.35,0.36 0,0.19 0.15,0.35 0.35,0.35 0.19,0 0.35,-0.16 0.35,-0.35z"/>
    <path class="fil0" d="M9.33 6.64c0,-0.2 -0.16,-0.36 -0.35,-0.36 -0.2,0 -0.35,0.16 -0.35,0.36 0,0.19 0.15,0.35 0.35,0.35 0.19,0 0.35,-0.16 0.35,-0.35z"/>
    <path class="fil0" d="M11.67 6.64c0,-0.2 -0.16,-0.36 -0.35,-0.36 -0.19,0 -0.35,0.16 -0.35,0.36 0,0.19 0.16,0.35 0.35,0.35 0.19,0 0.35,-0.16 0.35,-0.35z"/>
    <path class="fil0" d="M12.45 6.64c0,-0.2 -0.16,-0.36 -0.35,-0.36 -0.19,0 -0.35,0.16 -0.35,0.36 0,0.19 0.16,0.35 0.35,0.35 0.19,0 0.35,-0.16 0.35,-0.35z"/>
    <path class="fil0" d="M13.23 6.64c0,-0.2 -0.16,-0.36 -0.35,-0.36 -0.19,0 -0.35,0.16 -0.35,0.36 0,0.19 0.16,0.35 0.35,0.35 0.19,0 0.35,-0.16 0.35,-0.35z"/>
    <path class="fil0" d="M14.79 6.64c0,-0.2 -0.15,-0.36 -0.35,-0.36 -0.19,0 -0.35,0.16 -0.35,0.36 0,0.19 0.16,0.35 0.35,0.35 0.2,0 0.35,-0.16 0.35,-0.35z"/>
    <path class="fil0" d="M16.35 6.64c0,-0.2 -0.15,-0.36 -0.35,-0.36 -0.19,0 -0.35,0.16 -0.35,0.36 0,0.19 0.16,0.35 0.35,0.35 0.2,0 0.35,-0.16 0.35,-0.35z"/>
    <path class="fil0" d="M17.14 6.64c0,-0.2 -0.16,-0.36 -0.36,-0.36 -0.19,0 -0.35,0.16 -0.35,0.36 0,0.19 0.16,0.35 0.35,0.35 0.2,0 0.36,-0.16 0.36,-0.35z"/>
    <path class="fil0" d="M17.92 6.64c0,-0.2 -0.16,-0.36 -0.36,-0.36 -0.19,0 -0.35,0.16 -0.35,0.36 0,0.19 0.16,0.35 0.35,0.35 0.2,0 0.36,-0.16 0.36,-0.35z"/>
    <path class="fil0" d="M18.7 6.64c0,-0.2 -0.16,-0.36 -0.35,-0.36 -0.2,0 -0.36,0.16 -0.36,0.36 0,0.19 0.16,0.35 0.36,0.35 0.19,0 0.35,-0.16 0.35,-0.35z"/>
    <path class="fil0" d="M21.04 6.64c0,-0.2 -0.16,-0.36 -0.35,-0.36 -0.2,0 -0.35,0.16 -0.35,0.36 0,0.19 0.15,0.35 0.35,0.35 0.19,0 0.35,-0.16 0.35,-0.35z"/>
    <path class="fil0" d="M21.82 6.64c0,-0.2 -0.16,-0.36 -0.35,-0.36 -0.2,0 -0.35,0.16 -0.35,0.36 0,0.19 0.15,0.35 0.35,0.35 0.19,0 0.35,-0.16 0.35,-0.35z"/>
    <path class="fil0" d="M22.6 6.64c0,-0.2 -0.16,-0.36 -0.35,-0.36 -0.2,0 -0.35,0.16 -0.35,0.36 0,0.19 0.15,0.35 0.35,0.35 0.19,0 0.35,-0.16 0.35,-0.35z"/>
    <path class="fil0" d="M0.74 7.42c0,-0.2 -0.16,-0.35 -0.35,-0.35 -0.19,0 -0.35,0.15 -0.35,0.35 0,0.19 0.16,0.35 0.35,0.35 0.19,0 0.35,-0.16 0.35,-0.35z"/>
    <path class="fil0" d="M1.52 7.42c0,-0.2 -0.16,-0.35 -0.35,-0.35 -0.19,0 -0.35,0.15 -0.35,0.35 0,0.19 0.16,0.35 0.35,0.35 0.19,0 0.35,-0.16 0.35,-0.35z"/>
    <path class="fil0" d="M3.08 7.42c0,-0.2 -0.15,-0.35 -0.35,-0.35 -0.19,0 -0.35,0.15 -0.35,0.35 0,0.19 0.16,0.35 0.35,0.35 0.2,0 0.35,-0.16 0.35,-0.35z"/>
    <path class="fil0" d="M6.99 7.42c0,-0.2 -0.16,-0.35 -0.35,-0.35 -0.2,0 -0.36,0.15 -0.36,0.35 0,0.19 0.16,0.35 0.36,0.35 0.19,0 0.35,-0.16 0.35,-0.35z"/>
    <path class="fil0" d="M7.77 7.42c0,-0.2 -0.16,-0.35 -0.35,-0.35 -0.2,0 -0.35,0.15 -0.35,0.35 0,0.19 0.15,0.35 0.35,0.35 0.19,0 0.35,-0.16 0.35,-0.35z"/>
    <path class="fil0" d="M8.55 7.42c0,-0.2 -0.16,-0.35 -0.35,-0.35 -0.2,0 -0.35,0.15 -0.35,0.35 0,0.19 0.15,0.35 0.35,0.35 0.19,0 0.35,-0.16 0.35,-0.35z"/>
    <path class="fil0" d="M11.67 7.42c0,-0.2 -0.16,-0.35 -0.35,-0.35 -0.19,0 -0.35,0.15 -0.35,0.35 0,0.19 0.16,0.35 0.35,0.35 0.19,0 0.35,-0.16 0.35,-0.35z"/>
    <path class="fil0" d="M17.92 7.42c0,-0.2 -0.16,-0.35 -0.36,-0.35 -0.19,0 -0.35,0.15 -0.35,0.35 0,0.19 0.16,0.35 0.35,0.35 0.2,0 0.36,-0.16 0.36,-0.35z"/>
    <path class="fil0" d="M19.48 7.42c0,-0.2 -0.16,-0.35 -0.35,-0.35 -0.2,0 -0.36,0.15 -0.36,0.35 0,0.19 0.16,0.35 0.36,0.35 0.19,0 0.35,-0.16 0.35,-0.35z"/>
    <path class="fil0" d="M22.6 7.42c0,-0.2 -0.16,-0.35 -0.35,-0.35 -0.2,0 -0.35,0.15 -0.35,0.35 0,0.19 0.15,0.35 0.35,0.35 0.19,0 0.35,-0.16 0.35,-0.35z"/>
    <path class="fil0" d="M1.52 8.2c0,-0.2 -0.16,-0.35 -0.35,-0.35 -0.19,0 -0.35,0.15 -0.35,0.35 0,0.19 0.16,0.35 0.35,0.35 0.19,0 0.35,-0.16 0.35,-0.35z"/>
    <path class="fil0" d="M3.08 8.2c0,-0.2 -0.15,-0.35 -0.35,-0.35 -0.19,0 -0.35,0.15 -0.35,0.35 0,0.19 0.16,0.35 0.35,0.35 0.2,0 0.35,-0.16 0.35,-0.35z"/>
    <path class="fil0" d="M5.43 8.2c0,-0.2 -0.16,-0.35 -0.36,-0.35 -0.19,0 -0.35,0.15 -0.35,0.35 0,0.19 0.16,0.35 0.35,0.35 0.2,0 0.36,-0.16 0.36,-0.35z"/>
    <path class="fil0" d="M6.99 8.2c0,-0.2 -0.16,-0.35 -0.35,-0.35 -0.2,0 -0.36,0.15 -0.36,0.35 0,0.19 0.16,0.35 0.36,0.35 0.19,0 0.35,-0.16 0.35,-0.35z"/>
    <path class="fil0" d="M10.11 8.2c0,-0.2 -0.16,-0.35 -0.35,-0.35 -0.2,0 -0.35,0.15 -0.35,0.35 0,0.19 0.15,0.35 0.35,0.35 0.19,0 0.35,-0.16 0.35,-0.35z"/>
    <path class="fil0" d="M10.89 8.2c0,-0.2 -0.16,-0.35 -0.35,-0.35 -0.2,0 -0.35,0.15 -0.35,0.35 0,0.19 0.15,0.35 0.35,0.35 0.19,0 0.35,-0.16 0.35,-0.35z"/>
    <path class="fil0" d="M11.67 8.2c0,-0.2 -0.16,-0.35 -0.35,-0.35 -0.19,0 -0.35,0.15 -0.35,0.35 0,0.19 0.16,0.35 0.35,0.35 0.19,0 0.35,-0.16 0.35,-0.35z"/>
    <path class="fil0" d="M12.45 8.2c0,-0.2 -0.16,-0.35 -0.35,-0.35 -0.19,0 -0.35,0.15 -0.35,0.35 0,0.19 0.16,0.35 0.35,0.35 0.19,0 0.35,-0.16 0.35,-0.35z"/>
    <path class="fil0" d="M14.79 8.2c0,-0.2 -0.15,-0.35 -0.35,-0.35 -0.19,0 -0.35,0.15 -0.35,0.35 0,0.19 0.16,0.35 0.35,0.35 0.2,0 0.35,-0.16 0.35,-0.35z"/>
    <path class="fil0" d="M16.35 8.2c0,-0.2 -0.15,-0.35 -0.35,-0.35 -0.19,0 -0.35,0.15 -0.35,0.35 0,0.19 0.16,0.35 0.35,0.35 0.2,0 0.35,-0.16 0.35,-0.35z"/>
    <path class="fil0" d="M17.14 8.2c0,-0.2 -0.16,-0.35 -0.36,-0.35 -0.19,0 -0.35,0.15 -0.35,0.35 0,0.19 0.16,0.35 0.35,0.35 0.2,0 0.36,-0.16 0.36,-0.35z"/>
    <path class="fil0" d="M17.92 8.2c0,-0.2 -0.16,-0.35 -0.36,-0.35 -0.19,0 -0.35,0.15 -0.35,0.35 0,0.19 0.16,0.35 0.35,0.35 0.2,0 0.36,-0.16 0.36,-0.35z"/>
    <path class="fil0" d="M18.7 8.2c0,-0.2 -0.16,-0.35 -0.35,-0.35 -0.2,0 -0.36,0.15 -0.36,0.35 0,0.19 0.16,0.35 0.36,0.35 0.19,0 0.35,-0.16 0.35,-0.35z"/>
    <path class="fil0" d="M20.26 8.2c0,-0.2 -0.16,-0.35 -0.35,-0.35 -0.2,0 -0.35,0.15 -0.35,0.35 0,0.19 0.15,0.35 0.35,0.35 0.19,0 0.35,-0.16 0.35,-0.35z"/>
    <path class="fil0" d="M21.04 8.2c0,-0.2 -0.16,-0.35 -0.35,-0.35 -0.2,0 -0.35,0.15 -0.35,0.35 0,0.19 0.15,0.35 0.35,0.35 0.19,0 0.35,-0.16 0.35,-0.35z"/>
    <path class="fil0" d="M2.3 8.98c0,-0.2 -0.15,-0.35 -0.35,-0.35 -0.19,0 -0.35,0.15 -0.35,0.35 0,0.19 0.16,0.35 0.35,0.35 0.2,0 0.35,-0.16 0.35,-0.35z"/>
    <path class="fil0" d="M3.08 8.98c0,-0.2 -0.15,-0.35 -0.35,-0.35 -0.19,0 -0.35,0.15 -0.35,0.35 0,0.19 0.16,0.35 0.35,0.35 0.2,0 0.35,-0.16 0.35,-0.35z"/>
    <path class="fil0" d="M6.99 8.98c0,-0.2 -0.16,-0.35 -0.35,-0.35 -0.2,0 -0.36,0.15 -0.36,0.35 0,0.19 0.16,0.35 0.36,0.35 0.19,0 0.35,-0.16 0.35,-0.35z"/>
    <path class="fil0" d="M7.77 8.98c0,-0.2 -0.16,-0.35 -0.35,-0.35 -0.2,0 -0.35,0.15 -0.35,0.35 0,0.19 0.15,0.35 0.35,0.35 0.19,0 0.35,-0.16 0.35,-0.35z"/>
    <path class="fil0" d="M8.55 8.98c0,-0.2 -0.16,-0.35 -0.35,-0.35 -0.2,0 -0.35,0.15 -0.35,0.35 0,0.19 0.15,0.35 0.35,0.35 0.19,0 0.35,-0.16 0.35,-0.35z"/>
    <path class="fil0" d="M11.67 8.98c0,-0.2 -0.16,-0.35 -0.35,-0.35 -0.19,0 -0.35,0.15 -0.35,0.35 0,0.19 0.16,0.35 0.35,0.35 0.19,0 0.35,-0.16 0.35,-0.35z"/>
    <path class="fil0" d="M13.23 8.98c0,-0.2 -0.16,-0.35 -0.35,-0.35 -0.19,0 -0.35,0.15 -0.35,0.35 0,0.19 0.16,0.35 0.35,0.35 0.19,0 0.35,-0.16 0.35,-0.35z"/>
    <path class="fil0" d="M14.01 8.98c0,-0.2 -0.15,-0.35 -0.35,-0.35 -0.19,0 -0.35,0.15 -0.35,0.35 0,0.19 0.16,0.35 0.35,0.35 0.2,0 0.35,-0.16 0.35,-0.35z"/>
    <path class="fil0" d="M14.79 8.98c0,-0.2 -0.15,-0.35 -0.35,-0.35 -0.19,0 -0.35,0.15 -0.35,0.35 0,0.19 0.16,0.35 0.35,0.35 0.2,0 0.35,-0.16 0.35,-0.35z"/>
    <path class="fil0" d="M17.14 8.98c0,-0.2 -0.16,-0.35 -0.36,-0.35 -0.19,0 -0.35,0.15 -0.35,0.35 0,0.19 0.16,0.35 0.35,0.35 0.2,0 0.36,-0.16 0.36,-0.35z"/>
    <path class="fil0" d="M17.92 8.98c0,-0.2 -0.16,-0.35 -0.36,-0.35 -0.19,0 -0.35,0.15 -0.35,0.35 0,0.19 0.16,0.35 0.35,0.35 0.2,0 0.36,-0.16 0.36,-0.35z"/>
    <path class="fil0" d="M19.48 8.98c0,-0.2 -0.16,-0.35 -0.35,-0.35 -0.2,0 -0.36,0.15 -0.36,0.35 0,0.19 0.16,0.35 0.36,0.35 0.19,0 0.35,-0.16 0.35,-0.35z"/>
    <path class="fil0" d="M20.26 8.98c0,-0.2 -0.16,-0.35 -0.35,-0.35 -0.2,0 -0.35,0.15 -0.35,0.35 0,0.19 0.15,0.35 0.35,0.35 0.19,0 0.35,-0.16 0.35,-0.35z"/>
    <path class="fil0" d="M21.82 8.98c0,-0.2 -0.16,-0.35 -0.35,-0.35 -0.2,0 -0.35,0.15 -0.35,0.35 0,0.19 0.15,0.35 0.35,0.35 0.19,0 0.35,-0.16 0.35,-0.35z"/>
    <path class="fil0" d="M1.52 9.76c0,-0.2 -0.16,-0.35 -0.35,-0.35 -0.19,0 -0.35,0.15 -0.35,0.35 0,0.19 0.16,0.35 0.35,0.35 0.19,0 0.35,-0.16 0.35,-0.35z"/>
    <path class="fil0" d="M2.3 9.76c0,-0.2 -0.15,-0.35 -0.35,-0.35 -0.19,0 -0.35,0.15 -0.35,0.35 0,0.19 0.16,0.35 0.35,0.35 0.2,0 0.35,-0.16 0.35,-0.35z"/>
    <path class="fil0" d="M3.08 9.76c0,-0.2 -0.15,-0.35 -0.35,-0.35 -0.19,0 -0.35,0.15 -0.35,0.35 0,0.19 0.16,0.35 0.35,0.35 0.2,0 0.35,-0.16 0.35,-0.35z"/>
    <path class="fil0" d="M4.64 9.76c0,-0.2 -0.15,-0.35 -0.35,-0.35 -0.19,0 -0.35,0.15 -0.35,0.35 0,0.19 0.16,0.35 0.35,0.35 0.2,0 0.35,-0.16 0.35,-0.35z"/>
    <path class="fil0" d="M5.43 9.76c0,-0.2 -0.16,-0.35 -0.36,-0.35 -0.19,0 -0.35,0.15 -0.35,0.35 0,0.19 0.16,0.35 0.35,0.35 0.2,0 0.36,-0.16 0.36,-0.35z"/>
    <path class="fil0" d="M7.77 9.76c0,-0.2 -0.16,-0.35 -0.35,-0.35 -0.2,0 -0.35,0.15 -0.35,0.35 0,0.19 0.15,0.35 0.35,0.35 0.19,0 0.35,-0.16 0.35,-0.35z"/>
    <path class="fil0" d="M11.67 9.76c0,-0.2 -0.16,-0.35 -0.35,-0.35 -0.19,0 -0.35,0.15 -0.35,0.35 0,0.19 0.16,0.35 0.35,0.35 0.19,0 0.35,-0.16 0.35,-0.35z"/>
    <path class="fil0" d="M12.45 9.76c0,-0.2 -0.16,-0.35 -0.35,-0.35 -0.19,0 -0.35,0.15 -0.35,0.35 0,0.19 0.16,0.35 0.35,0.35 0.19,0 0.35,-0.16 0.35,-0.35z"/>
    <path class="fil0" d="M13.23 9.76c0,-0.2 -0.16,-0.35 -0.35,-0.35 -0.19,0 -0.35,0.15 -0.35,0.35 0,0.19 0.16,0.35 0.35,0.35 0.19,0 0.35,-0.16 0.35,-0.35z"/>
    <path class="fil0" d="M14.79 9.76c0,-0.2 -0.15,-0.35 -0.35,-0.35 -0.19,0 -0.35,0.15 -0.35,0.35 0,0.19 0.16,0.35 0.35,0.35 0.2,0 0.35,-0.16 0.35,-0.35z"/>
    <path class="fil0" d="M16.35 9.76c0,-0.2 -0.15,-0.35 -0.35,-0.35 -0.19,0 -0.35,0.15 -0.35,0.35 0,0.19 0.16,0.35 0.35,0.35 0.2,0 0.35,-0.16 0.35,-0.35z"/>
    <path class="fil0" d="M17.14 9.76c0,-0.2 -0.16,-0.35 -0.36,-0.35 -0.19,0 -0.35,0.15 -0.35,0.35 0,0.19 0.16,0.35 0.35,0.35 0.2,0 0.36,-0.16 0.36,-0.35z"/>
    <path class="fil0" d="M18.7 9.76c0,-0.2 -0.16,-0.35 -0.35,-0.35 -0.2,0 -0.36,0.15 -0.36,0.35 0,0.19 0.16,0.35 0.36,0.35 0.19,0 0.35,-0.16 0.35,-0.35z"/>
    <path class="fil0" d="M21.04 9.76c0,-0.2 -0.16,-0.35 -0.35,-0.35 -0.2,0 -0.35,0.15 -0.35,0.35 0,0.19 0.15,0.35 0.35,0.35 0.19,0 0.35,-0.16 0.35,-0.35z"/>
    <path class="fil0" d="M21.82 9.76c0,-0.2 -0.16,-0.35 -0.35,-0.35 -0.2,0 -0.35,0.15 -0.35,0.35 0,0.19 0.15,0.35 0.35,0.35 0.19,0 0.35,-0.16 0.35,-0.35z"/>
    <path class="fil0" d="M22.6 9.76c0,-0.2 -0.16,-0.35 -0.35,-0.35 -0.2,0 -0.35,0.15 -0.35,0.35 0,0.19 0.15,0.35 0.35,0.35 0.19,0 0.35,-0.16 0.35,-0.35z"/>
    <path class="fil0" d="M2.3 10.54c0,-0.2 -0.15,-0.35 -0.35,-0.35 -0.19,0 -0.35,0.15 -0.35,0.35 0,0.19 0.16,0.35 0.35,0.35 0.2,0 0.35,-0.16 0.35,-0.35z"/>
    <path class="fil0" d="M6.21 10.54c0,-0.2 -0.16,-0.35 -0.35,-0.35 -0.2,0 -0.36,0.15 -0.36,0.35 0,0.19 0.16,0.35 0.36,0.35 0.19,0 0.35,-0.16 0.35,-0.35z"/>
    <path class="fil0" d="M9.33 10.54c0,-0.2 -0.16,-0.35 -0.35,-0.35 -0.2,0 -0.35,0.15 -0.35,0.35 0,0.19 0.15,0.35 0.35,0.35 0.19,0 0.35,-0.16 0.35,-0.35z"/>
    <path class="fil0" d="M10.89 10.54c0,-0.2 -0.16,-0.35 -0.35,-0.35 -0.2,0 -0.35,0.15 -0.35,0.35 0,0.19 0.15,0.35 0.35,0.35 0.19,0 0.35,-0.16 0.35,-0.35z"/>
    <path class="fil0" d="M12.45 10.54c0,-0.2 -0.16,-0.35 -0.35,-0.35 -0.19,0 -0.35,0.15 -0.35,0.35 0,0.19 0.16,0.35 0.35,0.35 0.19,0 0.35,-0.16 0.35,-0.35z"/>
    <path class="fil0" d="M14.79 10.54c0,-0.2 -0.15,-0.35 -0.35,-0.35 -0.19,0 -0.35,0.15 -0.35,0.35 0,0.19 0.16,0.35 0.35,0.35 0.2,0 0.35,-0.16 0.35,-0.35z"/>
    <path class="fil0" d="M15.57 10.54c0,-0.2 -0.15,-0.35 -0.35,-0.35 -0.19,0 -0.35,0.15 -0.35,0.35 0,0.19 0.16,0.35 0.35,0.35 0.2,0 0.35,-0.16 0.35,-0.35z"/>
    <path class="fil0" d="M16.35 10.54c0,-0.2 -0.15,-0.35 -0.35,-0.35 -0.19,0 -0.35,0.15 -0.35,0.35 0,0.19 0.16,0.35 0.35,0.35 0.2,0 0.35,-0.16 0.35,-0.35z"/>
    <path class="fil0" d="M17.14 10.54c0,-0.2 -0.16,-0.35 -0.36,-0.35 -0.19,0 -0.35,0.15 -0.35,0.35 0,0.19 0.16,0.35 0.35,0.35 0.2,0 0.36,-0.16 0.36,-0.35z"/>
    <path class="fil0" d="M17.92 10.54c0,-0.2 -0.16,-0.35 -0.36,-0.35 -0.19,0 -0.35,0.15 -0.35,0.35 0,0.19 0.16,0.35 0.35,0.35 0.2,0 0.36,-0.16 0.36,-0.35z"/>
    <path class="fil0" d="M19.48 10.54c0,-0.2 -0.16,-0.35 -0.35,-0.35 -0.2,0 -0.36,0.15 -0.36,0.35 0,0.19 0.16,0.35 0.36,0.35 0.19,0 0.35,-0.16 0.35,-0.35z"/>
    <path class="fil0" d="M20.26 10.54c0,-0.2 -0.16,-0.35 -0.35,-0.35 -0.2,0 -0.35,0.15 -0.35,0.35 0,0.19 0.15,0.35 0.35,0.35 0.19,0 0.35,-0.16 0.35,-0.35z"/>
    <path class="fil0" d="M21.82 10.54c0,-0.2 -0.16,-0.35 -0.35,-0.35 -0.2,0 -0.35,0.15 -0.35,0.35 0,0.19 0.15,0.35 0.35,0.35 0.19,0 0.35,-0.16 0.35,-0.35z"/>
    <path class="fil0" d="M22.6 10.54c0,-0.2 -0.16,-0.35 -0.35,-0.35 -0.2,0 -0.35,0.15 -0.35,0.35 0,0.19 0.15,0.35 0.35,0.35 0.19,0 0.35,-0.16 0.35,-0.35z"/>
    <path class="fil0" d="M0.74 11.32c0,-0.19 -0.16,-0.35 -0.35,-0.35 -0.19,0 -0.35,0.16 -0.35,0.35 0,0.19 0.16,0.35 0.35,0.35 0.19,0 0.35,-0.16 0.35,-0.35z"/>
    <path class="fil0" d="M1.52 11.32c0,-0.19 -0.16,-0.35 -0.35,-0.35 -0.19,0 -0.35,0.16 -0.35,0.35 0,0.19 0.16,0.35 0.35,0.35 0.19,0 0.35,-0.16 0.35,-0.35z"/>
    <path class="fil0" d="M2.3 11.32c0,-0.19 -0.15,-0.35 -0.35,-0.35 -0.19,0 -0.35,0.16 -0.35,0.35 0,0.19 0.16,0.35 0.35,0.35 0.2,0 0.35,-0.16 0.35,-0.35z"/>
    <path class="fil0" d="M5.43 11.32c0,-0.19 -0.16,-0.35 -0.36,-0.35 -0.19,0 -0.35,0.16 -0.35,0.35 0,0.19 0.16,0.35 0.35,0.35 0.2,0 0.36,-0.16 0.36,-0.35z"/>
    <path class="fil0" d="M6.99 11.32c0,-0.19 -0.16,-0.35 -0.35,-0.35 -0.2,0 -0.36,0.16 -0.36,0.35 0,0.19 0.16,0.35 0.36,0.35 0.19,0 0.35,-0.16 0.35,-0.35z"/>
    <path class="fil0" d="M8.55 11.32c0,-0.19 -0.16,-0.35 -0.35,-0.35 -0.2,0 -0.35,0.16 -0.35,0.35 0,0.19 0.15,0.35 0.35,0.35 0.19,0 0.35,-0.16 0.35,-0.35z"/>
    <path class="fil0" d="M10.89 11.32c0,-0.19 -0.16,-0.35 -0.35,-0.35 -0.2,0 -0.35,0.16 -0.35,0.35 0,0.19 0.15,0.35 0.35,0.35 0.19,0 0.35,-0.16 0.35,-0.35z"/>
    <path class="fil0" d="M11.67 11.32c0,-0.19 -0.16,-0.35 -0.35,-0.35 -0.19,0 -0.35,0.16 -0.35,0.35 0,0.19 0.16,0.35 0.35,0.35 0.19,0 0.35,-0.16 0.35,-0.35z"/>
    <path class="fil0" d="M12.45 11.32c0,-0.19 -0.16,-0.35 -0.35,-0.35 -0.19,0 -0.35,0.16 -0.35,0.35 0,0.19 0.16,0.35 0.35,0.35 0.19,0 0.35,-0.16 0.35,-0.35z"/>
    <path class="fil0" d="M14.01 11.32c0,-0.19 -0.15,-0.35 -0.35,-0.35 -0.19,0 -0.35,0.16 -0.35,0.35 0,0.19 0.16,0.35 0.35,0.35 0.2,0 0.35,-0.16 0.35,-0.35z"/>
    <path class="fil0" d="M17.14 11.32c0,-0.19 -0.16,-0.35 -0.36,-0.35 -0.19,0 -0.35,0.16 -0.35,0.35 0,0.19 0.16,0.35 0.35,0.35 0.2,0 0.36,-0.16 0.36,-0.35z"/>
    <path class="fil0" d="M18.7 11.32c0,-0.19 -0.16,-0.35 -0.35,-0.35 -0.2,0 -0.36,0.16 -0.36,0.35 0,0.19 0.16,0.35 0.36,0.35 0.19,0 0.35,-0.16 0.35,-0.35z"/>
    <path class="fil0" d="M2.3 12.1c0,-0.19 -0.15,-0.35 -0.35,-0.35 -0.19,0 -0.35,0.16 -0.35,0.35 0,0.19 0.16,0.35 0.35,0.35 0.2,0 0.35,-0.16 0.35,-0.35z"/>
    <path class="fil0" d="M3.86 12.1c0,-0.19 -0.15,-0.35 -0.35,-0.35 -0.19,0 -0.35,0.16 -0.35,0.35 0,0.19 0.16,0.35 0.35,0.35 0.2,0 0.35,-0.16 0.35,-0.35z"/>
    <path class="fil0" d="M6.21 12.1c0,-0.19 -0.16,-0.35 -0.35,-0.35 -0.2,0 -0.36,0.16 -0.36,0.35 0,0.19 0.16,0.35 0.36,0.35 0.19,0 0.35,-0.16 0.35,-0.35z"/>
    <path class="fil0" d="M6.99 12.1c0,-0.19 -0.16,-0.35 -0.35,-0.35 -0.2,0 -0.36,0.16 -0.36,0.35 0,0.19 0.16,0.35 0.36,0.35 0.19,0 0.35,-0.16 0.35,-0.35z"/>
    <path class="fil0" d="M7.77 12.1c0,-0.19 -0.16,-0.35 -0.35,-0.35 -0.2,0 -0.35,0.16 -0.35,0.35 0,0.19 0.15,0.35 0.35,0.35 0.19,0 0.35,-0.16 0.35,-0.35z"/>
    <path class="fil0" d="M8.55 12.1c0,-0.19 -0.16,-0.35 -0.35,-0.35 -0.2,0 -0.35,0.16 -0.35,0.35 0,0.19 0.15,0.35 0.35,0.35 0.19,0 0.35,-0.16 0.35,-0.35z"/>
    <path class="fil0" d="M10.89 12.1c0,-0.19 -0.16,-0.35 -0.35,-0.35 -0.2,0 -0.35,0.16 -0.35,0.35 0,0.19 0.15,0.35 0.35,0.35 0.19,0 0.35,-0.16 0.35,-0.35z"/>
    <path class="fil0" d="M12.45 12.1c0,-0.19 -0.16,-0.35 -0.35,-0.35 -0.19,0 -0.35,0.16 -0.35,0.35 0,0.19 0.16,0.35 0.35,0.35 0.19,0 0.35,-0.16 0.35,-0.35z"/>
    <path class="fil0" d="M14.01 12.1c0,-0.19 -0.15,-0.35 -0.35,-0.35 -0.19,0 -0.35,0.16 -0.35,0.35 0,0.19 0.16,0.35 0.35,0.35 0.2,0 0.35,-0.16 0.35,-0.35z"/>
    <path class="fil0" d="M15.57 12.1c0,-0.19 -0.15,-0.35 -0.35,-0.35 -0.19,0 -0.35,0.16 -0.35,0.35 0,0.19 0.16,0.35 0.35,0.35 0.2,0 0.35,-0.16 0.35,-0.35z"/>
    <path class="fil0" d="M16.35 12.1c0,-0.19 -0.15,-0.35 -0.35,-0.35 -0.19,0 -0.35,0.16 -0.35,0.35 0,0.19 0.16,0.35 0.35,0.35 0.2,0 0.35,-0.16 0.35,-0.35z"/>
    <path class="fil0" d="M17.14 12.1c0,-0.19 -0.16,-0.35 -0.36,-0.35 -0.19,0 -0.35,0.16 -0.35,0.35 0,0.19 0.16,0.35 0.35,0.35 0.2,0 0.36,-0.16 0.36,-0.35z"/>
    <path class="fil0" d="M19.48 12.1c0,-0.19 -0.16,-0.35 -0.35,-0.35 -0.2,0 -0.36,0.16 -0.36,0.35 0,0.19 0.16,0.35 0.36,0.35 0.19,0 0.35,-0.16 0.35,-0.35z"/>
    <path class="fil0" d="M20.26 12.1c0,-0.19 -0.16,-0.35 -0.35,-0.35 -0.2,0 -0.35,0.16 -0.35,0.35 0,0.19 0.15,0.35 0.35,0.35 0.19,0 0.35,-0.16 0.35,-0.35z"/>
    <path class="fil0" d="M21.82 12.1c0,-0.19 -0.16,-0.35 -0.35,-0.35 -0.2,0 -0.35,0.16 -0.35,0.35 0,0.19 0.15,0.35 0.35,0.35 0.19,0 0.35,-0.16 0.35,-0.35z"/>
    <path class="fil0" d="M22.6 12.1c0,-0.19 -0.16,-0.35 -0.35,-0.35 -0.2,0 -0.35,0.16 -0.35,0.35 0,0.19 0.15,0.35 0.35,0.35 0.19,0 0.35,-0.16 0.35,-0.35z"/>
    <path class="fil0" d="M2.3 12.88c0,-0.19 -0.15,-0.35 -0.35,-0.35 -0.19,0 -0.35,0.16 -0.35,0.35 0,0.19 0.16,0.35 0.35,0.35 0.2,0 0.35,-0.16 0.35,-0.35z"/>
    <path class="fil0" d="M3.86 12.88c0,-0.19 -0.15,-0.35 -0.35,-0.35 -0.19,0 -0.35,0.16 -0.35,0.35 0,0.19 0.16,0.35 0.35,0.35 0.2,0 0.35,-0.16 0.35,-0.35z"/>
    <path class="fil0" d="M4.64 12.88c0,-0.19 -0.15,-0.35 -0.35,-0.35 -0.19,0 -0.35,0.16 -0.35,0.35 0,0.19 0.16,0.35 0.35,0.35 0.2,0 0.35,-0.16 0.35,-0.35z"/>
    <path class="fil0" d="M5.43 12.88c0,-0.19 -0.16,-0.35 -0.36,-0.35 -0.19,0 -0.35,0.16 -0.35,0.35 0,0.19 0.16,0.35 0.35,0.35 0.2,0 0.36,-0.16 0.36,-0.35z"/>
    <path class="fil0" d="M6.21 12.88c0,-0.19 -0.16,-0.35 -0.35,-0.35 -0.2,0 -0.36,0.16 -0.36,0.35 0,0.19 0.16,0.35 0.36,0.35 0.19,0 0.35,-0.16 0.35,-0.35z"/>
    <path class="fil0" d="M6.99 12.88c0,-0.19 -0.16,-0.35 -0.35,-0.35 -0.2,0 -0.36,0.16 -0.36,0.35 0,0.19 0.16,0.35 0.36,0.35 0.19,0 0.35,-0.16 0.35,-0.35z"/>
    <path class="fil0" d="M7.77 12.88c0,-0.19 -0.16,-0.35 -0.35,-0.35 -0.2,0 -0.35,0.16 -0.35,0.35 0,0.19 0.15,0.35 0.35,0.35 0.19,0 0.35,-0.16 0.35,-0.35z"/>
    <path class="fil0" d="M8.55 12.88c0,-0.19 -0.16,-0.35 -0.35,-0.35 -0.2,0 -0.35,0.16 -0.35,0.35 0,0.19 0.15,0.35 0.35,0.35 0.19,0 0.35,-0.16 0.35,-0.35z"/>
    <path class="fil0" d="M9.33 12.88c0,-0.19 -0.16,-0.35 -0.35,-0.35 -0.2,0 -0.35,0.16 -0.35,0.35 0,0.19 0.15,0.35 0.35,0.35 0.19,0 0.35,-0.16 0.35,-0.35z"/>
    <path class="fil0" d="M10.11 12.88c0,-0.19 -0.16,-0.35 -0.35,-0.35 -0.2,0 -0.35,0.16 -0.35,0.35 0,0.19 0.15,0.35 0.35,0.35 0.19,0 0.35,-0.16 0.35,-0.35z"/>
    <path class="fil0" d="M11.67 12.88c0,-0.19 -0.16,-0.35 -0.35,-0.35 -0.19,0 -0.35,0.16 -0.35,0.35 0,0.19 0.16,0.35 0.35,0.35 0.19,0 0.35,-0.16 0.35,-0.35z"/>
    <path class="fil0" d="M12.45 12.88c0,-0.19 -0.16,-0.35 -0.35,-0.35 -0.19,0 -0.35,0.16 -0.35,0.35 0,0.19 0.16,0.35 0.35,0.35 0.19,0 0.35,-0.16 0.35,-0.35z"/>
    <path class="fil0" d="M14.79 12.88c0,-0.19 -0.15,-0.35 -0.35,-0.35 -0.19,0 -0.35,0.16 -0.35,0.35 0,0.19 0.16,0.35 0.35,0.35 0.2,0 0.35,-0.16 0.35,-0.35z"/>
    <path class="fil0" d="M17.14 12.88c0,-0.19 -0.16,-0.35 -0.36,-0.35 -0.19,0 -0.35,0.16 -0.35,0.35 0,0.19 0.16,0.35 0.35,0.35 0.2,0 0.36,-0.16 0.36,-0.35z"/>
    <path class="fil0" d="M20.26 12.88c0,-0.19 -0.16,-0.35 -0.35,-0.35 -0.2,0 -0.35,0.16 -0.35,0.35 0,0.19 0.15,0.35 0.35,0.35 0.19,0 0.35,-0.16 0.35,-0.35z"/>
    <path class="fil0" d="M21.04 12.88c0,-0.19 -0.16,-0.35 -0.35,-0.35 -0.2,0 -0.35,0.16 -0.35,0.35 0,0.19 0.15,0.35 0.35,0.35 0.19,0 0.35,-0.16 0.35,-0.35z"/>
    <path class="fil0" d="M22.6 12.88c0,-0.19 -0.16,-0.35 -0.35,-0.35 -0.2,0 -0.35,0.16 -0.35,0.35 0,0.19 0.15,0.35 0.35,0.35 0.19,0 0.35,-0.16 0.35,-0.35z"/>
    <path class="fil0" d="M0.74 13.66c0,-0.19 -0.16,-0.35 -0.35,-0.35 -0.19,0 -0.35,0.16 -0.35,0.35 0,0.2 0.16,0.35 0.35,0.35 0.19,0 0.35,-0.15 0.35,-0.35z"/>
    <path class="fil0" d="M3.08 13.66c0,-0.19 -0.15,-0.35 -0.35,-0.35 -0.19,0 -0.35,0.16 -0.35,0.35 0,0.2 0.16,0.35 0.35,0.35 0.2,0 0.35,-0.15 0.35,-0.35z"/>
    <path class="fil0" d="M3.86 13.66c0,-0.19 -0.15,-0.35 -0.35,-0.35 -0.19,0 -0.35,0.16 -0.35,0.35 0,0.2 0.16,0.35 0.35,0.35 0.2,0 0.35,-0.15 0.35,-0.35z"/>
    <path class="fil0" d="M4.64 13.66c0,-0.19 -0.15,-0.35 -0.35,-0.35 -0.19,0 -0.35,0.16 -0.35,0.35 0,0.2 0.16,0.35 0.35,0.35 0.2,0 0.35,-0.15 0.35,-0.35z"/>
    <path class="fil0" d="M9.33 13.66c0,-0.19 -0.16,-0.35 -0.35,-0.35 -0.2,0 -0.35,0.16 -0.35,0.35 0,0.2 0.15,0.35 0.35,0.35 0.19,0 0.35,-0.15 0.35,-0.35z"/>
    <path class="fil0" d="M10.11 13.66c0,-0.19 -0.16,-0.35 -0.35,-0.35 -0.2,0 -0.35,0.16 -0.35,0.35 0,0.2 0.15,0.35 0.35,0.35 0.19,0 0.35,-0.15 0.35,-0.35z"/>
    <path class="fil0" d="M11.67 13.66c0,-0.19 -0.16,-0.35 -0.35,-0.35 -0.19,0 -0.35,0.16 -0.35,0.35 0,0.2 0.16,0.35 0.35,0.35 0.19,0 0.35,-0.15 0.35,-0.35z"/>
    <path class="fil0" d="M16.35 13.66c0,-0.19 -0.15,-0.35 -0.35,-0.35 -0.19,0 -0.35,0.16 -0.35,0.35 0,0.2 0.16,0.35 0.35,0.35 0.2,0 0.35,-0.15 0.35,-0.35z"/>
    <path class="fil0" d="M17.92 13.66c0,-0.19 -0.16,-0.35 -0.36,-0.35 -0.19,0 -0.35,0.16 -0.35,0.35 0,0.2 0.16,0.35 0.35,0.35 0.2,0 0.36,-0.15 0.36,-0.35z"/>
    <path class="fil0" d="M18.7 13.66c0,-0.19 -0.16,-0.35 -0.35,-0.35 -0.2,0 -0.36,0.16 -0.36,0.35 0,0.2 0.16,0.35 0.36,0.35 0.19,0 0.35,-0.15 0.35,-0.35z"/>
    <path class="fil0" d="M19.48 13.66c0,-0.19 -0.16,-0.35 -0.35,-0.35 -0.2,0 -0.36,0.16 -0.36,0.35 0,0.2 0.16,0.35 0.36,0.35 0.19,0 0.35,-0.15 0.35,-0.35z"/>
    <path class="fil0" d="M21.82 13.66c0,-0.19 -0.16,-0.35 -0.35,-0.35 -0.2,0 -0.35,0.16 -0.35,0.35 0,0.2 0.15,0.35 0.35,0.35 0.19,0 0.35,-0.15 0.35,-0.35z"/>
    <path class="fil0" d="M22.6 13.66c0,-0.19 -0.16,-0.35 -0.35,-0.35 -0.2,0 -0.35,0.16 -0.35,0.35 0,0.2 0.15,0.35 0.35,0.35 0.19,0 0.35,-0.15 0.35,-0.35z"/>
    <path class="fil0" d="M0.74 14.44c0,-0.19 -0.16,-0.35 -0.35,-0.35 -0.19,0 -0.35,0.16 -0.35,0.35 0,0.2 0.16,0.35 0.35,0.35 0.19,0 0.35,-0.15 0.35,-0.35z"/>
    <path class="fil0" d="M2.3 14.44c0,-0.19 -0.15,-0.35 -0.35,-0.35 -0.19,0 -0.35,0.16 -0.35,0.35 0,0.2 0.16,0.35 0.35,0.35 0.2,0 0.35,-0.15 0.35,-0.35z"/>
    <path class="fil0" d="M5.43 14.44c0,-0.19 -0.16,-0.35 -0.36,-0.35 -0.19,0 -0.35,0.16 -0.35,0.35 0,0.2 0.16,0.35 0.35,0.35 0.2,0 0.36,-0.15 0.36,-0.35z"/>
    <path class="fil0" d="M7.77 14.44c0,-0.19 -0.16,-0.35 -0.35,-0.35 -0.2,0 -0.35,0.16 -0.35,0.35 0,0.2 0.15,0.35 0.35,0.35 0.19,0 0.35,-0.15 0.35,-0.35z"/>
    <path class="fil0" d="M9.33 14.44c0,-0.19 -0.16,-0.35 -0.35,-0.35 -0.2,0 -0.35,0.16 -0.35,0.35 0,0.2 0.15,0.35 0.35,0.35 0.19,0 0.35,-0.15 0.35,-0.35z"/>
    <path class="fil0" d="M10.89 14.44c0,-0.19 -0.16,-0.35 -0.35,-0.35 -0.2,0 -0.35,0.16 -0.35,0.35 0,0.2 0.15,0.35 0.35,0.35 0.19,0 0.35,-0.15 0.35,-0.35z"/>
    <path class="fil0" d="M11.67 14.44c0,-0.19 -0.16,-0.35 -0.35,-0.35 -0.19,0 -0.35,0.16 -0.35,0.35 0,0.2 0.16,0.35 0.35,0.35 0.19,0 0.35,-0.15 0.35,-0.35z"/>
    <path class="fil0" d="M15.57 14.44c0,-0.19 -0.15,-0.35 -0.35,-0.35 -0.19,0 -0.35,0.16 -0.35,0.35 0,0.2 0.16,0.35 0.35,0.35 0.2,0 0.35,-0.15 0.35,-0.35z"/>
    <path class="fil0" d="M17.92 14.44c0,-0.19 -0.16,-0.35 -0.36,-0.35 -0.19,0 -0.35,0.16 -0.35,0.35 0,0.2 0.16,0.35 0.35,0.35 0.2,0 0.36,-0.15 0.36,-0.35z"/>
    <path class="fil0" d="M20.26 14.44c0,-0.19 -0.16,-0.35 -0.35,-0.35 -0.2,0 -0.35,0.16 -0.35,0.35 0,0.2 0.15,0.35 0.35,0.35 0.19,0 0.35,-0.15 0.35,-0.35z"/>
    <path class="fil0" d="M21.04 14.44c0,-0.19 -0.16,-0.35 -0.35,-0.35 -0.2,0 -0.35,0.16 -0.35,0.35 0,0.2 0.15,0.35 0.35,0.35 0.19,0 0.35,-0.15 0.35,-0.35z"/>
    <path class="fil0" d="M0.74 15.22c0,-0.19 -0.16,-0.35 -0.35,-0.35 -0.19,0 -0.35,0.16 -0.35,0.35 0,0.2 0.16,0.35 0.35,0.35 0.19,0 0.35,-0.15 0.35,-0.35z"/>
    <path class="fil0" d="M2.3 15.22c0,-0.19 -0.15,-0.35 -0.35,-0.35 -0.19,0 -0.35,0.16 -0.35,0.35 0,0.2 0.16,0.35 0.35,0.35 0.2,0 0.35,-0.15 0.35,-0.35z"/>
    <path class="fil0" d="M3.08 15.22c0,-0.19 -0.15,-0.35 -0.35,-0.35 -0.19,0 -0.35,0.16 -0.35,0.35 0,0.2 0.16,0.35 0.35,0.35 0.2,0 0.35,-0.15 0.35,-0.35z"/>
    <path class="fil0" d="M3.86 15.22c0,-0.19 -0.15,-0.35 -0.35,-0.35 -0.19,0 -0.35,0.16 -0.35,0.35 0,0.2 0.16,0.35 0.35,0.35 0.2,0 0.35,-0.15 0.35,-0.35z"/>
    <path class="fil0" d="M6.21 15.22c0,-0.19 -0.16,-0.35 -0.35,-0.35 -0.2,0 -0.36,0.16 -0.36,0.35 0,0.2 0.16,0.35 0.36,0.35 0.19,0 0.35,-0.15 0.35,-0.35z"/>
    <path class="fil0" d="M7.77 15.22c0,-0.19 -0.16,-0.35 -0.35,-0.35 -0.2,0 -0.35,0.16 -0.35,0.35 0,0.2 0.15,0.35 0.35,0.35 0.19,0 0.35,-0.15 0.35,-0.35z"/>
    <path class="fil0" d="M9.33 15.22c0,-0.19 -0.16,-0.35 -0.35,-0.35 -0.2,0 -0.35,0.16 -0.35,0.35 0,0.2 0.15,0.35 0.35,0.35 0.19,0 0.35,-0.15 0.35,-0.35z"/>
    <path class="fil0" d="M10.89 15.22c0,-0.19 -0.16,-0.35 -0.35,-0.35 -0.2,0 -0.35,0.16 -0.35,0.35 0,0.2 0.15,0.35 0.35,0.35 0.19,0 0.35,-0.15 0.35,-0.35z"/>
    <path class="fil0" d="M12.45 15.22c0,-0.19 -0.16,-0.35 -0.35,-0.35 -0.19,0 -0.35,0.16 -0.35,0.35 0,0.2 0.16,0.35 0.35,0.35 0.19,0 0.35,-0.15 0.35,-0.35z"/>
    <path class="fil0" d="M14.01 15.22c0,-0.19 -0.15,-0.35 -0.35,-0.35 -0.19,0 -0.35,0.16 -0.35,0.35 0,0.2 0.16,0.35 0.35,0.35 0.2,0 0.35,-0.15 0.35,-0.35z"/>
    <path class="fil0" d="M15.57 15.22c0,-0.19 -0.15,-0.35 -0.35,-0.35 -0.19,0 -0.35,0.16 -0.35,0.35 0,0.2 0.16,0.35 0.35,0.35 0.2,0 0.35,-0.15 0.35,-0.35z"/>
    <path class="fil0" d="M16.35 15.22c0,-0.19 -0.15,-0.35 -0.35,-0.35 -0.19,0 -0.35,0.16 -0.35,0.35 0,0.2 0.16,0.35 0.35,0.35 0.2,0 0.35,-0.15 0.35,-0.35z"/>
    <path class="fil0" d="M17.92 15.22c0,-0.19 -0.16,-0.35 -0.36,-0.35 -0.19,0 -0.35,0.16 -0.35,0.35 0,0.2 0.16,0.35 0.35,0.35 0.2,0 0.36,-0.15 0.36,-0.35z"/>
    <path class="fil0" d="M18.7 15.22c0,-0.19 -0.16,-0.35 -0.35,-0.35 -0.2,0 -0.36,0.16 -0.36,0.35 0,0.2 0.16,0.35 0.36,0.35 0.19,0 0.35,-0.15 0.35,-0.35z"/>
    <path class="fil0" d="M19.48 15.22c0,-0.19 -0.16,-0.35 -0.35,-0.35 -0.2,0 -0.36,0.16 -0.36,0.35 0,0.2 0.16,0.35 0.36,0.35 0.19,0 0.35,-0.15 0.35,-0.35z"/>
    <path class="fil0" d="M21.82 15.22c0,-0.19 -0.16,-0.35 -0.35,-0.35 -0.2,0 -0.35,0.16 -0.35,0.35 0,0.2 0.15,0.35 0.35,0.35 0.19,0 0.35,-0.15 0.35,-0.35z"/>
    <path class="fil0" d="M0.74 16c0,-0.19 -0.16,-0.35 -0.35,-0.35 -0.19,0 -0.35,0.16 -0.35,0.35 0,0.2 0.16,0.35 0.35,0.35 0.19,0 0.35,-0.15 0.35,-0.35z"/>
    <path class="fil0" d="M2.3 16c0,-0.19 -0.15,-0.35 -0.35,-0.35 -0.19,0 -0.35,0.16 -0.35,0.35 0,0.2 0.16,0.35 0.35,0.35 0.2,0 0.35,-0.15 0.35,-0.35z"/>
    <path class="fil0" d="M5.43 16c0,-0.19 -0.16,-0.35 -0.36,-0.35 -0.19,0 -0.35,0.16 -0.35,0.35 0,0.2 0.16,0.35 0.35,0.35 0.2,0 0.36,-0.15 0.36,-0.35z"/>
    <path class="fil0" d="M8.55 16c0,-0.19 -0.16,-0.35 -0.35,-0.35 -0.2,0 -0.35,0.16 -0.35,0.35 0,0.2 0.15,0.35 0.35,0.35 0.19,0 0.35,-0.15 0.35,-0.35z"/>
    <path class="fil0" d="M9.33 16c0,-0.19 -0.16,-0.35 -0.35,-0.35 -0.2,0 -0.35,0.16 -0.35,0.35 0,0.2 0.15,0.35 0.35,0.35 0.19,0 0.35,-0.15 0.35,-0.35z"/>
    <path class="fil0" d="M10.11 16c0,-0.19 -0.16,-0.35 -0.35,-0.35 -0.2,0 -0.35,0.16 -0.35,0.35 0,0.2 0.15,0.35 0.35,0.35 0.19,0 0.35,-0.15 0.35,-0.35z"/>
    <path class="fil0" d="M10.89 16c0,-0.19 -0.16,-0.35 -0.35,-0.35 -0.2,0 -0.35,0.16 -0.35,0.35 0,0.2 0.15,0.35 0.35,0.35 0.19,0 0.35,-0.15 0.35,-0.35z"/>
    <path class="fil0" d="M11.67 16c0,-0.19 -0.16,-0.35 -0.35,-0.35 -0.19,0 -0.35,0.16 -0.35,0.35 0,0.2 0.16,0.35 0.35,0.35 0.19,0 0.35,-0.15 0.35,-0.35z"/>
    <path class="fil0" d="M13.23 16c0,-0.19 -0.16,-0.35 -0.35,-0.35 -0.19,0 -0.35,0.16 -0.35,0.35 0,0.2 0.16,0.35 0.35,0.35 0.19,0 0.35,-0.15 0.35,-0.35z"/>
    <path class="fil0" d="M14.79 16c0,-0.19 -0.15,-0.35 -0.35,-0.35 -0.19,0 -0.35,0.16 -0.35,0.35 0,0.2 0.16,0.35 0.35,0.35 0.2,0 0.35,-0.15 0.35,-0.35z"/>
    <path class="fil0" d="M15.57 16c0,-0.19 -0.15,-0.35 -0.35,-0.35 -0.19,0 -0.35,0.16 -0.35,0.35 0,0.2 0.16,0.35 0.35,0.35 0.2,0 0.35,-0.15 0.35,-0.35z"/>
    <path class="fil0" d="M21.04 16c0,-0.19 -0.16,-0.35 -0.35,-0.35 -0.2,0 -0.35,0.16 -0.35,0.35 0,0.2 0.15,0.35 0.35,0.35 0.19,0 0.35,-0.15 0.35,-0.35z"/>
    <path class="fil0" d="M6.99 16.78c0,-0.19 -0.16,-0.35 -0.35,-0.35 -0.2,0 -0.36,0.16 -0.36,0.35 0,0.2 0.16,0.36 0.36,0.36 0.19,0 0.35,-0.16 0.35,-0.36z"/>
    <path class="fil0" d="M7.77 16.78c0,-0.19 -0.16,-0.35 -0.35,-0.35 -0.2,0 -0.35,0.16 -0.35,0.35 0,0.2 0.15,0.36 0.35,0.36 0.19,0 0.35,-0.16 0.35,-0.36z"/>
    <path class="fil0" d="M8.55 16.78c0,-0.19 -0.16,-0.35 -0.35,-0.35 -0.2,0 -0.35,0.16 -0.35,0.35 0,0.2 0.15,0.36 0.35,0.36 0.19,0 0.35,-0.16 0.35,-0.36z"/>
    <path class="fil0" d="M9.33 16.78c0,-0.19 -0.16,-0.35 -0.35,-0.35 -0.2,0 -0.35,0.16 -0.35,0.35 0,0.2 0.15,0.36 0.35,0.36 0.19,0 0.35,-0.16 0.35,-0.36z"/>
    <path class="fil0" d="M10.11 16.78c0,-0.19 -0.16,-0.35 -0.35,-0.35 -0.2,0 -0.35,0.16 -0.35,0.35 0,0.2 0.15,0.36 0.35,0.36 0.19,0 0.35,-0.16 0.35,-0.36z"/>
    <path class="fil0" d="M10.89 16.78c0,-0.19 -0.16,-0.35 -0.35,-0.35 -0.2,0 -0.35,0.16 -0.35,0.35 0,0.2 0.15,0.36 0.35,0.36 0.19,0 0.35,-0.16 0.35,-0.36z"/>
    <path class="fil0" d="M12.45 16.78c0,-0.19 -0.16,-0.35 -0.35,-0.35 -0.19,0 -0.35,0.16 -0.35,0.35 0,0.2 0.16,0.36 0.35,0.36 0.19,0 0.35,-0.16 0.35,-0.36z"/>
    <path class="fil0" d="M13.23 16.78c0,-0.19 -0.16,-0.35 -0.35,-0.35 -0.19,0 -0.35,0.16 -0.35,0.35 0,0.2 0.16,0.36 0.35,0.36 0.19,0 0.35,-0.16 0.35,-0.36z"/>
    <path class="fil0" d="M14.01 16.78c0,-0.19 -0.15,-0.35 -0.35,-0.35 -0.19,0 -0.35,0.16 -0.35,0.35 0,0.2 0.16,0.36 0.35,0.36 0.2,0 0.35,-0.16 0.35,-0.36z"/>
    <path class="fil0" d="M14.79 16.78c0,-0.19 -0.15,-0.35 -0.35,-0.35 -0.19,0 -0.35,0.16 -0.35,0.35 0,0.2 0.16,0.36 0.35,0.36 0.2,0 0.35,-0.16 0.35,-0.36z"/>
    <path class="fil0" d="M15.57 16.78c0,-0.19 -0.15,-0.35 -0.35,-0.35 -0.19,0 -0.35,0.16 -0.35,0.35 0,0.2 0.16,0.36 0.35,0.36 0.2,0 0.35,-0.16 0.35,-0.36z"/>
    <path class="fil0" d="M20.26 16.78c0,-0.19 -0.16,-0.35 -0.35,-0.35 -0.2,0 -0.35,0.16 -0.35,0.35 0,0.2 0.15,0.36 0.35,0.36 0.19,0 0.35,-0.16 0.35,-0.36z"/>
    <path class="fil0" d="M21.82 16.78c0,-0.19 -0.16,-0.35 -0.35,-0.35 -0.2,0 -0.35,0.16 -0.35,0.35 0,0.2 0.15,0.36 0.35,0.36 0.19,0 0.35,-0.16 0.35,-0.36z"/>
    <path class="fil0" d="M22.6 16.78c0,-0.19 -0.16,-0.35 -0.35,-0.35 -0.2,0 -0.35,0.16 -0.35,0.35 0,0.2 0.15,0.36 0.35,0.36 0.19,0 0.35,-0.16 0.35,-0.36z"/>
    <path class="fil0" d="M10.11 17.56c0,-0.19 -0.16,-0.35 -0.35,-0.35 -0.2,0 -0.35,0.16 -0.35,0.35 0,0.2 0.15,0.36 0.35,0.36 0.19,0 0.35,-0.16 0.35,-0.36z"/>
    <path class="fil0" d="M14.01 17.56c0,-0.19 -0.15,-0.35 -0.35,-0.35 -0.19,0 -0.35,0.16 -0.35,0.35 0,0.2 0.16,0.36 0.35,0.36 0.2,0 0.35,-0.16 0.35,-0.36z"/>
    <path class="fil0" d="M15.57 17.56c0,-0.19 -0.15,-0.35 -0.35,-0.35 -0.19,0 -0.35,0.16 -0.35,0.35 0,0.2 0.16,0.36 0.35,0.36 0.2,0 0.35,-0.16 0.35,-0.36z"/>
    <path class="fil0" d="M21.82 17.56c0,-0.19 -0.16,-0.35 -0.35,-0.35 -0.2,0 -0.35,0.16 -0.35,0.35 0,0.2 0.15,0.36 0.35,0.36 0.19,0 0.35,-0.16 0.35,-0.36z"/>
    <path class="fil0" d="M7.77 18.35c0,-0.2 -0.16,-0.36 -0.35,-0.36 -0.2,0 -0.35,0.16 -0.35,0.36 0,0.19 0.15,0.35 0.35,0.35 0.19,0 0.35,-0.16 0.35,-0.35z"/>
    <path class="fil0" d="M8.55 18.35c0,-0.2 -0.16,-0.36 -0.35,-0.36 -0.2,0 -0.35,0.16 -0.35,0.36 0,0.19 0.15,0.35 0.35,0.35 0.19,0 0.35,-0.16 0.35,-0.35z"/>
    <path class="fil0" d="M11.67 18.35c0,-0.2 -0.16,-0.36 -0.35,-0.36 -0.19,0 -0.35,0.16 -0.35,0.36 0,0.19 0.16,0.35 0.35,0.35 0.19,0 0.35,-0.16 0.35,-0.35z"/>
    <path class="fil0" d="M14.79 18.35c0,-0.2 -0.15,-0.36 -0.35,-0.36 -0.19,0 -0.35,0.16 -0.35,0.36 0,0.19 0.16,0.35 0.35,0.35 0.2,0 0.35,-0.16 0.35,-0.35z"/>
    <path class="fil0" d="M15.57 18.35c0,-0.2 -0.15,-0.36 -0.35,-0.36 -0.19,0 -0.35,0.16 -0.35,0.36 0,0.19 0.16,0.35 0.35,0.35 0.2,0 0.35,-0.16 0.35,-0.35z"/>
    <path class="fil0" d="M20.26 18.35c0,-0.2 -0.16,-0.36 -0.35,-0.36 -0.2,0 -0.35,0.16 -0.35,0.36 0,0.19 0.15,0.35 0.35,0.35 0.19,0 0.35,-0.16 0.35,-0.35z"/>
    <path class="fil0" d="M21.82 18.35c0,-0.2 -0.16,-0.36 -0.35,-0.36 -0.2,0 -0.35,0.16 -0.35,0.36 0,0.19 0.15,0.35 0.35,0.35 0.19,0 0.35,-0.16 0.35,-0.35z"/>
    <path class="fil0" d="M6.99 19.13c0,-0.2 -0.16,-0.36 -0.35,-0.36 -0.2,0 -0.36,0.16 -0.36,0.36 0,0.19 0.16,0.35 0.36,0.35 0.19,0 0.35,-0.16 0.35,-0.35z"/>
    <path class="fil0" d="M10.89 19.13c0,-0.2 -0.16,-0.36 -0.35,-0.36 -0.2,0 -0.35,0.16 -0.35,0.36 0,0.19 0.15,0.35 0.35,0.35 0.19,0 0.35,-0.16 0.35,-0.35z"/>
    <path class="fil0" d="M11.67 19.13c0,-0.2 -0.16,-0.36 -0.35,-0.36 -0.19,0 -0.35,0.16 -0.35,0.36 0,0.19 0.16,0.35 0.35,0.35 0.19,0 0.35,-0.16 0.35,-0.35z"/>
    <path class="fil0" d="M14.01 19.13c0,-0.2 -0.15,-0.36 -0.35,-0.36 -0.19,0 -0.35,0.16 -0.35,0.36 0,0.19 0.16,0.35 0.35,0.35 0.2,0 0.35,-0.16 0.35,-0.35z"/>
    <path class="fil0" d="M20.26 19.13c0,-0.2 -0.16,-0.36 -0.35,-0.36 -0.2,0 -0.35,0.16 -0.35,0.36 0,0.19 0.15,0.35 0.35,0.35 0.19,0 0.35,-0.16 0.35,-0.35z"/>
    <path class="fil0" d="M21.04 19.13c0,-0.2 -0.16,-0.36 -0.35,-0.36 -0.2,0 -0.35,0.16 -0.35,0.36 0,0.19 0.15,0.35 0.35,0.35 0.19,0 0.35,-0.16 0.35,-0.35z"/>
    <path class="fil0" d="M6.99 19.91c0,-0.2 -0.16,-0.35 -0.35,-0.35 -0.2,0 -0.36,0.15 -0.36,0.35 0,0.19 0.16,0.35 0.36,0.35 0.19,0 0.35,-0.16 0.35,-0.35z"/>
    <path class="fil0" d="M8.55 19.91c0,-0.2 -0.16,-0.35 -0.35,-0.35 -0.2,0 -0.35,0.15 -0.35,0.35 0,0.19 0.15,0.35 0.35,0.35 0.19,0 0.35,-0.16 0.35,-0.35z"/>
    <path class="fil0" d="M10.11 19.91c0,-0.2 -0.16,-0.35 -0.35,-0.35 -0.2,0 -0.35,0.15 -0.35,0.35 0,0.19 0.15,0.35 0.35,0.35 0.19,0 0.35,-0.16 0.35,-0.35z"/>
    <path class="fil0" d="M10.89 19.91c0,-0.2 -0.16,-0.35 -0.35,-0.35 -0.2,0 -0.35,0.15 -0.35,0.35 0,0.19 0.15,0.35 0.35,0.35 0.19,0 0.35,-0.16 0.35,-0.35z"/>
    <path class="fil0" d="M12.45 19.91c0,-0.2 -0.16,-0.35 -0.35,-0.35 -0.19,0 -0.35,0.15 -0.35,0.35 0,0.19 0.16,0.35 0.35,0.35 0.19,0 0.35,-0.16 0.35,-0.35z"/>
    <path class="fil0" d="M13.23 19.91c0,-0.2 -0.16,-0.35 -0.35,-0.35 -0.19,0 -0.35,0.15 -0.35,0.35 0,0.19 0.16,0.35 0.35,0.35 0.19,0 0.35,-0.16 0.35,-0.35z"/>
    <path class="fil0" d="M15.57 19.91c0,-0.2 -0.15,-0.35 -0.35,-0.35 -0.19,0 -0.35,0.15 -0.35,0.35 0,0.19 0.16,0.35 0.35,0.35 0.2,0 0.35,-0.16 0.35,-0.35z"/>
    <path class="fil0" d="M16.35 19.91c0,-0.2 -0.15,-0.35 -0.35,-0.35 -0.19,0 -0.35,0.15 -0.35,0.35 0,0.19 0.16,0.35 0.35,0.35 0.2,0 0.35,-0.16 0.35,-0.35z"/>
    <path class="fil0" d="M17.14 19.91c0,-0.2 -0.16,-0.35 -0.36,-0.35 -0.19,0 -0.35,0.15 -0.35,0.35 0,0.19 0.16,0.35 0.35,0.35 0.2,0 0.36,-0.16 0.36,-0.35z"/>
    <path class="fil0" d="M18.7 19.91c0,-0.2 -0.16,-0.35 -0.35,-0.35 -0.2,0 -0.36,0.15 -0.36,0.35 0,0.19 0.16,0.35 0.36,0.35 0.19,0 0.35,-0.16 0.35,-0.35z"/>
    <path class="fil0" d="M20.26 19.91c0,-0.2 -0.16,-0.35 -0.35,-0.35 -0.2,0 -0.35,0.15 -0.35,0.35 0,0.19 0.15,0.35 0.35,0.35 0.19,0 0.35,-0.16 0.35,-0.35z"/>
    <path class="fil0" d="M21.04 19.91c0,-0.2 -0.16,-0.35 -0.35,-0.35 -0.2,0 -0.35,0.15 -0.35,0.35 0,0.19 0.15,0.35 0.35,0.35 0.19,0 0.35,-0.16 0.35,-0.35z"/>
    <path class="fil0" d="M6.99 20.69c0,-0.2 -0.16,-0.35 -0.35,-0.35 -0.2,0 -0.36,0.15 -0.36,0.35 0,0.19 0.16,0.35 0.36,0.35 0.19,0 0.35,-0.16 0.35,-0.35z"/>
    <path class="fil0" d="M8.55 20.69c0,-0.2 -0.16,-0.35 -0.35,-0.35 -0.2,0 -0.35,0.15 -0.35,0.35 0,0.19 0.15,0.35 0.35,0.35 0.19,0 0.35,-0.16 0.35,-0.35z"/>
    <path class="fil0" d="M9.33 20.69c0,-0.2 -0.16,-0.35 -0.35,-0.35 -0.2,0 -0.35,0.15 -0.35,0.35 0,0.19 0.15,0.35 0.35,0.35 0.19,0 0.35,-0.16 0.35,-0.35z"/>
    <path class="fil0" d="M10.11 20.69c0,-0.2 -0.16,-0.35 -0.35,-0.35 -0.2,0 -0.35,0.15 -0.35,0.35 0,0.19 0.15,0.35 0.35,0.35 0.19,0 0.35,-0.16 0.35,-0.35z"/>
    <path class="fil0" d="M10.89 20.69c0,-0.2 -0.16,-0.35 -0.35,-0.35 -0.2,0 -0.35,0.15 -0.35,0.35 0,0.19 0.15,0.35 0.35,0.35 0.19,0 0.35,-0.16 0.35,-0.35z"/>
    <path class="fil0" d="M12.45 20.69c0,-0.2 -0.16,-0.35 -0.35,-0.35 -0.19,0 -0.35,0.15 -0.35,0.35 0,0.19 0.16,0.35 0.35,0.35 0.19,0 0.35,-0.16 0.35,-0.35z"/>
    <path class="fil0" d="M13.23 20.69c0,-0.2 -0.16,-0.35 -0.35,-0.35 -0.19,0 -0.35,0.15 -0.35,0.35 0,0.19 0.16,0.35 0.35,0.35 0.19,0 0.35,-0.16 0.35,-0.35z"/>
    <path class="fil0" d="M14.01 20.69c0,-0.2 -0.15,-0.35 -0.35,-0.35 -0.19,0 -0.35,0.15 -0.35,0.35 0,0.19 0.16,0.35 0.35,0.35 0.2,0 0.35,-0.16 0.35,-0.35z"/>
    <path class="fil0" d="M14.79 20.69c0,-0.2 -0.15,-0.35 -0.35,-0.35 -0.19,0 -0.35,0.15 -0.35,0.35 0,0.19 0.16,0.35 0.35,0.35 0.2,0 0.35,-0.16 0.35,-0.35z"/>
    <path class="fil0" d="M15.57 20.69c0,-0.2 -0.15,-0.35 -0.35,-0.35 -0.19,0 -0.35,0.15 -0.35,0.35 0,0.19 0.16,0.35 0.35,0.35 0.2,0 0.35,-0.16 0.35,-0.35z"/>
    <path class="fil0" d="M16.35 20.69c0,-0.2 -0.15,-0.35 -0.35,-0.35 -0.19,0 -0.35,0.15 -0.35,0.35 0,0.19 0.16,0.35 0.35,0.35 0.2,0 0.35,-0.16 0.35,-0.35z"/>
    <path class="fil0" d="M17.14 20.69c0,-0.2 -0.16,-0.35 -0.36,-0.35 -0.19,0 -0.35,0.15 -0.35,0.35 0,0.19 0.16,0.35 0.35,0.35 0.2,0 0.36,-0.16 0.36,-0.35z"/>
    <path class="fil0" d="M17.92 20.69c0,-0.2 -0.16,-0.35 -0.36,-0.35 -0.19,0 -0.35,0.15 -0.35,0.35 0,0.19 0.16,0.35 0.35,0.35 0.2,0 0.36,-0.16 0.36,-0.35z"/>
    <path class="fil0" d="M18.7 20.69c0,-0.2 -0.16,-0.35 -0.35,-0.35 -0.2,0 -0.36,0.15 -0.36,0.35 0,0.19 0.16,0.35 0.36,0.35 0.19,0 0.35,-0.16 0.35,-0.35z"/>
    <path class="fil0" d="M19.48 20.69c0,-0.2 -0.16,-0.35 -0.35,-0.35 -0.2,0 -0.36,0.15 -0.36,0.35 0,0.19 0.16,0.35 0.36,0.35 0.19,0 0.35,-0.16 0.35,-0.35z"/>
    <path class="fil0" d="M20.26 20.69c0,-0.2 -0.16,-0.35 -0.35,-0.35 -0.2,0 -0.35,0.15 -0.35,0.35 0,0.19 0.15,0.35 0.35,0.35 0.19,0 0.35,-0.16 0.35,-0.35z"/>
    <path class="fil0" d="M21.04 20.69c0,-0.2 -0.16,-0.35 -0.35,-0.35 -0.2,0 -0.35,0.15 -0.35,0.35 0,0.19 0.15,0.35 0.35,0.35 0.19,0 0.35,-0.16 0.35,-0.35z"/>
    <path class="fil0" d="M21.82 20.69c0,-0.2 -0.16,-0.35 -0.35,-0.35 -0.2,0 -0.35,0.15 -0.35,0.35 0,0.19 0.15,0.35 0.35,0.35 0.19,0 0.35,-0.16 0.35,-0.35z"/>
    <path class="fil0" d="M8.55 21.47c0,-0.2 -0.16,-0.35 -0.35,-0.35 -0.2,0 -0.35,0.15 -0.35,0.35 0,0.19 0.15,0.35 0.35,0.35 0.19,0 0.35,-0.16 0.35,-0.35z"/>
    <path class="fil0" d="M10.11 21.47c0,-0.2 -0.16,-0.35 -0.35,-0.35 -0.2,0 -0.35,0.15 -0.35,0.35 0,0.19 0.15,0.35 0.35,0.35 0.19,0 0.35,-0.16 0.35,-0.35z"/>
    <path class="fil0" d="M10.89 21.47c0,-0.2 -0.16,-0.35 -0.35,-0.35 -0.2,0 -0.35,0.15 -0.35,0.35 0,0.19 0.15,0.35 0.35,0.35 0.19,0 0.35,-0.16 0.35,-0.35z"/>
    <path class="fil0" d="M11.67 21.47c0,-0.2 -0.16,-0.35 -0.35,-0.35 -0.19,0 -0.35,0.15 -0.35,0.35 0,0.19 0.16,0.35 0.35,0.35 0.19,0 0.35,-0.16 0.35,-0.35z"/>
    <path class="fil0" d="M14.79 21.47c0,-0.2 -0.15,-0.35 -0.35,-0.35 -0.19,0 -0.35,0.15 -0.35,0.35 0,0.19 0.16,0.35 0.35,0.35 0.2,0 0.35,-0.16 0.35,-0.35z"/>
    <path class="fil0" d="M17.14 21.47c0,-0.2 -0.16,-0.35 -0.36,-0.35 -0.19,0 -0.35,0.15 -0.35,0.35 0,0.19 0.16,0.35 0.35,0.35 0.2,0 0.36,-0.16 0.36,-0.35z"/>
    <path class="fil0" d="M19.48 21.47c0,-0.2 -0.16,-0.35 -0.35,-0.35 -0.2,0 -0.36,0.15 -0.36,0.35 0,0.19 0.16,0.35 0.36,0.35 0.19,0 0.35,-0.16 0.35,-0.35z"/>
    <path class="fil0" d="M20.26 21.47c0,-0.2 -0.16,-0.35 -0.35,-0.35 -0.2,0 -0.35,0.15 -0.35,0.35 0,0.19 0.15,0.35 0.35,0.35 0.19,0 0.35,-0.16 0.35,-0.35z"/>
    <path class="fil0" d="M21.82 21.47c0,-0.2 -0.16,-0.35 -0.35,-0.35 -0.2,0 -0.35,0.15 -0.35,0.35 0,0.19 0.15,0.35 0.35,0.35 0.19,0 0.35,-0.16 0.35,-0.35z"/>
    <path class="fil0" d="M8.55 22.25c0,-0.2 -0.16,-0.35 -0.35,-0.35 -0.2,0 -0.35,0.15 -0.35,0.35 0,0.19 0.15,0.35 0.35,0.35 0.19,0 0.35,-0.16 0.35,-0.35z"/>
    <path class="fil0" d="M9.33 22.25c0,-0.2 -0.16,-0.35 -0.35,-0.35 -0.2,0 -0.35,0.15 -0.35,0.35 0,0.19 0.15,0.35 0.35,0.35 0.19,0 0.35,-0.16 0.35,-0.35z"/>
    <path class="fil0" d="M10.11 22.25c0,-0.2 -0.16,-0.35 -0.35,-0.35 -0.2,0 -0.35,0.15 -0.35,0.35 0,0.19 0.15,0.35 0.35,0.35 0.19,0 0.35,-0.16 0.35,-0.35z"/>
    <path class="fil0" d="M10.89 22.25c0,-0.2 -0.16,-0.35 -0.35,-0.35 -0.2,0 -0.35,0.15 -0.35,0.35 0,0.19 0.15,0.35 0.35,0.35 0.19,0 0.35,-0.16 0.35,-0.35z"/>
    <path class="fil0" d="M12.45 22.25c0,-0.2 -0.16,-0.35 -0.35,-0.35 -0.19,0 -0.35,0.15 -0.35,0.35 0,0.19 0.16,0.35 0.35,0.35 0.19,0 0.35,-0.16 0.35,-0.35z"/>
    <path class="fil0" d="M13.23 22.25c0,-0.2 -0.16,-0.35 -0.35,-0.35 -0.19,0 -0.35,0.15 -0.35,0.35 0,0.19 0.16,0.35 0.35,0.35 0.19,0 0.35,-0.16 0.35,-0.35z"/>
    <path class="fil0" d="M19.48 22.25c0,-0.2 -0.16,-0.35 -0.35,-0.35 -0.2,0 -0.36,0.15 -0.36,0.35 0,0.19 0.16,0.35 0.36,0.35 0.19,0 0.35,-0.16 0.35,-0.35z"/>
    <path class="fil0" d="M20.26 22.25c0,-0.2 -0.16,-0.35 -0.35,-0.35 -0.2,0 -0.35,0.15 -0.35,0.35 0,0.19 0.15,0.35 0.35,0.35 0.19,0 0.35,-0.16 0.35,-0.35z"/>
    <path class="fil0" d="M21.04 22.25c0,-0.2 -0.16,-0.35 -0.35,-0.35 -0.2,0 -0.35,0.15 -0.35,0.35 0,0.19 0.15,0.35 0.35,0.35 0.19,0 0.35,-0.16 0.35,-0.35z"/>
   </g>
   <g>
    <path class="fil0" d="M0 0l5.46 0 0 5.46 -5.46 0 0 -5.46zm1.56 0.78l-0.78 0 0 3.9 3.9 0 0 -3.9 -3.12 0zm15.61 -0.78l5.47 0 0 5.46 -5.47 0 0 -5.46zm1.57 0.78l-0.79 0 0 3.9 3.91 0 0 -3.9 -3.12 0zm-3.13 14.83l3.91 0 0 3.91 -3.91 0 0 -3.91zm1.56 0.78l-0.78 0 0 2.35 2.35 0 0 -2.35 -1.57 0zm-17.17 0.78l5.46 0 0 5.47 -5.46 0 0 -5.47zm1.56 0.78l-0.78 0 0 3.91 3.9 0 0 -3.91 -3.12 0z"/>
   </g>
   <g>
    <path class="fil0" d="M1.56 1.56l2.34 0 0 2.34 -2.34 0 0 -2.34zm17.18 0l2.34 0 0 2.34 -2.34 0 0 -2.34zm-1.57 15.61l0.78 0 0 0.78 -0.78 0 0 -0.78zm-15.61 1.57l2.34 0 0 2.34 -2.34 0 0 -2.34z"/>
   </g>
  </g>
 </g>
</svg>
