<?xml version="1.0" encoding="UTF-8"?>
<!DOCTYPE svg PUBLIC "-//W3C//DTD SVG 1.1//EN" "http://www.w3.org/Graphics/SVG/1.1/DTD/svg11.dtd">
<!-- Creator: CorelDRAW 2021 (64-Bit) -->
<svg xmlns="http://www.w3.org/2000/svg" xml:space="preserve" width="500px" height="500px" version="1.1" style="shape-rendering:geometricPrecision; text-rendering:geometricPrecision; image-rendering:optimizeQuality; fill-rule:evenodd; clip-rule:evenodd"
viewBox="0 0 16.72 16.72"
 xmlns:xlink="http://www.w3.org/1999/xlink"
 xmlns:xodm="http://www.corel.com/coreldraw/odm/2003">
 <defs>
  <style type="text/css">
   <![CDATA[
    .fil0 {fill:black}
   ]]>
  </style>
 </defs>
 <g id="Слой_x0020_1">
  <metadata id="CorelCorpID_0Corel-Layer"/>
  <g id="_2474525308816">
   <g>
    <path class="fil0" d="M5.16 0.29c0,-0.14 -0.12,-0.26 -0.26,-0.26 -0.14,0 -0.26,0.12 -0.26,0.26 0,0.14 0.12,0.26 0.26,0.26 0.14,0 0.26,-0.12 0.26,-0.26z"/>
    <path class="fil0" d="M5.74 0.29c0,-0.14 -0.12,-0.26 -0.26,-0.26 -0.15,0 -0.26,0.12 -0.26,0.26 0,0.14 0.11,0.26 0.26,0.26 0.14,0 0.26,-0.12 0.26,-0.26z"/>
    <path class="fil0" d="M6.31 0.29c0,-0.14 -0.11,-0.26 -0.26,-0.26 -0.14,0 -0.26,0.12 -0.26,0.26 0,0.14 0.12,0.26 0.26,0.26 0.15,0 0.26,-0.12 0.26,-0.26z"/>
    <path class="fil0" d="M6.89 0.29c0,-0.14 -0.12,-0.26 -0.26,-0.26 -0.14,0 -0.26,0.12 -0.26,0.26 0,0.14 0.12,0.26 0.26,0.26 0.14,0 0.26,-0.12 0.26,-0.26z"/>
    <path class="fil0" d="M7.47 0.29c0,-0.14 -0.12,-0.26 -0.26,-0.26 -0.15,0 -0.26,0.12 -0.26,0.26 0,0.14 0.11,0.26 0.26,0.26 0.14,0 0.26,-0.12 0.26,-0.26z"/>
    <path class="fil0" d="M8.62 0.29c0,-0.14 -0.12,-0.26 -0.26,-0.26 -0.14,0 -0.26,0.12 -0.26,0.26 0,0.14 0.12,0.26 0.26,0.26 0.14,0 0.26,-0.12 0.26,-0.26z"/>
    <path class="fil0" d="M10.35 0.29c0,-0.14 -0.12,-0.26 -0.26,-0.26 -0.14,0 -0.26,0.12 -0.26,0.26 0,0.14 0.12,0.26 0.26,0.26 0.14,0 0.26,-0.12 0.26,-0.26z"/>
    <path class="fil0" d="M10.93 0.29c0,-0.14 -0.12,-0.26 -0.26,-0.26 -0.15,0 -0.26,0.12 -0.26,0.26 0,0.14 0.11,0.26 0.26,0.26 0.14,0 0.26,-0.12 0.26,-0.26z"/>
    <path class="fil0" d="M12.08 0.29c0,-0.14 -0.12,-0.26 -0.26,-0.26 -0.14,0 -0.26,0.12 -0.26,0.26 0,0.14 0.12,0.26 0.26,0.26 0.14,0 0.26,-0.12 0.26,-0.26z"/>
    <path class="fil0" d="M5.16 0.86c0,-0.14 -0.12,-0.25 -0.26,-0.25 -0.14,0 -0.26,0.11 -0.26,0.25 0,0.15 0.12,0.26 0.26,0.26 0.14,0 0.26,-0.11 0.26,-0.26z"/>
    <path class="fil0" d="M5.74 0.86c0,-0.14 -0.12,-0.25 -0.26,-0.25 -0.15,0 -0.26,0.11 -0.26,0.25 0,0.15 0.11,0.26 0.26,0.26 0.14,0 0.26,-0.11 0.26,-0.26z"/>
    <path class="fil0" d="M7.47 0.86c0,-0.14 -0.12,-0.25 -0.26,-0.25 -0.15,0 -0.26,0.11 -0.26,0.25 0,0.15 0.11,0.26 0.26,0.26 0.14,0 0.26,-0.11 0.26,-0.26z"/>
    <path class="fil0" d="M8.04 0.86c0,-0.14 -0.11,-0.25 -0.26,-0.25 -0.14,0 -0.26,0.11 -0.26,0.25 0,0.15 0.12,0.26 0.26,0.26 0.15,0 0.26,-0.11 0.26,-0.26z"/>
    <path class="fil0" d="M10.35 0.86c0,-0.14 -0.12,-0.25 -0.26,-0.25 -0.14,0 -0.26,0.11 -0.26,0.25 0,0.15 0.12,0.26 0.26,0.26 0.14,0 0.26,-0.11 0.26,-0.26z"/>
    <path class="fil0" d="M11.5 0.86c0,-0.14 -0.11,-0.25 -0.26,-0.25 -0.14,0 -0.26,0.11 -0.26,0.25 0,0.15 0.12,0.26 0.26,0.26 0.15,0 0.26,-0.11 0.26,-0.26z"/>
    <path class="fil0" d="M5.16 1.44c0,-0.14 -0.12,-0.26 -0.26,-0.26 -0.14,0 -0.26,0.12 -0.26,0.26 0,0.14 0.12,0.26 0.26,0.26 0.14,0 0.26,-0.12 0.26,-0.26z"/>
    <path class="fil0" d="M10.93 1.44c0,-0.14 -0.12,-0.26 -0.26,-0.26 -0.15,0 -0.26,0.12 -0.26,0.26 0,0.14 0.11,0.26 0.26,0.26 0.14,0 0.26,-0.12 0.26,-0.26z"/>
    <path class="fil0" d="M11.5 1.44c0,-0.14 -0.11,-0.26 -0.26,-0.26 -0.14,0 -0.26,0.12 -0.26,0.26 0,0.14 0.12,0.26 0.26,0.26 0.15,0 0.26,-0.12 0.26,-0.26z"/>
    <path class="fil0" d="M12.08 1.44c0,-0.14 -0.12,-0.26 -0.26,-0.26 -0.14,0 -0.26,0.12 -0.26,0.26 0,0.14 0.12,0.26 0.26,0.26 0.14,0 0.26,-0.12 0.26,-0.26z"/>
    <path class="fil0" d="M6.31 2.02c0,-0.15 -0.11,-0.26 -0.26,-0.26 -0.14,0 -0.26,0.11 -0.26,0.26 0,0.14 0.12,0.26 0.26,0.26 0.15,0 0.26,-0.12 0.26,-0.26z"/>
    <path class="fil0" d="M6.89 2.02c0,-0.15 -0.12,-0.26 -0.26,-0.26 -0.14,0 -0.26,0.11 -0.26,0.26 0,0.14 0.12,0.26 0.26,0.26 0.14,0 0.26,-0.12 0.26,-0.26z"/>
    <path class="fil0" d="M8.04 2.02c0,-0.15 -0.11,-0.26 -0.26,-0.26 -0.14,0 -0.26,0.11 -0.26,0.26 0,0.14 0.12,0.26 0.26,0.26 0.15,0 0.26,-0.12 0.26,-0.26z"/>
    <path class="fil0" d="M9.2 2.02c0,-0.15 -0.12,-0.26 -0.26,-0.26 -0.15,0 -0.26,0.11 -0.26,0.26 0,0.14 0.11,0.26 0.26,0.26 0.14,0 0.26,-0.12 0.26,-0.26z"/>
    <path class="fil0" d="M9.77 2.02c0,-0.15 -0.11,-0.26 -0.26,-0.26 -0.14,0 -0.26,0.11 -0.26,0.26 0,0.14 0.12,0.26 0.26,0.26 0.15,0 0.26,-0.12 0.26,-0.26z"/>
    <path class="fil0" d="M10.35 2.02c0,-0.15 -0.12,-0.26 -0.26,-0.26 -0.14,0 -0.26,0.11 -0.26,0.26 0,0.14 0.12,0.26 0.26,0.26 0.14,0 0.26,-0.12 0.26,-0.26z"/>
    <path class="fil0" d="M11.5 2.02c0,-0.15 -0.11,-0.26 -0.26,-0.26 -0.14,0 -0.26,0.11 -0.26,0.26 0,0.14 0.12,0.26 0.26,0.26 0.15,0 0.26,-0.12 0.26,-0.26z"/>
    <path class="fil0" d="M5.74 2.59c0,-0.14 -0.12,-0.25 -0.26,-0.25 -0.15,0 -0.26,0.11 -0.26,0.25 0,0.15 0.11,0.26 0.26,0.26 0.14,0 0.26,-0.11 0.26,-0.26z"/>
    <path class="fil0" d="M6.89 2.59c0,-0.14 -0.12,-0.25 -0.26,-0.25 -0.14,0 -0.26,0.11 -0.26,0.25 0,0.15 0.12,0.26 0.26,0.26 0.14,0 0.26,-0.11 0.26,-0.26z"/>
    <path class="fil0" d="M7.47 2.59c0,-0.14 -0.12,-0.25 -0.26,-0.25 -0.15,0 -0.26,0.11 -0.26,0.25 0,0.15 0.11,0.26 0.26,0.26 0.14,0 0.26,-0.11 0.26,-0.26z"/>
    <path class="fil0" d="M8.04 2.59c0,-0.14 -0.11,-0.25 -0.26,-0.25 -0.14,0 -0.26,0.11 -0.26,0.25 0,0.15 0.12,0.26 0.26,0.26 0.15,0 0.26,-0.11 0.26,-0.26z"/>
    <path class="fil0" d="M8.62 2.59c0,-0.14 -0.12,-0.25 -0.26,-0.25 -0.14,0 -0.26,0.11 -0.26,0.25 0,0.15 0.12,0.26 0.26,0.26 0.14,0 0.26,-0.11 0.26,-0.26z"/>
    <path class="fil0" d="M9.2 2.59c0,-0.14 -0.12,-0.25 -0.26,-0.25 -0.15,0 -0.26,0.11 -0.26,0.25 0,0.15 0.11,0.26 0.26,0.26 0.14,0 0.26,-0.11 0.26,-0.26z"/>
    <path class="fil0" d="M11.5 2.59c0,-0.14 -0.11,-0.25 -0.26,-0.25 -0.14,0 -0.26,0.11 -0.26,0.25 0,0.15 0.12,0.26 0.26,0.26 0.15,0 0.26,-0.11 0.26,-0.26z"/>
    <path class="fil0" d="M12.08 2.59c0,-0.14 -0.12,-0.25 -0.26,-0.25 -0.14,0 -0.26,0.11 -0.26,0.25 0,0.15 0.12,0.26 0.26,0.26 0.14,0 0.26,-0.11 0.26,-0.26z"/>
    <path class="fil0" d="M5.16 3.17c0,-0.14 -0.12,-0.26 -0.26,-0.26 -0.14,0 -0.26,0.12 -0.26,0.26 0,0.14 0.12,0.26 0.26,0.26 0.14,0 0.26,-0.12 0.26,-0.26z"/>
    <path class="fil0" d="M6.31 3.17c0,-0.14 -0.11,-0.26 -0.26,-0.26 -0.14,0 -0.26,0.12 -0.26,0.26 0,0.14 0.12,0.26 0.26,0.26 0.15,0 0.26,-0.12 0.26,-0.26z"/>
    <path class="fil0" d="M7.47 3.17c0,-0.14 -0.12,-0.26 -0.26,-0.26 -0.15,0 -0.26,0.12 -0.26,0.26 0,0.14 0.11,0.26 0.26,0.26 0.14,0 0.26,-0.12 0.26,-0.26z"/>
    <path class="fil0" d="M9.2 3.17c0,-0.14 -0.12,-0.26 -0.26,-0.26 -0.15,0 -0.26,0.12 -0.26,0.26 0,0.14 0.11,0.26 0.26,0.26 0.14,0 0.26,-0.12 0.26,-0.26z"/>
    <path class="fil0" d="M9.77 3.17c0,-0.14 -0.11,-0.26 -0.26,-0.26 -0.14,0 -0.26,0.12 -0.26,0.26 0,0.14 0.12,0.26 0.26,0.26 0.15,0 0.26,-0.12 0.26,-0.26z"/>
    <path class="fil0" d="M10.93 3.17c0,-0.14 -0.12,-0.26 -0.26,-0.26 -0.15,0 -0.26,0.12 -0.26,0.26 0,0.14 0.11,0.26 0.26,0.26 0.14,0 0.26,-0.12 0.26,-0.26z"/>
    <path class="fil0" d="M5.16 3.75c0,-0.15 -0.12,-0.26 -0.26,-0.26 -0.14,0 -0.26,0.11 -0.26,0.26 0,0.14 0.12,0.26 0.26,0.26 0.14,0 0.26,-0.12 0.26,-0.26z"/>
    <path class="fil0" d="M6.31 3.75c0,-0.15 -0.11,-0.26 -0.26,-0.26 -0.14,0 -0.26,0.11 -0.26,0.26 0,0.14 0.12,0.26 0.26,0.26 0.15,0 0.26,-0.12 0.26,-0.26z"/>
    <path class="fil0" d="M7.47 3.75c0,-0.15 -0.12,-0.26 -0.26,-0.26 -0.15,0 -0.26,0.11 -0.26,0.26 0,0.14 0.11,0.26 0.26,0.26 0.14,0 0.26,-0.12 0.26,-0.26z"/>
    <path class="fil0" d="M8.62 3.75c0,-0.15 -0.12,-0.26 -0.26,-0.26 -0.14,0 -0.26,0.11 -0.26,0.26 0,0.14 0.12,0.26 0.26,0.26 0.14,0 0.26,-0.12 0.26,-0.26z"/>
    <path class="fil0" d="M9.77 3.75c0,-0.15 -0.11,-0.26 -0.26,-0.26 -0.14,0 -0.26,0.11 -0.26,0.26 0,0.14 0.12,0.26 0.26,0.26 0.15,0 0.26,-0.12 0.26,-0.26z"/>
    <path class="fil0" d="M10.93 3.75c0,-0.15 -0.12,-0.26 -0.26,-0.26 -0.15,0 -0.26,0.11 -0.26,0.26 0,0.14 0.11,0.26 0.26,0.26 0.14,0 0.26,-0.12 0.26,-0.26z"/>
    <path class="fil0" d="M12.08 3.75c0,-0.15 -0.12,-0.26 -0.26,-0.26 -0.14,0 -0.26,0.11 -0.26,0.26 0,0.14 0.12,0.26 0.26,0.26 0.14,0 0.26,-0.12 0.26,-0.26z"/>
    <path class="fil0" d="M5.16 4.32c0,-0.14 -0.12,-0.25 -0.26,-0.25 -0.14,0 -0.26,0.11 -0.26,0.25 0,0.15 0.12,0.26 0.26,0.26 0.14,0 0.26,-0.11 0.26,-0.26z"/>
    <path class="fil0" d="M5.74 4.32c0,-0.14 -0.12,-0.25 -0.26,-0.25 -0.15,0 -0.26,0.11 -0.26,0.25 0,0.15 0.11,0.26 0.26,0.26 0.14,0 0.26,-0.11 0.26,-0.26z"/>
    <path class="fil0" d="M7.47 4.32c0,-0.14 -0.12,-0.25 -0.26,-0.25 -0.15,0 -0.26,0.11 -0.26,0.25 0,0.15 0.11,0.26 0.26,0.26 0.14,0 0.26,-0.11 0.26,-0.26z"/>
    <path class="fil0" d="M8.62 4.32c0,-0.14 -0.12,-0.25 -0.26,-0.25 -0.14,0 -0.26,0.11 -0.26,0.25 0,0.15 0.12,0.26 0.26,0.26 0.14,0 0.26,-0.11 0.26,-0.26z"/>
    <path class="fil0" d="M9.2 4.32c0,-0.14 -0.12,-0.25 -0.26,-0.25 -0.15,0 -0.26,0.11 -0.26,0.25 0,0.15 0.11,0.26 0.26,0.26 0.14,0 0.26,-0.11 0.26,-0.26z"/>
    <path class="fil0" d="M9.77 4.32c0,-0.14 -0.11,-0.25 -0.26,-0.25 -0.14,0 -0.26,0.11 -0.26,0.25 0,0.15 0.12,0.26 0.26,0.26 0.15,0 0.26,-0.11 0.26,-0.26z"/>
    <path class="fil0" d="M11.5 4.32c0,-0.14 -0.11,-0.25 -0.26,-0.25 -0.14,0 -0.26,0.11 -0.26,0.25 0,0.15 0.12,0.26 0.26,0.26 0.15,0 0.26,-0.11 0.26,-0.26z"/>
    <path class="fil0" d="M1.7 4.9c0,-0.14 -0.12,-0.26 -0.26,-0.26 -0.14,0 -0.26,0.12 -0.26,0.26 0,0.14 0.12,0.26 0.26,0.26 0.14,0 0.26,-0.12 0.26,-0.26z"/>
    <path class="fil0" d="M2.28 4.9c0,-0.14 -0.12,-0.26 -0.26,-0.26 -0.15,0 -0.26,0.12 -0.26,0.26 0,0.14 0.11,0.26 0.26,0.26 0.14,0 0.26,-0.12 0.26,-0.26z"/>
    <path class="fil0" d="M2.85 4.9c0,-0.14 -0.11,-0.26 -0.26,-0.26 -0.14,0 -0.25,0.12 -0.25,0.26 0,0.14 0.11,0.26 0.25,0.26 0.15,0 0.26,-0.12 0.26,-0.26z"/>
    <path class="fil0" d="M4.01 4.9c0,-0.14 -0.12,-0.26 -0.26,-0.26 -0.15,0 -0.26,0.12 -0.26,0.26 0,0.14 0.11,0.26 0.26,0.26 0.14,0 0.26,-0.12 0.26,-0.26z"/>
    <path class="fil0" d="M5.16 4.9c0,-0.14 -0.12,-0.26 -0.26,-0.26 -0.14,0 -0.26,0.12 -0.26,0.26 0,0.14 0.12,0.26 0.26,0.26 0.14,0 0.26,-0.12 0.26,-0.26z"/>
    <path class="fil0" d="M5.74 4.9c0,-0.14 -0.12,-0.26 -0.26,-0.26 -0.15,0 -0.26,0.12 -0.26,0.26 0,0.14 0.11,0.26 0.26,0.26 0.14,0 0.26,-0.12 0.26,-0.26z"/>
    <path class="fil0" d="M6.31 4.9c0,-0.14 -0.11,-0.26 -0.26,-0.26 -0.14,0 -0.26,0.12 -0.26,0.26 0,0.14 0.12,0.26 0.26,0.26 0.15,0 0.26,-0.12 0.26,-0.26z"/>
    <path class="fil0" d="M6.89 4.9c0,-0.14 -0.12,-0.26 -0.26,-0.26 -0.14,0 -0.26,0.12 -0.26,0.26 0,0.14 0.12,0.26 0.26,0.26 0.14,0 0.26,-0.12 0.26,-0.26z"/>
    <path class="fil0" d="M7.47 4.9c0,-0.14 -0.12,-0.26 -0.26,-0.26 -0.15,0 -0.26,0.12 -0.26,0.26 0,0.14 0.11,0.26 0.26,0.26 0.14,0 0.26,-0.12 0.26,-0.26z"/>
    <path class="fil0" d="M8.62 4.9c0,-0.14 -0.12,-0.26 -0.26,-0.26 -0.14,0 -0.26,0.12 -0.26,0.26 0,0.14 0.12,0.26 0.26,0.26 0.14,0 0.26,-0.12 0.26,-0.26z"/>
    <path class="fil0" d="M9.2 4.9c0,-0.14 -0.12,-0.26 -0.26,-0.26 -0.15,0 -0.26,0.12 -0.26,0.26 0,0.14 0.11,0.26 0.26,0.26 0.14,0 0.26,-0.12 0.26,-0.26z"/>
    <path class="fil0" d="M10.93 4.9c0,-0.14 -0.12,-0.26 -0.26,-0.26 -0.15,0 -0.26,0.12 -0.26,0.26 0,0.14 0.11,0.26 0.26,0.26 0.14,0 0.26,-0.12 0.26,-0.26z"/>
    <path class="fil0" d="M12.08 4.9c0,-0.14 -0.12,-0.26 -0.26,-0.26 -0.14,0 -0.26,0.12 -0.26,0.26 0,0.14 0.12,0.26 0.26,0.26 0.14,0 0.26,-0.12 0.26,-0.26z"/>
    <path class="fil0" d="M12.66 4.9c0,-0.14 -0.12,-0.26 -0.26,-0.26 -0.15,0 -0.26,0.12 -0.26,0.26 0,0.14 0.11,0.26 0.26,0.26 0.14,0 0.26,-0.12 0.26,-0.26z"/>
    <path class="fil0" d="M13.23 4.9c0,-0.14 -0.11,-0.26 -0.26,-0.26 -0.14,0 -0.26,0.12 -0.26,0.26 0,0.14 0.12,0.26 0.26,0.26 0.15,0 0.26,-0.12 0.26,-0.26z"/>
    <path class="fil0" d="M13.81 4.9c0,-0.14 -0.12,-0.26 -0.26,-0.26 -0.14,0 -0.26,0.12 -0.26,0.26 0,0.14 0.12,0.26 0.26,0.26 0.14,0 0.26,-0.12 0.26,-0.26z"/>
    <path class="fil0" d="M15.54 4.9c0,-0.14 -0.12,-0.26 -0.26,-0.26 -0.14,0 -0.26,0.12 -0.26,0.26 0,0.14 0.12,0.26 0.26,0.26 0.14,0 0.26,-0.12 0.26,-0.26z"/>
    <path class="fil0" d="M16.12 4.9c0,-0.14 -0.12,-0.26 -0.26,-0.26 -0.15,0 -0.26,0.12 -0.26,0.26 0,0.14 0.11,0.26 0.26,0.26 0.14,0 0.26,-0.12 0.26,-0.26z"/>
    <path class="fil0" d="M16.69 4.9c0,-0.14 -0.11,-0.26 -0.26,-0.26 -0.14,0 -0.26,0.12 -0.26,0.26 0,0.14 0.12,0.26 0.26,0.26 0.15,0 0.26,-0.12 0.26,-0.26z"/>
    <path class="fil0" d="M0.55 5.48c0,-0.15 -0.12,-0.26 -0.26,-0.26 -0.14,0 -0.26,0.11 -0.26,0.26 0,0.14 0.12,0.26 0.26,0.26 0.14,0 0.26,-0.12 0.26,-0.26z"/>
    <path class="fil0" d="M1.12 5.48c0,-0.15 -0.11,-0.26 -0.26,-0.26 -0.14,0 -0.25,0.11 -0.25,0.26 0,0.14 0.11,0.26 0.25,0.26 0.15,0 0.26,-0.12 0.26,-0.26z"/>
    <path class="fil0" d="M1.7 5.48c0,-0.15 -0.12,-0.26 -0.26,-0.26 -0.14,0 -0.26,0.11 -0.26,0.26 0,0.14 0.12,0.26 0.26,0.26 0.14,0 0.26,-0.12 0.26,-0.26z"/>
    <path class="fil0" d="M4.58 5.48c0,-0.15 -0.11,-0.26 -0.26,-0.26 -0.14,0 -0.26,0.11 -0.26,0.26 0,0.14 0.12,0.26 0.26,0.26 0.15,0 0.26,-0.12 0.26,-0.26z"/>
    <path class="fil0" d="M5.74 5.48c0,-0.15 -0.12,-0.26 -0.26,-0.26 -0.15,0 -0.26,0.11 -0.26,0.26 0,0.14 0.11,0.26 0.26,0.26 0.14,0 0.26,-0.12 0.26,-0.26z"/>
    <path class="fil0" d="M6.89 5.48c0,-0.15 -0.12,-0.26 -0.26,-0.26 -0.14,0 -0.26,0.11 -0.26,0.26 0,0.14 0.12,0.26 0.26,0.26 0.14,0 0.26,-0.12 0.26,-0.26z"/>
    <path class="fil0" d="M7.47 5.48c0,-0.15 -0.12,-0.26 -0.26,-0.26 -0.15,0 -0.26,0.11 -0.26,0.26 0,0.14 0.11,0.26 0.26,0.26 0.14,0 0.26,-0.12 0.26,-0.26z"/>
    <path class="fil0" d="M9.2 5.48c0,-0.15 -0.12,-0.26 -0.26,-0.26 -0.15,0 -0.26,0.11 -0.26,0.26 0,0.14 0.11,0.26 0.26,0.26 0.14,0 0.26,-0.12 0.26,-0.26z"/>
    <path class="fil0" d="M9.77 5.48c0,-0.15 -0.11,-0.26 -0.26,-0.26 -0.14,0 -0.26,0.11 -0.26,0.26 0,0.14 0.12,0.26 0.26,0.26 0.15,0 0.26,-0.12 0.26,-0.26z"/>
    <path class="fil0" d="M13.23 5.48c0,-0.15 -0.11,-0.26 -0.26,-0.26 -0.14,0 -0.26,0.11 -0.26,0.26 0,0.14 0.12,0.26 0.26,0.26 0.15,0 0.26,-0.12 0.26,-0.26z"/>
    <path class="fil0" d="M14.39 5.48c0,-0.15 -0.12,-0.26 -0.26,-0.26 -0.15,0 -0.26,0.11 -0.26,0.26 0,0.14 0.11,0.26 0.26,0.26 0.14,0 0.26,-0.12 0.26,-0.26z"/>
    <path class="fil0" d="M16.69 5.48c0,-0.15 -0.11,-0.26 -0.26,-0.26 -0.14,0 -0.26,0.11 -0.26,0.26 0,0.14 0.12,0.26 0.26,0.26 0.15,0 0.26,-0.12 0.26,-0.26z"/>
    <path class="fil0" d="M1.12 6.05c0,-0.14 -0.11,-0.26 -0.26,-0.26 -0.14,0 -0.25,0.12 -0.25,0.26 0,0.15 0.11,0.26 0.25,0.26 0.15,0 0.26,-0.11 0.26,-0.26z"/>
    <path class="fil0" d="M1.7 6.05c0,-0.14 -0.12,-0.26 -0.26,-0.26 -0.14,0 -0.26,0.12 -0.26,0.26 0,0.15 0.12,0.26 0.26,0.26 0.14,0 0.26,-0.11 0.26,-0.26z"/>
    <path class="fil0" d="M2.28 6.05c0,-0.14 -0.12,-0.26 -0.26,-0.26 -0.15,0 -0.26,0.12 -0.26,0.26 0,0.15 0.11,0.26 0.26,0.26 0.14,0 0.26,-0.11 0.26,-0.26z"/>
    <path class="fil0" d="M4.01 6.05c0,-0.14 -0.12,-0.26 -0.26,-0.26 -0.15,0 -0.26,0.12 -0.26,0.26 0,0.15 0.11,0.26 0.26,0.26 0.14,0 0.26,-0.11 0.26,-0.26z"/>
    <path class="fil0" d="M5.16 6.05c0,-0.14 -0.12,-0.26 -0.26,-0.26 -0.14,0 -0.26,0.12 -0.26,0.26 0,0.15 0.12,0.26 0.26,0.26 0.14,0 0.26,-0.11 0.26,-0.26z"/>
    <path class="fil0" d="M7.47 6.05c0,-0.14 -0.12,-0.26 -0.26,-0.26 -0.15,0 -0.26,0.12 -0.26,0.26 0,0.15 0.11,0.26 0.26,0.26 0.14,0 0.26,-0.11 0.26,-0.26z"/>
    <path class="fil0" d="M8.04 6.05c0,-0.14 -0.11,-0.26 -0.26,-0.26 -0.14,0 -0.26,0.12 -0.26,0.26 0,0.15 0.12,0.26 0.26,0.26 0.15,0 0.26,-0.11 0.26,-0.26z"/>
    <path class="fil0" d="M8.62 6.05c0,-0.14 -0.12,-0.26 -0.26,-0.26 -0.14,0 -0.26,0.12 -0.26,0.26 0,0.15 0.12,0.26 0.26,0.26 0.14,0 0.26,-0.11 0.26,-0.26z"/>
    <path class="fil0" d="M10.93 6.05c0,-0.14 -0.12,-0.26 -0.26,-0.26 -0.15,0 -0.26,0.12 -0.26,0.26 0,0.15 0.11,0.26 0.26,0.26 0.14,0 0.26,-0.11 0.26,-0.26z"/>
    <path class="fil0" d="M12.08 6.05c0,-0.14 -0.12,-0.26 -0.26,-0.26 -0.14,0 -0.26,0.12 -0.26,0.26 0,0.15 0.12,0.26 0.26,0.26 0.14,0 0.26,-0.11 0.26,-0.26z"/>
    <path class="fil0" d="M12.66 6.05c0,-0.14 -0.12,-0.26 -0.26,-0.26 -0.15,0 -0.26,0.12 -0.26,0.26 0,0.15 0.11,0.26 0.26,0.26 0.14,0 0.26,-0.11 0.26,-0.26z"/>
    <path class="fil0" d="M13.23 6.05c0,-0.14 -0.11,-0.26 -0.26,-0.26 -0.14,0 -0.26,0.12 -0.26,0.26 0,0.15 0.12,0.26 0.26,0.26 0.15,0 0.26,-0.11 0.26,-0.26z"/>
    <path class="fil0" d="M13.81 6.05c0,-0.14 -0.12,-0.26 -0.26,-0.26 -0.14,0 -0.26,0.12 -0.26,0.26 0,0.15 0.12,0.26 0.26,0.26 0.14,0 0.26,-0.11 0.26,-0.26z"/>
    <path class="fil0" d="M14.96 6.05c0,-0.14 -0.11,-0.26 -0.26,-0.26 -0.14,0 -0.26,0.12 -0.26,0.26 0,0.15 0.12,0.26 0.26,0.26 0.15,0 0.26,-0.11 0.26,-0.26z"/>
    <path class="fil0" d="M15.54 6.05c0,-0.14 -0.12,-0.26 -0.26,-0.26 -0.14,0 -0.26,0.12 -0.26,0.26 0,0.15 0.12,0.26 0.26,0.26 0.14,0 0.26,-0.11 0.26,-0.26z"/>
    <path class="fil0" d="M1.7 6.63c0,-0.14 -0.12,-0.26 -0.26,-0.26 -0.14,0 -0.26,0.12 -0.26,0.26 0,0.14 0.12,0.26 0.26,0.26 0.14,0 0.26,-0.12 0.26,-0.26z"/>
    <path class="fil0" d="M2.28 6.63c0,-0.14 -0.12,-0.26 -0.26,-0.26 -0.15,0 -0.26,0.12 -0.26,0.26 0,0.14 0.11,0.26 0.26,0.26 0.14,0 0.26,-0.12 0.26,-0.26z"/>
    <path class="fil0" d="M5.74 6.63c0,-0.14 -0.12,-0.26 -0.26,-0.26 -0.15,0 -0.26,0.12 -0.26,0.26 0,0.14 0.11,0.26 0.26,0.26 0.14,0 0.26,-0.12 0.26,-0.26z"/>
    <path class="fil0" d="M6.31 6.63c0,-0.14 -0.11,-0.26 -0.26,-0.26 -0.14,0 -0.26,0.12 -0.26,0.26 0,0.14 0.12,0.26 0.26,0.26 0.15,0 0.26,-0.12 0.26,-0.26z"/>
    <path class="fil0" d="M6.89 6.63c0,-0.14 -0.12,-0.26 -0.26,-0.26 -0.14,0 -0.26,0.12 -0.26,0.26 0,0.14 0.12,0.26 0.26,0.26 0.14,0 0.26,-0.12 0.26,-0.26z"/>
    <path class="fil0" d="M7.47 6.63c0,-0.14 -0.12,-0.26 -0.26,-0.26 -0.15,0 -0.26,0.12 -0.26,0.26 0,0.14 0.11,0.26 0.26,0.26 0.14,0 0.26,-0.12 0.26,-0.26z"/>
    <path class="fil0" d="M8.62 6.63c0,-0.14 -0.12,-0.26 -0.26,-0.26 -0.14,0 -0.26,0.12 -0.26,0.26 0,0.14 0.12,0.26 0.26,0.26 0.14,0 0.26,-0.12 0.26,-0.26z"/>
    <path class="fil0" d="M10.35 6.63c0,-0.14 -0.12,-0.26 -0.26,-0.26 -0.14,0 -0.26,0.12 -0.26,0.26 0,0.14 0.12,0.26 0.26,0.26 0.14,0 0.26,-0.12 0.26,-0.26z"/>
    <path class="fil0" d="M10.93 6.63c0,-0.14 -0.12,-0.26 -0.26,-0.26 -0.15,0 -0.26,0.12 -0.26,0.26 0,0.14 0.11,0.26 0.26,0.26 0.14,0 0.26,-0.12 0.26,-0.26z"/>
    <path class="fil0" d="M12.66 6.63c0,-0.14 -0.12,-0.26 -0.26,-0.26 -0.15,0 -0.26,0.12 -0.26,0.26 0,0.14 0.11,0.26 0.26,0.26 0.14,0 0.26,-0.12 0.26,-0.26z"/>
    <path class="fil0" d="M13.23 6.63c0,-0.14 -0.11,-0.26 -0.26,-0.26 -0.14,0 -0.26,0.12 -0.26,0.26 0,0.14 0.12,0.26 0.26,0.26 0.15,0 0.26,-0.12 0.26,-0.26z"/>
    <path class="fil0" d="M14.39 6.63c0,-0.14 -0.12,-0.26 -0.26,-0.26 -0.15,0 -0.26,0.12 -0.26,0.26 0,0.14 0.11,0.26 0.26,0.26 0.14,0 0.26,-0.12 0.26,-0.26z"/>
    <path class="fil0" d="M14.96 6.63c0,-0.14 -0.11,-0.26 -0.26,-0.26 -0.14,0 -0.26,0.12 -0.26,0.26 0,0.14 0.12,0.26 0.26,0.26 0.15,0 0.26,-0.12 0.26,-0.26z"/>
    <path class="fil0" d="M16.12 6.63c0,-0.14 -0.12,-0.26 -0.26,-0.26 -0.15,0 -0.26,0.12 -0.26,0.26 0,0.14 0.11,0.26 0.26,0.26 0.14,0 0.26,-0.12 0.26,-0.26z"/>
    <path class="fil0" d="M1.12 7.21c0,-0.15 -0.11,-0.26 -0.26,-0.26 -0.14,0 -0.25,0.11 -0.25,0.26 0,0.14 0.11,0.26 0.25,0.26 0.15,0 0.26,-0.12 0.26,-0.26z"/>
    <path class="fil0" d="M1.7 7.21c0,-0.15 -0.12,-0.26 -0.26,-0.26 -0.14,0 -0.26,0.11 -0.26,0.26 0,0.14 0.12,0.26 0.26,0.26 0.14,0 0.26,-0.12 0.26,-0.26z"/>
    <path class="fil0" d="M2.28 7.21c0,-0.15 -0.12,-0.26 -0.26,-0.26 -0.15,0 -0.26,0.11 -0.26,0.26 0,0.14 0.11,0.26 0.26,0.26 0.14,0 0.26,-0.12 0.26,-0.26z"/>
    <path class="fil0" d="M3.43 7.21c0,-0.15 -0.12,-0.26 -0.26,-0.26 -0.14,0 -0.26,0.11 -0.26,0.26 0,0.14 0.12,0.26 0.26,0.26 0.14,0 0.26,-0.12 0.26,-0.26z"/>
    <path class="fil0" d="M4.01 7.21c0,-0.15 -0.12,-0.26 -0.26,-0.26 -0.15,0 -0.26,0.11 -0.26,0.26 0,0.14 0.11,0.26 0.26,0.26 0.14,0 0.26,-0.12 0.26,-0.26z"/>
    <path class="fil0" d="M4.58 7.21c0,-0.15 -0.11,-0.26 -0.26,-0.26 -0.14,0 -0.26,0.11 -0.26,0.26 0,0.14 0.12,0.26 0.26,0.26 0.15,0 0.26,-0.12 0.26,-0.26z"/>
    <path class="fil0" d="M5.74 7.21c0,-0.15 -0.12,-0.26 -0.26,-0.26 -0.15,0 -0.26,0.11 -0.26,0.26 0,0.14 0.11,0.26 0.26,0.26 0.14,0 0.26,-0.12 0.26,-0.26z"/>
    <path class="fil0" d="M6.89 7.21c0,-0.15 -0.12,-0.26 -0.26,-0.26 -0.14,0 -0.26,0.11 -0.26,0.26 0,0.14 0.12,0.26 0.26,0.26 0.14,0 0.26,-0.12 0.26,-0.26z"/>
    <path class="fil0" d="M8.62 7.21c0,-0.15 -0.12,-0.26 -0.26,-0.26 -0.14,0 -0.26,0.11 -0.26,0.26 0,0.14 0.12,0.26 0.26,0.26 0.14,0 0.26,-0.12 0.26,-0.26z"/>
    <path class="fil0" d="M9.2 7.21c0,-0.15 -0.12,-0.26 -0.26,-0.26 -0.15,0 -0.26,0.11 -0.26,0.26 0,0.14 0.11,0.26 0.26,0.26 0.14,0 0.26,-0.12 0.26,-0.26z"/>
    <path class="fil0" d="M9.77 7.21c0,-0.15 -0.11,-0.26 -0.26,-0.26 -0.14,0 -0.26,0.11 -0.26,0.26 0,0.14 0.12,0.26 0.26,0.26 0.15,0 0.26,-0.12 0.26,-0.26z"/>
    <path class="fil0" d="M10.93 7.21c0,-0.15 -0.12,-0.26 -0.26,-0.26 -0.15,0 -0.26,0.11 -0.26,0.26 0,0.14 0.11,0.26 0.26,0.26 0.14,0 0.26,-0.12 0.26,-0.26z"/>
    <path class="fil0" d="M12.08 7.21c0,-0.15 -0.12,-0.26 -0.26,-0.26 -0.14,0 -0.26,0.11 -0.26,0.26 0,0.14 0.12,0.26 0.26,0.26 0.14,0 0.26,-0.12 0.26,-0.26z"/>
    <path class="fil0" d="M12.66 7.21c0,-0.15 -0.12,-0.26 -0.26,-0.26 -0.15,0 -0.26,0.11 -0.26,0.26 0,0.14 0.11,0.26 0.26,0.26 0.14,0 0.26,-0.12 0.26,-0.26z"/>
    <path class="fil0" d="M13.81 7.21c0,-0.15 -0.12,-0.26 -0.26,-0.26 -0.14,0 -0.26,0.11 -0.26,0.26 0,0.14 0.12,0.26 0.26,0.26 0.14,0 0.26,-0.12 0.26,-0.26z"/>
    <path class="fil0" d="M15.54 7.21c0,-0.15 -0.12,-0.26 -0.26,-0.26 -0.14,0 -0.26,0.11 -0.26,0.26 0,0.14 0.12,0.26 0.26,0.26 0.14,0 0.26,-0.12 0.26,-0.26z"/>
    <path class="fil0" d="M16.12 7.21c0,-0.15 -0.12,-0.26 -0.26,-0.26 -0.15,0 -0.26,0.11 -0.26,0.26 0,0.14 0.11,0.26 0.26,0.26 0.14,0 0.26,-0.12 0.26,-0.26z"/>
    <path class="fil0" d="M16.69 7.21c0,-0.15 -0.11,-0.26 -0.26,-0.26 -0.14,0 -0.26,0.11 -0.26,0.26 0,0.14 0.12,0.26 0.26,0.26 0.15,0 0.26,-0.12 0.26,-0.26z"/>
    <path class="fil0" d="M0.55 7.78c0,-0.14 -0.12,-0.26 -0.26,-0.26 -0.14,0 -0.26,0.12 -0.26,0.26 0,0.15 0.12,0.26 0.26,0.26 0.14,0 0.26,-0.11 0.26,-0.26z"/>
    <path class="fil0" d="M1.7 7.78c0,-0.14 -0.12,-0.26 -0.26,-0.26 -0.14,0 -0.26,0.12 -0.26,0.26 0,0.15 0.12,0.26 0.26,0.26 0.14,0 0.26,-0.11 0.26,-0.26z"/>
    <path class="fil0" d="M2.85 7.78c0,-0.14 -0.11,-0.26 -0.26,-0.26 -0.14,0 -0.25,0.12 -0.25,0.26 0,0.15 0.11,0.26 0.25,0.26 0.15,0 0.26,-0.11 0.26,-0.26z"/>
    <path class="fil0" d="M4.58 7.78c0,-0.14 -0.11,-0.26 -0.26,-0.26 -0.14,0 -0.26,0.12 -0.26,0.26 0,0.15 0.12,0.26 0.26,0.26 0.15,0 0.26,-0.11 0.26,-0.26z"/>
    <path class="fil0" d="M6.89 7.78c0,-0.14 -0.12,-0.26 -0.26,-0.26 -0.14,0 -0.26,0.12 -0.26,0.26 0,0.15 0.12,0.26 0.26,0.26 0.14,0 0.26,-0.11 0.26,-0.26z"/>
    <path class="fil0" d="M9.2 7.78c0,-0.14 -0.12,-0.26 -0.26,-0.26 -0.15,0 -0.26,0.12 -0.26,0.26 0,0.15 0.11,0.26 0.26,0.26 0.14,0 0.26,-0.11 0.26,-0.26z"/>
    <path class="fil0" d="M10.35 7.78c0,-0.14 -0.12,-0.26 -0.26,-0.26 -0.14,0 -0.26,0.12 -0.26,0.26 0,0.15 0.12,0.26 0.26,0.26 0.14,0 0.26,-0.11 0.26,-0.26z"/>
    <path class="fil0" d="M10.93 7.78c0,-0.14 -0.12,-0.26 -0.26,-0.26 -0.15,0 -0.26,0.12 -0.26,0.26 0,0.15 0.11,0.26 0.26,0.26 0.14,0 0.26,-0.11 0.26,-0.26z"/>
    <path class="fil0" d="M11.5 7.78c0,-0.14 -0.11,-0.26 -0.26,-0.26 -0.14,0 -0.26,0.12 -0.26,0.26 0,0.15 0.12,0.26 0.26,0.26 0.15,0 0.26,-0.11 0.26,-0.26z"/>
    <path class="fil0" d="M12.08 7.78c0,-0.14 -0.12,-0.26 -0.26,-0.26 -0.14,0 -0.26,0.12 -0.26,0.26 0,0.15 0.12,0.26 0.26,0.26 0.14,0 0.26,-0.11 0.26,-0.26z"/>
    <path class="fil0" d="M12.66 7.78c0,-0.14 -0.12,-0.26 -0.26,-0.26 -0.15,0 -0.26,0.12 -0.26,0.26 0,0.15 0.11,0.26 0.26,0.26 0.14,0 0.26,-0.11 0.26,-0.26z"/>
    <path class="fil0" d="M13.23 7.78c0,-0.14 -0.11,-0.26 -0.26,-0.26 -0.14,0 -0.26,0.12 -0.26,0.26 0,0.15 0.12,0.26 0.26,0.26 0.15,0 0.26,-0.11 0.26,-0.26z"/>
    <path class="fil0" d="M14.39 7.78c0,-0.14 -0.12,-0.26 -0.26,-0.26 -0.15,0 -0.26,0.12 -0.26,0.26 0,0.15 0.11,0.26 0.26,0.26 0.14,0 0.26,-0.11 0.26,-0.26z"/>
    <path class="fil0" d="M14.96 7.78c0,-0.14 -0.11,-0.26 -0.26,-0.26 -0.14,0 -0.26,0.12 -0.26,0.26 0,0.15 0.12,0.26 0.26,0.26 0.15,0 0.26,-0.11 0.26,-0.26z"/>
    <path class="fil0" d="M16.12 7.78c0,-0.14 -0.12,-0.26 -0.26,-0.26 -0.15,0 -0.26,0.12 -0.26,0.26 0,0.15 0.11,0.26 0.26,0.26 0.14,0 0.26,-0.11 0.26,-0.26z"/>
    <path class="fil0" d="M16.69 7.78c0,-0.14 -0.11,-0.26 -0.26,-0.26 -0.14,0 -0.26,0.12 -0.26,0.26 0,0.15 0.12,0.26 0.26,0.26 0.15,0 0.26,-0.11 0.26,-0.26z"/>
    <path class="fil0" d="M0.55 8.36c0,-0.14 -0.12,-0.26 -0.26,-0.26 -0.14,0 -0.26,0.12 -0.26,0.26 0,0.14 0.12,0.26 0.26,0.26 0.14,0 0.26,-0.12 0.26,-0.26z"/>
    <path class="fil0" d="M1.12 8.36c0,-0.14 -0.11,-0.26 -0.26,-0.26 -0.14,0 -0.25,0.12 -0.25,0.26 0,0.14 0.11,0.26 0.25,0.26 0.15,0 0.26,-0.12 0.26,-0.26z"/>
    <path class="fil0" d="M1.7 8.36c0,-0.14 -0.12,-0.26 -0.26,-0.26 -0.14,0 -0.26,0.12 -0.26,0.26 0,0.14 0.12,0.26 0.26,0.26 0.14,0 0.26,-0.12 0.26,-0.26z"/>
    <path class="fil0" d="M2.85 8.36c0,-0.14 -0.11,-0.26 -0.26,-0.26 -0.14,0 -0.25,0.12 -0.25,0.26 0,0.14 0.11,0.26 0.25,0.26 0.15,0 0.26,-0.12 0.26,-0.26z"/>
    <path class="fil0" d="M3.43 8.36c0,-0.14 -0.12,-0.26 -0.26,-0.26 -0.14,0 -0.26,0.12 -0.26,0.26 0,0.14 0.12,0.26 0.26,0.26 0.14,0 0.26,-0.12 0.26,-0.26z"/>
    <path class="fil0" d="M4.01 8.36c0,-0.14 -0.12,-0.26 -0.26,-0.26 -0.15,0 -0.26,0.12 -0.26,0.26 0,0.14 0.11,0.26 0.26,0.26 0.14,0 0.26,-0.12 0.26,-0.26z"/>
    <path class="fil0" d="M5.16 8.36c0,-0.14 -0.12,-0.26 -0.26,-0.26 -0.14,0 -0.26,0.12 -0.26,0.26 0,0.14 0.12,0.26 0.26,0.26 0.14,0 0.26,-0.12 0.26,-0.26z"/>
    <path class="fil0" d="M8.62 8.36c0,-0.14 -0.12,-0.26 -0.26,-0.26 -0.14,0 -0.26,0.12 -0.26,0.26 0,0.14 0.12,0.26 0.26,0.26 0.14,0 0.26,-0.12 0.26,-0.26z"/>
    <path class="fil0" d="M9.2 8.36c0,-0.14 -0.12,-0.26 -0.26,-0.26 -0.15,0 -0.26,0.12 -0.26,0.26 0,0.14 0.11,0.26 0.26,0.26 0.14,0 0.26,-0.12 0.26,-0.26z"/>
    <path class="fil0" d="M10.93 8.36c0,-0.14 -0.12,-0.26 -0.26,-0.26 -0.15,0 -0.26,0.12 -0.26,0.26 0,0.14 0.11,0.26 0.26,0.26 0.14,0 0.26,-0.12 0.26,-0.26z"/>
    <path class="fil0" d="M12.66 8.36c0,-0.14 -0.12,-0.26 -0.26,-0.26 -0.15,0 -0.26,0.12 -0.26,0.26 0,0.14 0.11,0.26 0.26,0.26 0.14,0 0.26,-0.12 0.26,-0.26z"/>
    <path class="fil0" d="M13.81 8.36c0,-0.14 -0.12,-0.26 -0.26,-0.26 -0.14,0 -0.26,0.12 -0.26,0.26 0,0.14 0.12,0.26 0.26,0.26 0.14,0 0.26,-0.12 0.26,-0.26z"/>
    <path class="fil0" d="M1.12 8.94c0,-0.15 -0.11,-0.26 -0.26,-0.26 -0.14,0 -0.25,0.11 -0.25,0.26 0,0.14 0.11,0.26 0.25,0.26 0.15,0 0.26,-0.12 0.26,-0.26z"/>
    <path class="fil0" d="M1.7 8.94c0,-0.15 -0.12,-0.26 -0.26,-0.26 -0.14,0 -0.26,0.11 -0.26,0.26 0,0.14 0.12,0.26 0.26,0.26 0.14,0 0.26,-0.12 0.26,-0.26z"/>
    <path class="fil0" d="M2.85 8.94c0,-0.15 -0.11,-0.26 -0.26,-0.26 -0.14,0 -0.25,0.11 -0.25,0.26 0,0.14 0.11,0.26 0.25,0.26 0.15,0 0.26,-0.12 0.26,-0.26z"/>
    <path class="fil0" d="M4.58 8.94c0,-0.15 -0.11,-0.26 -0.26,-0.26 -0.14,0 -0.26,0.11 -0.26,0.26 0,0.14 0.12,0.26 0.26,0.26 0.15,0 0.26,-0.12 0.26,-0.26z"/>
    <path class="fil0" d="M5.16 8.94c0,-0.15 -0.12,-0.26 -0.26,-0.26 -0.14,0 -0.26,0.11 -0.26,0.26 0,0.14 0.12,0.26 0.26,0.26 0.14,0 0.26,-0.12 0.26,-0.26z"/>
    <path class="fil0" d="M8.04 8.94c0,-0.15 -0.11,-0.26 -0.26,-0.26 -0.14,0 -0.26,0.11 -0.26,0.26 0,0.14 0.12,0.26 0.26,0.26 0.15,0 0.26,-0.12 0.26,-0.26z"/>
    <path class="fil0" d="M9.2 8.94c0,-0.15 -0.12,-0.26 -0.26,-0.26 -0.15,0 -0.26,0.11 -0.26,0.26 0,0.14 0.11,0.26 0.26,0.26 0.14,0 0.26,-0.12 0.26,-0.26z"/>
    <path class="fil0" d="M11.5 8.94c0,-0.15 -0.11,-0.26 -0.26,-0.26 -0.14,0 -0.26,0.11 -0.26,0.26 0,0.14 0.12,0.26 0.26,0.26 0.15,0 0.26,-0.12 0.26,-0.26z"/>
    <path class="fil0" d="M12.08 8.94c0,-0.15 -0.12,-0.26 -0.26,-0.26 -0.14,0 -0.26,0.11 -0.26,0.26 0,0.14 0.12,0.26 0.26,0.26 0.14,0 0.26,-0.12 0.26,-0.26z"/>
    <path class="fil0" d="M12.66 8.94c0,-0.15 -0.12,-0.26 -0.26,-0.26 -0.15,0 -0.26,0.11 -0.26,0.26 0,0.14 0.11,0.26 0.26,0.26 0.14,0 0.26,-0.12 0.26,-0.26z"/>
    <path class="fil0" d="M14.39 8.94c0,-0.15 -0.12,-0.26 -0.26,-0.26 -0.15,0 -0.26,0.11 -0.26,0.26 0,0.14 0.11,0.26 0.26,0.26 0.14,0 0.26,-0.12 0.26,-0.26z"/>
    <path class="fil0" d="M14.96 8.94c0,-0.15 -0.11,-0.26 -0.26,-0.26 -0.14,0 -0.26,0.11 -0.26,0.26 0,0.14 0.12,0.26 0.26,0.26 0.15,0 0.26,-0.12 0.26,-0.26z"/>
    <path class="fil0" d="M16.12 8.94c0,-0.15 -0.12,-0.26 -0.26,-0.26 -0.15,0 -0.26,0.11 -0.26,0.26 0,0.14 0.11,0.26 0.26,0.26 0.14,0 0.26,-0.12 0.26,-0.26z"/>
    <path class="fil0" d="M16.69 8.94c0,-0.15 -0.11,-0.26 -0.26,-0.26 -0.14,0 -0.26,0.11 -0.26,0.26 0,0.14 0.12,0.26 0.26,0.26 0.15,0 0.26,-0.12 0.26,-0.26z"/>
    <path class="fil0" d="M1.12 9.51c0,-0.14 -0.11,-0.26 -0.26,-0.26 -0.14,0 -0.25,0.12 -0.25,0.26 0,0.15 0.11,0.26 0.25,0.26 0.15,0 0.26,-0.11 0.26,-0.26z"/>
    <path class="fil0" d="M1.7 9.51c0,-0.14 -0.12,-0.26 -0.26,-0.26 -0.14,0 -0.26,0.12 -0.26,0.26 0,0.15 0.12,0.26 0.26,0.26 0.14,0 0.26,-0.11 0.26,-0.26z"/>
    <path class="fil0" d="M4.01 9.51c0,-0.14 -0.12,-0.26 -0.26,-0.26 -0.15,0 -0.26,0.12 -0.26,0.26 0,0.15 0.11,0.26 0.26,0.26 0.14,0 0.26,-0.11 0.26,-0.26z"/>
    <path class="fil0" d="M4.58 9.51c0,-0.14 -0.11,-0.26 -0.26,-0.26 -0.14,0 -0.26,0.12 -0.26,0.26 0,0.15 0.12,0.26 0.26,0.26 0.15,0 0.26,-0.11 0.26,-0.26z"/>
    <path class="fil0" d="M6.89 9.51c0,-0.14 -0.12,-0.26 -0.26,-0.26 -0.14,0 -0.26,0.12 -0.26,0.26 0,0.15 0.12,0.26 0.26,0.26 0.14,0 0.26,-0.11 0.26,-0.26z"/>
    <path class="fil0" d="M7.47 9.51c0,-0.14 -0.12,-0.26 -0.26,-0.26 -0.15,0 -0.26,0.12 -0.26,0.26 0,0.15 0.11,0.26 0.26,0.26 0.14,0 0.26,-0.11 0.26,-0.26z"/>
    <path class="fil0" d="M8.04 9.51c0,-0.14 -0.11,-0.26 -0.26,-0.26 -0.14,0 -0.26,0.12 -0.26,0.26 0,0.15 0.12,0.26 0.26,0.26 0.15,0 0.26,-0.11 0.26,-0.26z"/>
    <path class="fil0" d="M9.2 9.51c0,-0.14 -0.12,-0.26 -0.26,-0.26 -0.15,0 -0.26,0.12 -0.26,0.26 0,0.15 0.11,0.26 0.26,0.26 0.14,0 0.26,-0.11 0.26,-0.26z"/>
    <path class="fil0" d="M12.66 9.51c0,-0.14 -0.12,-0.26 -0.26,-0.26 -0.15,0 -0.26,0.12 -0.26,0.26 0,0.15 0.11,0.26 0.26,0.26 0.14,0 0.26,-0.11 0.26,-0.26z"/>
    <path class="fil0" d="M14.96 9.51c0,-0.14 -0.11,-0.26 -0.26,-0.26 -0.14,0 -0.26,0.12 -0.26,0.26 0,0.15 0.12,0.26 0.26,0.26 0.15,0 0.26,-0.11 0.26,-0.26z"/>
    <path class="fil0" d="M15.54 9.51c0,-0.14 -0.12,-0.26 -0.26,-0.26 -0.14,0 -0.26,0.12 -0.26,0.26 0,0.15 0.12,0.26 0.26,0.26 0.14,0 0.26,-0.11 0.26,-0.26z"/>
    <path class="fil0" d="M16.69 9.51c0,-0.14 -0.11,-0.26 -0.26,-0.26 -0.14,0 -0.26,0.12 -0.26,0.26 0,0.15 0.12,0.26 0.26,0.26 0.15,0 0.26,-0.11 0.26,-0.26z"/>
    <path class="fil0" d="M0.55 10.09c0,-0.14 -0.12,-0.26 -0.26,-0.26 -0.14,0 -0.26,0.12 -0.26,0.26 0,0.14 0.12,0.26 0.26,0.26 0.14,0 0.26,-0.12 0.26,-0.26z"/>
    <path class="fil0" d="M1.7 10.09c0,-0.14 -0.12,-0.26 -0.26,-0.26 -0.14,0 -0.26,0.12 -0.26,0.26 0,0.14 0.12,0.26 0.26,0.26 0.14,0 0.26,-0.12 0.26,-0.26z"/>
    <path class="fil0" d="M2.85 10.09c0,-0.14 -0.11,-0.26 -0.26,-0.26 -0.14,0 -0.25,0.12 -0.25,0.26 0,0.14 0.11,0.26 0.25,0.26 0.15,0 0.26,-0.12 0.26,-0.26z"/>
    <path class="fil0" d="M4.58 10.09c0,-0.14 -0.11,-0.26 -0.26,-0.26 -0.14,0 -0.26,0.12 -0.26,0.26 0,0.14 0.12,0.26 0.26,0.26 0.15,0 0.26,-0.12 0.26,-0.26z"/>
    <path class="fil0" d="M6.31 10.09c0,-0.14 -0.11,-0.26 -0.26,-0.26 -0.14,0 -0.26,0.12 -0.26,0.26 0,0.14 0.12,0.26 0.26,0.26 0.15,0 0.26,-0.12 0.26,-0.26z"/>
    <path class="fil0" d="M7.47 10.09c0,-0.14 -0.12,-0.26 -0.26,-0.26 -0.15,0 -0.26,0.12 -0.26,0.26 0,0.14 0.11,0.26 0.26,0.26 0.14,0 0.26,-0.12 0.26,-0.26z"/>
    <path class="fil0" d="M8.62 10.09c0,-0.14 -0.12,-0.26 -0.26,-0.26 -0.14,0 -0.26,0.12 -0.26,0.26 0,0.14 0.12,0.26 0.26,0.26 0.14,0 0.26,-0.12 0.26,-0.26z"/>
    <path class="fil0" d="M9.2 10.09c0,-0.14 -0.12,-0.26 -0.26,-0.26 -0.15,0 -0.26,0.12 -0.26,0.26 0,0.14 0.11,0.26 0.26,0.26 0.14,0 0.26,-0.12 0.26,-0.26z"/>
    <path class="fil0" d="M9.77 10.09c0,-0.14 -0.11,-0.26 -0.26,-0.26 -0.14,0 -0.26,0.12 -0.26,0.26 0,0.14 0.12,0.26 0.26,0.26 0.15,0 0.26,-0.12 0.26,-0.26z"/>
    <path class="fil0" d="M12.08 10.09c0,-0.14 -0.12,-0.26 -0.26,-0.26 -0.14,0 -0.26,0.12 -0.26,0.26 0,0.14 0.12,0.26 0.26,0.26 0.14,0 0.26,-0.12 0.26,-0.26z"/>
    <path class="fil0" d="M13.23 10.09c0,-0.14 -0.11,-0.26 -0.26,-0.26 -0.14,0 -0.26,0.12 -0.26,0.26 0,0.14 0.12,0.26 0.26,0.26 0.15,0 0.26,-0.12 0.26,-0.26z"/>
    <path class="fil0" d="M13.81 10.09c0,-0.14 -0.12,-0.26 -0.26,-0.26 -0.14,0 -0.26,0.12 -0.26,0.26 0,0.14 0.12,0.26 0.26,0.26 0.14,0 0.26,-0.12 0.26,-0.26z"/>
    <path class="fil0" d="M14.39 10.09c0,-0.14 -0.12,-0.26 -0.26,-0.26 -0.15,0 -0.26,0.12 -0.26,0.26 0,0.14 0.11,0.26 0.26,0.26 0.14,0 0.26,-0.12 0.26,-0.26z"/>
    <path class="fil0" d="M16.12 10.09c0,-0.14 -0.12,-0.26 -0.26,-0.26 -0.15,0 -0.26,0.12 -0.26,0.26 0,0.14 0.11,0.26 0.26,0.26 0.14,0 0.26,-0.12 0.26,-0.26z"/>
    <path class="fil0" d="M16.69 10.09c0,-0.14 -0.11,-0.26 -0.26,-0.26 -0.14,0 -0.26,0.12 -0.26,0.26 0,0.14 0.12,0.26 0.26,0.26 0.15,0 0.26,-0.12 0.26,-0.26z"/>
    <path class="fil0" d="M0.55 10.67c0,-0.15 -0.12,-0.26 -0.26,-0.26 -0.14,0 -0.26,0.11 -0.26,0.26 0,0.14 0.12,0.26 0.26,0.26 0.14,0 0.26,-0.12 0.26,-0.26z"/>
    <path class="fil0" d="M1.7 10.67c0,-0.15 -0.12,-0.26 -0.26,-0.26 -0.14,0 -0.26,0.11 -0.26,0.26 0,0.14 0.12,0.26 0.26,0.26 0.14,0 0.26,-0.12 0.26,-0.26z"/>
    <path class="fil0" d="M2.28 10.67c0,-0.15 -0.12,-0.26 -0.26,-0.26 -0.15,0 -0.26,0.11 -0.26,0.26 0,0.14 0.11,0.26 0.26,0.26 0.14,0 0.26,-0.12 0.26,-0.26z"/>
    <path class="fil0" d="M4.01 10.67c0,-0.15 -0.12,-0.26 -0.26,-0.26 -0.15,0 -0.26,0.11 -0.26,0.26 0,0.14 0.11,0.26 0.26,0.26 0.14,0 0.26,-0.12 0.26,-0.26z"/>
    <path class="fil0" d="M5.74 10.67c0,-0.15 -0.12,-0.26 -0.26,-0.26 -0.15,0 -0.26,0.11 -0.26,0.26 0,0.14 0.11,0.26 0.26,0.26 0.14,0 0.26,-0.12 0.26,-0.26z"/>
    <path class="fil0" d="M6.89 10.67c0,-0.15 -0.12,-0.26 -0.26,-0.26 -0.14,0 -0.26,0.11 -0.26,0.26 0,0.14 0.12,0.26 0.26,0.26 0.14,0 0.26,-0.12 0.26,-0.26z"/>
    <path class="fil0" d="M8.04 10.67c0,-0.15 -0.11,-0.26 -0.26,-0.26 -0.14,0 -0.26,0.11 -0.26,0.26 0,0.14 0.12,0.26 0.26,0.26 0.15,0 0.26,-0.12 0.26,-0.26z"/>
    <path class="fil0" d="M8.62 10.67c0,-0.15 -0.12,-0.26 -0.26,-0.26 -0.14,0 -0.26,0.11 -0.26,0.26 0,0.14 0.12,0.26 0.26,0.26 0.14,0 0.26,-0.12 0.26,-0.26z"/>
    <path class="fil0" d="M9.2 10.67c0,-0.15 -0.12,-0.26 -0.26,-0.26 -0.15,0 -0.26,0.11 -0.26,0.26 0,0.14 0.11,0.26 0.26,0.26 0.14,0 0.26,-0.12 0.26,-0.26z"/>
    <path class="fil0" d="M9.77 10.67c0,-0.15 -0.11,-0.26 -0.26,-0.26 -0.14,0 -0.26,0.11 -0.26,0.26 0,0.14 0.12,0.26 0.26,0.26 0.15,0 0.26,-0.12 0.26,-0.26z"/>
    <path class="fil0" d="M11.5 10.67c0,-0.15 -0.11,-0.26 -0.26,-0.26 -0.14,0 -0.26,0.11 -0.26,0.26 0,0.14 0.12,0.26 0.26,0.26 0.15,0 0.26,-0.12 0.26,-0.26z"/>
    <path class="fil0" d="M13.23 10.67c0,-0.15 -0.11,-0.26 -0.26,-0.26 -0.14,0 -0.26,0.11 -0.26,0.26 0,0.14 0.12,0.26 0.26,0.26 0.15,0 0.26,-0.12 0.26,-0.26z"/>
    <path class="fil0" d="M14.96 10.67c0,-0.15 -0.11,-0.26 -0.26,-0.26 -0.14,0 -0.26,0.11 -0.26,0.26 0,0.14 0.12,0.26 0.26,0.26 0.15,0 0.26,-0.12 0.26,-0.26z"/>
    <path class="fil0" d="M15.54 10.67c0,-0.15 -0.12,-0.26 -0.26,-0.26 -0.14,0 -0.26,0.11 -0.26,0.26 0,0.14 0.12,0.26 0.26,0.26 0.14,0 0.26,-0.12 0.26,-0.26z"/>
    <path class="fil0" d="M0.55 11.24c0,-0.14 -0.12,-0.26 -0.26,-0.26 -0.14,0 -0.26,0.12 -0.26,0.26 0,0.15 0.12,0.26 0.26,0.26 0.14,0 0.26,-0.11 0.26,-0.26z"/>
    <path class="fil0" d="M2.85 11.24c0,-0.14 -0.11,-0.26 -0.26,-0.26 -0.14,0 -0.25,0.12 -0.25,0.26 0,0.15 0.11,0.26 0.25,0.26 0.15,0 0.26,-0.11 0.26,-0.26z"/>
    <path class="fil0" d="M5.74 11.24c0,-0.14 -0.12,-0.26 -0.26,-0.26 -0.15,0 -0.26,0.12 -0.26,0.26 0,0.15 0.11,0.26 0.26,0.26 0.14,0 0.26,-0.11 0.26,-0.26z"/>
    <path class="fil0" d="M7.47 11.24c0,-0.14 -0.12,-0.26 -0.26,-0.26 -0.15,0 -0.26,0.12 -0.26,0.26 0,0.15 0.11,0.26 0.26,0.26 0.14,0 0.26,-0.11 0.26,-0.26z"/>
    <path class="fil0" d="M8.04 11.24c0,-0.14 -0.11,-0.26 -0.26,-0.26 -0.14,0 -0.26,0.12 -0.26,0.26 0,0.15 0.12,0.26 0.26,0.26 0.15,0 0.26,-0.11 0.26,-0.26z"/>
    <path class="fil0" d="M9.77 11.24c0,-0.14 -0.11,-0.26 -0.26,-0.26 -0.14,0 -0.26,0.12 -0.26,0.26 0,0.15 0.12,0.26 0.26,0.26 0.15,0 0.26,-0.11 0.26,-0.26z"/>
    <path class="fil0" d="M10.35 11.24c0,-0.14 -0.12,-0.26 -0.26,-0.26 -0.14,0 -0.26,0.12 -0.26,0.26 0,0.15 0.12,0.26 0.26,0.26 0.14,0 0.26,-0.11 0.26,-0.26z"/>
    <path class="fil0" d="M11.5 11.24c0,-0.14 -0.11,-0.26 -0.26,-0.26 -0.14,0 -0.26,0.12 -0.26,0.26 0,0.15 0.12,0.26 0.26,0.26 0.15,0 0.26,-0.11 0.26,-0.26z"/>
    <path class="fil0" d="M12.08 11.24c0,-0.14 -0.12,-0.26 -0.26,-0.26 -0.14,0 -0.26,0.12 -0.26,0.26 0,0.15 0.12,0.26 0.26,0.26 0.14,0 0.26,-0.11 0.26,-0.26z"/>
    <path class="fil0" d="M13.23 11.24c0,-0.14 -0.11,-0.26 -0.26,-0.26 -0.14,0 -0.26,0.12 -0.26,0.26 0,0.15 0.12,0.26 0.26,0.26 0.15,0 0.26,-0.11 0.26,-0.26z"/>
    <path class="fil0" d="M13.81 11.24c0,-0.14 -0.12,-0.26 -0.26,-0.26 -0.14,0 -0.26,0.12 -0.26,0.26 0,0.15 0.12,0.26 0.26,0.26 0.14,0 0.26,-0.11 0.26,-0.26z"/>
    <path class="fil0" d="M14.39 11.24c0,-0.14 -0.12,-0.26 -0.26,-0.26 -0.15,0 -0.26,0.12 -0.26,0.26 0,0.15 0.11,0.26 0.26,0.26 0.14,0 0.26,-0.11 0.26,-0.26z"/>
    <path class="fil0" d="M16.12 11.24c0,-0.14 -0.12,-0.26 -0.26,-0.26 -0.15,0 -0.26,0.12 -0.26,0.26 0,0.15 0.11,0.26 0.26,0.26 0.14,0 0.26,-0.11 0.26,-0.26z"/>
    <path class="fil0" d="M0.55 11.82c0,-0.14 -0.12,-0.26 -0.26,-0.26 -0.14,0 -0.26,0.12 -0.26,0.26 0,0.14 0.12,0.26 0.26,0.26 0.14,0 0.26,-0.12 0.26,-0.26z"/>
    <path class="fil0" d="M4.01 11.82c0,-0.14 -0.12,-0.26 -0.26,-0.26 -0.15,0 -0.26,0.12 -0.26,0.26 0,0.14 0.11,0.26 0.26,0.26 0.14,0 0.26,-0.12 0.26,-0.26z"/>
    <path class="fil0" d="M6.31 11.82c0,-0.14 -0.11,-0.26 -0.26,-0.26 -0.14,0 -0.26,0.12 -0.26,0.26 0,0.14 0.12,0.26 0.26,0.26 0.15,0 0.26,-0.12 0.26,-0.26z"/>
    <path class="fil0" d="M6.89 11.82c0,-0.14 -0.12,-0.26 -0.26,-0.26 -0.14,0 -0.26,0.12 -0.26,0.26 0,0.14 0.12,0.26 0.26,0.26 0.14,0 0.26,-0.12 0.26,-0.26z"/>
    <path class="fil0" d="M7.47 11.82c0,-0.14 -0.12,-0.26 -0.26,-0.26 -0.15,0 -0.26,0.12 -0.26,0.26 0,0.14 0.11,0.26 0.26,0.26 0.14,0 0.26,-0.12 0.26,-0.26z"/>
    <path class="fil0" d="M8.04 11.82c0,-0.14 -0.11,-0.26 -0.26,-0.26 -0.14,0 -0.26,0.12 -0.26,0.26 0,0.14 0.12,0.26 0.26,0.26 0.15,0 0.26,-0.12 0.26,-0.26z"/>
    <path class="fil0" d="M8.62 11.82c0,-0.14 -0.12,-0.26 -0.26,-0.26 -0.14,0 -0.26,0.12 -0.26,0.26 0,0.14 0.12,0.26 0.26,0.26 0.14,0 0.26,-0.12 0.26,-0.26z"/>
    <path class="fil0" d="M9.77 11.82c0,-0.14 -0.11,-0.26 -0.26,-0.26 -0.14,0 -0.26,0.12 -0.26,0.26 0,0.14 0.12,0.26 0.26,0.26 0.15,0 0.26,-0.12 0.26,-0.26z"/>
    <path class="fil0" d="M10.93 11.82c0,-0.14 -0.12,-0.26 -0.26,-0.26 -0.15,0 -0.26,0.12 -0.26,0.26 0,0.14 0.11,0.26 0.26,0.26 0.14,0 0.26,-0.12 0.26,-0.26z"/>
    <path class="fil0" d="M11.5 11.82c0,-0.14 -0.11,-0.26 -0.26,-0.26 -0.14,0 -0.26,0.12 -0.26,0.26 0,0.14 0.12,0.26 0.26,0.26 0.15,0 0.26,-0.12 0.26,-0.26z"/>
    <path class="fil0" d="M15.54 11.82c0,-0.14 -0.12,-0.26 -0.26,-0.26 -0.14,0 -0.26,0.12 -0.26,0.26 0,0.14 0.12,0.26 0.26,0.26 0.14,0 0.26,-0.12 0.26,-0.26z"/>
    <path class="fil0" d="M5.16 12.4c0,-0.15 -0.12,-0.26 -0.26,-0.26 -0.14,0 -0.26,0.11 -0.26,0.26 0,0.14 0.12,0.26 0.26,0.26 0.14,0 0.26,-0.12 0.26,-0.26z"/>
    <path class="fil0" d="M5.74 12.4c0,-0.15 -0.12,-0.26 -0.26,-0.26 -0.15,0 -0.26,0.11 -0.26,0.26 0,0.14 0.11,0.26 0.26,0.26 0.14,0 0.26,-0.12 0.26,-0.26z"/>
    <path class="fil0" d="M6.31 12.4c0,-0.15 -0.11,-0.26 -0.26,-0.26 -0.14,0 -0.26,0.11 -0.26,0.26 0,0.14 0.12,0.26 0.26,0.26 0.15,0 0.26,-0.12 0.26,-0.26z"/>
    <path class="fil0" d="M6.89 12.4c0,-0.15 -0.12,-0.26 -0.26,-0.26 -0.14,0 -0.26,0.11 -0.26,0.26 0,0.14 0.12,0.26 0.26,0.26 0.14,0 0.26,-0.12 0.26,-0.26z"/>
    <path class="fil0" d="M7.47 12.4c0,-0.15 -0.12,-0.26 -0.26,-0.26 -0.15,0 -0.26,0.11 -0.26,0.26 0,0.14 0.11,0.26 0.26,0.26 0.14,0 0.26,-0.12 0.26,-0.26z"/>
    <path class="fil0" d="M9.2 12.4c0,-0.15 -0.12,-0.26 -0.26,-0.26 -0.15,0 -0.26,0.11 -0.26,0.26 0,0.14 0.11,0.26 0.26,0.26 0.14,0 0.26,-0.12 0.26,-0.26z"/>
    <path class="fil0" d="M9.77 12.4c0,-0.15 -0.11,-0.26 -0.26,-0.26 -0.14,0 -0.26,0.11 -0.26,0.26 0,0.14 0.12,0.26 0.26,0.26 0.15,0 0.26,-0.12 0.26,-0.26z"/>
    <path class="fil0" d="M10.93 12.4c0,-0.15 -0.12,-0.26 -0.26,-0.26 -0.15,0 -0.26,0.11 -0.26,0.26 0,0.14 0.11,0.26 0.26,0.26 0.14,0 0.26,-0.12 0.26,-0.26z"/>
    <path class="fil0" d="M11.5 12.4c0,-0.15 -0.11,-0.26 -0.26,-0.26 -0.14,0 -0.26,0.11 -0.26,0.26 0,0.14 0.12,0.26 0.26,0.26 0.15,0 0.26,-0.12 0.26,-0.26z"/>
    <path class="fil0" d="M14.96 12.4c0,-0.15 -0.11,-0.26 -0.26,-0.26 -0.14,0 -0.26,0.11 -0.26,0.26 0,0.14 0.12,0.26 0.26,0.26 0.15,0 0.26,-0.12 0.26,-0.26z"/>
    <path class="fil0" d="M16.12 12.4c0,-0.15 -0.12,-0.26 -0.26,-0.26 -0.15,0 -0.26,0.11 -0.26,0.26 0,0.14 0.11,0.26 0.26,0.26 0.14,0 0.26,-0.12 0.26,-0.26z"/>
    <path class="fil0" d="M16.69 12.4c0,-0.15 -0.11,-0.26 -0.26,-0.26 -0.14,0 -0.26,0.11 -0.26,0.26 0,0.14 0.12,0.26 0.26,0.26 0.15,0 0.26,-0.12 0.26,-0.26z"/>
    <path class="fil0" d="M6.31 12.97c0,-0.14 -0.11,-0.26 -0.26,-0.26 -0.14,0 -0.26,0.12 -0.26,0.26 0,0.15 0.12,0.26 0.26,0.26 0.15,0 0.26,-0.11 0.26,-0.26z"/>
    <path class="fil0" d="M7.47 12.97c0,-0.14 -0.12,-0.26 -0.26,-0.26 -0.15,0 -0.26,0.12 -0.26,0.26 0,0.15 0.11,0.26 0.26,0.26 0.14,0 0.26,-0.11 0.26,-0.26z"/>
    <path class="fil0" d="M8.62 12.97c0,-0.14 -0.12,-0.26 -0.26,-0.26 -0.14,0 -0.26,0.12 -0.26,0.26 0,0.15 0.12,0.26 0.26,0.26 0.14,0 0.26,-0.11 0.26,-0.26z"/>
    <path class="fil0" d="M11.5 12.97c0,-0.14 -0.11,-0.26 -0.26,-0.26 -0.14,0 -0.26,0.12 -0.26,0.26 0,0.15 0.12,0.26 0.26,0.26 0.15,0 0.26,-0.11 0.26,-0.26z"/>
    <path class="fil0" d="M16.12 12.97c0,-0.14 -0.12,-0.26 -0.26,-0.26 -0.15,0 -0.26,0.12 -0.26,0.26 0,0.15 0.11,0.26 0.26,0.26 0.14,0 0.26,-0.11 0.26,-0.26z"/>
    <path class="fil0" d="M5.74 13.55c0,-0.14 -0.12,-0.26 -0.26,-0.26 -0.15,0 -0.26,0.12 -0.26,0.26 0,0.14 0.11,0.26 0.26,0.26 0.14,0 0.26,-0.12 0.26,-0.26z"/>
    <path class="fil0" d="M8.04 13.55c0,-0.14 -0.11,-0.26 -0.26,-0.26 -0.14,0 -0.26,0.12 -0.26,0.26 0,0.14 0.12,0.26 0.26,0.26 0.15,0 0.26,-0.12 0.26,-0.26z"/>
    <path class="fil0" d="M8.62 13.55c0,-0.14 -0.12,-0.26 -0.26,-0.26 -0.14,0 -0.26,0.12 -0.26,0.26 0,0.14 0.12,0.26 0.26,0.26 0.14,0 0.26,-0.12 0.26,-0.26z"/>
    <path class="fil0" d="M10.93 13.55c0,-0.14 -0.12,-0.26 -0.26,-0.26 -0.15,0 -0.26,0.12 -0.26,0.26 0,0.14 0.11,0.26 0.26,0.26 0.14,0 0.26,-0.12 0.26,-0.26z"/>
    <path class="fil0" d="M11.5 13.55c0,-0.14 -0.11,-0.26 -0.26,-0.26 -0.14,0 -0.26,0.12 -0.26,0.26 0,0.14 0.12,0.26 0.26,0.26 0.15,0 0.26,-0.12 0.26,-0.26z"/>
    <path class="fil0" d="M14.96 13.55c0,-0.14 -0.11,-0.26 -0.26,-0.26 -0.14,0 -0.26,0.12 -0.26,0.26 0,0.14 0.12,0.26 0.26,0.26 0.15,0 0.26,-0.12 0.26,-0.26z"/>
    <path class="fil0" d="M16.12 13.55c0,-0.14 -0.12,-0.26 -0.26,-0.26 -0.15,0 -0.26,0.12 -0.26,0.26 0,0.14 0.11,0.26 0.26,0.26 0.14,0 0.26,-0.12 0.26,-0.26z"/>
    <path class="fil0" d="M5.16 14.13c0,-0.15 -0.12,-0.26 -0.26,-0.26 -0.14,0 -0.26,0.11 -0.26,0.26 0,0.14 0.12,0.26 0.26,0.26 0.14,0 0.26,-0.12 0.26,-0.26z"/>
    <path class="fil0" d="M8.04 14.13c0,-0.15 -0.11,-0.26 -0.26,-0.26 -0.14,0 -0.26,0.11 -0.26,0.26 0,0.14 0.12,0.26 0.26,0.26 0.15,0 0.26,-0.12 0.26,-0.26z"/>
    <path class="fil0" d="M9.77 14.13c0,-0.15 -0.11,-0.26 -0.26,-0.26 -0.14,0 -0.26,0.11 -0.26,0.26 0,0.14 0.12,0.26 0.26,0.26 0.15,0 0.26,-0.12 0.26,-0.26z"/>
    <path class="fil0" d="M10.35 14.13c0,-0.15 -0.12,-0.26 -0.26,-0.26 -0.14,0 -0.26,0.11 -0.26,0.26 0,0.14 0.12,0.26 0.26,0.26 0.14,0 0.26,-0.12 0.26,-0.26z"/>
    <path class="fil0" d="M14.96 14.13c0,-0.15 -0.11,-0.26 -0.26,-0.26 -0.14,0 -0.26,0.11 -0.26,0.26 0,0.14 0.12,0.26 0.26,0.26 0.15,0 0.26,-0.12 0.26,-0.26z"/>
    <path class="fil0" d="M15.54 14.13c0,-0.15 -0.12,-0.26 -0.26,-0.26 -0.14,0 -0.26,0.11 -0.26,0.26 0,0.14 0.12,0.26 0.26,0.26 0.14,0 0.26,-0.12 0.26,-0.26z"/>
    <path class="fil0" d="M5.16 14.7c0,-0.14 -0.12,-0.26 -0.26,-0.26 -0.14,0 -0.26,0.12 -0.26,0.26 0,0.15 0.12,0.26 0.26,0.26 0.14,0 0.26,-0.11 0.26,-0.26z"/>
    <path class="fil0" d="M6.89 14.7c0,-0.14 -0.12,-0.26 -0.26,-0.26 -0.14,0 -0.26,0.12 -0.26,0.26 0,0.15 0.12,0.26 0.26,0.26 0.14,0 0.26,-0.11 0.26,-0.26z"/>
    <path class="fil0" d="M8.04 14.7c0,-0.14 -0.11,-0.26 -0.26,-0.26 -0.14,0 -0.26,0.12 -0.26,0.26 0,0.15 0.12,0.26 0.26,0.26 0.15,0 0.26,-0.11 0.26,-0.26z"/>
    <path class="fil0" d="M8.62 14.7c0,-0.14 -0.12,-0.26 -0.26,-0.26 -0.14,0 -0.26,0.12 -0.26,0.26 0,0.15 0.12,0.26 0.26,0.26 0.14,0 0.26,-0.11 0.26,-0.26z"/>
    <path class="fil0" d="M9.2 14.7c0,-0.14 -0.12,-0.26 -0.26,-0.26 -0.15,0 -0.26,0.12 -0.26,0.26 0,0.15 0.11,0.26 0.26,0.26 0.14,0 0.26,-0.11 0.26,-0.26z"/>
    <path class="fil0" d="M11.5 14.7c0,-0.14 -0.11,-0.26 -0.26,-0.26 -0.14,0 -0.26,0.12 -0.26,0.26 0,0.15 0.12,0.26 0.26,0.26 0.15,0 0.26,-0.11 0.26,-0.26z"/>
    <path class="fil0" d="M12.08 14.7c0,-0.14 -0.12,-0.26 -0.26,-0.26 -0.14,0 -0.26,0.12 -0.26,0.26 0,0.15 0.12,0.26 0.26,0.26 0.14,0 0.26,-0.11 0.26,-0.26z"/>
    <path class="fil0" d="M12.66 14.7c0,-0.14 -0.12,-0.26 -0.26,-0.26 -0.15,0 -0.26,0.12 -0.26,0.26 0,0.15 0.11,0.26 0.26,0.26 0.14,0 0.26,-0.11 0.26,-0.26z"/>
    <path class="fil0" d="M13.81 14.7c0,-0.14 -0.12,-0.26 -0.26,-0.26 -0.14,0 -0.26,0.12 -0.26,0.26 0,0.15 0.12,0.26 0.26,0.26 0.14,0 0.26,-0.11 0.26,-0.26z"/>
    <path class="fil0" d="M14.96 14.7c0,-0.14 -0.11,-0.26 -0.26,-0.26 -0.14,0 -0.26,0.12 -0.26,0.26 0,0.15 0.12,0.26 0.26,0.26 0.15,0 0.26,-0.11 0.26,-0.26z"/>
    <path class="fil0" d="M15.54 14.7c0,-0.14 -0.12,-0.26 -0.26,-0.26 -0.14,0 -0.26,0.12 -0.26,0.26 0,0.15 0.12,0.26 0.26,0.26 0.14,0 0.26,-0.11 0.26,-0.26z"/>
    <path class="fil0" d="M5.16 15.28c0,-0.14 -0.12,-0.26 -0.26,-0.26 -0.14,0 -0.26,0.12 -0.26,0.26 0,0.14 0.12,0.26 0.26,0.26 0.14,0 0.26,-0.12 0.26,-0.26z"/>
    <path class="fil0" d="M6.31 15.28c0,-0.14 -0.11,-0.26 -0.26,-0.26 -0.14,0 -0.26,0.12 -0.26,0.26 0,0.14 0.12,0.26 0.26,0.26 0.15,0 0.26,-0.12 0.26,-0.26z"/>
    <path class="fil0" d="M7.47 15.28c0,-0.14 -0.12,-0.26 -0.26,-0.26 -0.15,0 -0.26,0.12 -0.26,0.26 0,0.14 0.11,0.26 0.26,0.26 0.14,0 0.26,-0.12 0.26,-0.26z"/>
    <path class="fil0" d="M8.04 15.28c0,-0.14 -0.11,-0.26 -0.26,-0.26 -0.14,0 -0.26,0.12 -0.26,0.26 0,0.14 0.12,0.26 0.26,0.26 0.15,0 0.26,-0.12 0.26,-0.26z"/>
    <path class="fil0" d="M9.2 15.28c0,-0.14 -0.12,-0.26 -0.26,-0.26 -0.15,0 -0.26,0.12 -0.26,0.26 0,0.14 0.11,0.26 0.26,0.26 0.14,0 0.26,-0.12 0.26,-0.26z"/>
    <path class="fil0" d="M9.77 15.28c0,-0.14 -0.11,-0.26 -0.26,-0.26 -0.14,0 -0.26,0.12 -0.26,0.26 0,0.14 0.12,0.26 0.26,0.26 0.15,0 0.26,-0.12 0.26,-0.26z"/>
    <path class="fil0" d="M10.35 15.28c0,-0.14 -0.12,-0.26 -0.26,-0.26 -0.14,0 -0.26,0.12 -0.26,0.26 0,0.14 0.12,0.26 0.26,0.26 0.14,0 0.26,-0.12 0.26,-0.26z"/>
    <path class="fil0" d="M10.93 15.28c0,-0.14 -0.12,-0.26 -0.26,-0.26 -0.15,0 -0.26,0.12 -0.26,0.26 0,0.14 0.11,0.26 0.26,0.26 0.14,0 0.26,-0.12 0.26,-0.26z"/>
    <path class="fil0" d="M11.5 15.28c0,-0.14 -0.11,-0.26 -0.26,-0.26 -0.14,0 -0.26,0.12 -0.26,0.26 0,0.14 0.12,0.26 0.26,0.26 0.15,0 0.26,-0.12 0.26,-0.26z"/>
    <path class="fil0" d="M12.08 15.28c0,-0.14 -0.12,-0.26 -0.26,-0.26 -0.14,0 -0.26,0.12 -0.26,0.26 0,0.14 0.12,0.26 0.26,0.26 0.14,0 0.26,-0.12 0.26,-0.26z"/>
    <path class="fil0" d="M12.66 15.28c0,-0.14 -0.12,-0.26 -0.26,-0.26 -0.15,0 -0.26,0.12 -0.26,0.26 0,0.14 0.11,0.26 0.26,0.26 0.14,0 0.26,-0.12 0.26,-0.26z"/>
    <path class="fil0" d="M13.23 15.28c0,-0.14 -0.11,-0.26 -0.26,-0.26 -0.14,0 -0.26,0.12 -0.26,0.26 0,0.14 0.12,0.26 0.26,0.26 0.15,0 0.26,-0.12 0.26,-0.26z"/>
    <path class="fil0" d="M13.81 15.28c0,-0.14 -0.12,-0.26 -0.26,-0.26 -0.14,0 -0.26,0.12 -0.26,0.26 0,0.14 0.12,0.26 0.26,0.26 0.14,0 0.26,-0.12 0.26,-0.26z"/>
    <path class="fil0" d="M14.39 15.28c0,-0.14 -0.12,-0.26 -0.26,-0.26 -0.15,0 -0.26,0.12 -0.26,0.26 0,0.14 0.11,0.26 0.26,0.26 0.14,0 0.26,-0.12 0.26,-0.26z"/>
    <path class="fil0" d="M14.96 15.28c0,-0.14 -0.11,-0.26 -0.26,-0.26 -0.14,0 -0.26,0.12 -0.26,0.26 0,0.14 0.12,0.26 0.26,0.26 0.15,0 0.26,-0.12 0.26,-0.26z"/>
    <path class="fil0" d="M15.54 15.28c0,-0.14 -0.12,-0.26 -0.26,-0.26 -0.14,0 -0.26,0.12 -0.26,0.26 0,0.14 0.12,0.26 0.26,0.26 0.14,0 0.26,-0.12 0.26,-0.26z"/>
    <path class="fil0" d="M16.12 15.28c0,-0.14 -0.12,-0.26 -0.26,-0.26 -0.15,0 -0.26,0.12 -0.26,0.26 0,0.14 0.11,0.26 0.26,0.26 0.14,0 0.26,-0.12 0.26,-0.26z"/>
    <path class="fil0" d="M6.31 15.86c0,-0.15 -0.11,-0.26 -0.26,-0.26 -0.14,0 -0.26,0.11 -0.26,0.26 0,0.14 0.12,0.26 0.26,0.26 0.15,0 0.26,-0.12 0.26,-0.26z"/>
    <path class="fil0" d="M6.89 15.86c0,-0.15 -0.12,-0.26 -0.26,-0.26 -0.14,0 -0.26,0.11 -0.26,0.26 0,0.14 0.12,0.26 0.26,0.26 0.14,0 0.26,-0.12 0.26,-0.26z"/>
    <path class="fil0" d="M7.47 15.86c0,-0.15 -0.12,-0.26 -0.26,-0.26 -0.15,0 -0.26,0.11 -0.26,0.26 0,0.14 0.11,0.26 0.26,0.26 0.14,0 0.26,-0.12 0.26,-0.26z"/>
    <path class="fil0" d="M8.04 15.86c0,-0.15 -0.11,-0.26 -0.26,-0.26 -0.14,0 -0.26,0.11 -0.26,0.26 0,0.14 0.12,0.26 0.26,0.26 0.15,0 0.26,-0.12 0.26,-0.26z"/>
    <path class="fil0" d="M8.62 15.86c0,-0.15 -0.12,-0.26 -0.26,-0.26 -0.14,0 -0.26,0.11 -0.26,0.26 0,0.14 0.12,0.26 0.26,0.26 0.14,0 0.26,-0.12 0.26,-0.26z"/>
    <path class="fil0" d="M10.93 15.86c0,-0.15 -0.12,-0.26 -0.26,-0.26 -0.15,0 -0.26,0.11 -0.26,0.26 0,0.14 0.11,0.26 0.26,0.26 0.14,0 0.26,-0.12 0.26,-0.26z"/>
    <path class="fil0" d="M12.66 15.86c0,-0.15 -0.12,-0.26 -0.26,-0.26 -0.15,0 -0.26,0.11 -0.26,0.26 0,0.14 0.11,0.26 0.26,0.26 0.14,0 0.26,-0.12 0.26,-0.26z"/>
    <path class="fil0" d="M14.39 15.86c0,-0.15 -0.12,-0.26 -0.26,-0.26 -0.15,0 -0.26,0.11 -0.26,0.26 0,0.14 0.11,0.26 0.26,0.26 0.14,0 0.26,-0.12 0.26,-0.26z"/>
    <path class="fil0" d="M14.96 15.86c0,-0.15 -0.11,-0.26 -0.26,-0.26 -0.14,0 -0.26,0.11 -0.26,0.26 0,0.14 0.12,0.26 0.26,0.26 0.15,0 0.26,-0.12 0.26,-0.26z"/>
    <path class="fil0" d="M16.12 15.86c0,-0.15 -0.12,-0.26 -0.26,-0.26 -0.15,0 -0.26,0.11 -0.26,0.26 0,0.14 0.11,0.26 0.26,0.26 0.14,0 0.26,-0.12 0.26,-0.26z"/>
    <path class="fil0" d="M6.31 16.43c0,-0.14 -0.11,-0.26 -0.26,-0.26 -0.14,0 -0.26,0.12 -0.26,0.26 0,0.15 0.12,0.26 0.26,0.26 0.15,0 0.26,-0.11 0.26,-0.26z"/>
    <path class="fil0" d="M6.89 16.43c0,-0.14 -0.12,-0.26 -0.26,-0.26 -0.14,0 -0.26,0.12 -0.26,0.26 0,0.15 0.12,0.26 0.26,0.26 0.14,0 0.26,-0.11 0.26,-0.26z"/>
    <path class="fil0" d="M7.47 16.43c0,-0.14 -0.12,-0.26 -0.26,-0.26 -0.15,0 -0.26,0.12 -0.26,0.26 0,0.15 0.11,0.26 0.26,0.26 0.14,0 0.26,-0.11 0.26,-0.26z"/>
    <path class="fil0" d="M8.04 16.43c0,-0.14 -0.11,-0.26 -0.26,-0.26 -0.14,0 -0.26,0.12 -0.26,0.26 0,0.15 0.12,0.26 0.26,0.26 0.15,0 0.26,-0.11 0.26,-0.26z"/>
    <path class="fil0" d="M9.77 16.43c0,-0.14 -0.11,-0.26 -0.26,-0.26 -0.14,0 -0.26,0.12 -0.26,0.26 0,0.15 0.12,0.26 0.26,0.26 0.15,0 0.26,-0.11 0.26,-0.26z"/>
    <path class="fil0" d="M12.66 16.43c0,-0.14 -0.12,-0.26 -0.26,-0.26 -0.15,0 -0.26,0.12 -0.26,0.26 0,0.15 0.11,0.26 0.26,0.26 0.14,0 0.26,-0.11 0.26,-0.26z"/>
    <path class="fil0" d="M13.23 16.43c0,-0.14 -0.11,-0.26 -0.26,-0.26 -0.14,0 -0.26,0.12 -0.26,0.26 0,0.15 0.12,0.26 0.26,0.26 0.15,0 0.26,-0.11 0.26,-0.26z"/>
    <path class="fil0" d="M14.39 16.43c0,-0.14 -0.12,-0.26 -0.26,-0.26 -0.15,0 -0.26,0.12 -0.26,0.26 0,0.15 0.11,0.26 0.26,0.26 0.14,0 0.26,-0.11 0.26,-0.26z"/>
    <path class="fil0" d="M14.96 16.43c0,-0.14 -0.11,-0.26 -0.26,-0.26 -0.14,0 -0.26,0.12 -0.26,0.26 0,0.15 0.12,0.26 0.26,0.26 0.15,0 0.26,-0.11 0.26,-0.26z"/>
    <path class="fil0" d="M15.54 16.43c0,-0.14 -0.12,-0.26 -0.26,-0.26 -0.14,0 -0.26,0.12 -0.26,0.26 0,0.15 0.12,0.26 0.26,0.26 0.14,0 0.26,-0.11 0.26,-0.26z"/>
   </g>
   <g>
    <path class="fil0" d="M0 0l4.04 0 0 4.04 -4.04 0 0 -4.04zm1.15 0.58l-0.57 0 0 2.88 2.88 0 0 -2.88 -2.31 0zm11.54 -0.58l4.03 0 0 4.04 -4.03 0 0 -4.04zm1.15 0.58l-0.58 0 0 2.88 2.88 0 0 -2.88 -2.3 0zm-2.31 10.95l2.88 0 0 2.88 -2.88 0 0 -2.88zm1.16 0.58l-0.58 0 0 1.73 1.73 0 0 -1.73 -1.15 0zm-12.69 0.58l4.04 0 0 4.03 -4.04 0 0 -4.03zm1.15 0.57l-0.57 0 0 2.88 2.88 0 0 -2.88 -2.31 0z"/>
   </g>
   <g>
    <path class="fil0" d="M1.15 1.15l1.73 0 0 1.73 -1.73 0 0 -1.73zm12.69 0l1.73 0 0 1.73 -1.73 0 0 -1.73zm-1.15 11.54l0.57 0 0 0.57 -0.57 0 0 -0.57zm-11.54 1.15l1.73 0 0 1.73 -1.73 0 0 -1.73z"/>
   </g>
  </g>
 </g>
</svg>
