<?xml version="1.0" encoding="UTF-8"?>
<!DOCTYPE svg PUBLIC "-//W3C//DTD SVG 1.1//EN" "http://www.w3.org/Graphics/SVG/1.1/DTD/svg11.dtd">
<!-- Creator: CorelDRAW 2021 (64-Bit) -->
<svg xmlns="http://www.w3.org/2000/svg" xml:space="preserve" width="500px" height="500px" version="1.1" style="shape-rendering:geometricPrecision; text-rendering:geometricPrecision; image-rendering:optimizeQuality; fill-rule:evenodd; clip-rule:evenodd"
viewBox="0 0 22.64 22.64"
 xmlns:xlink="http://www.w3.org/1999/xlink"
 xmlns:xodm="http://www.corel.com/coreldraw/odm/2003">
 <defs>
  <style type="text/css">
   <![CDATA[
    .fil0 {fill:black}
   ]]>
  </style>
 </defs>
 <g id="Слой_x0020_1">
  <metadata id="CorelCorpID_0Corel-Layer"/>
  <g id="_2474525322208">
   <g>
    <path class="fil0" d="M6.99 0.39c0,-0.19 -0.16,-0.35 -0.35,-0.35 -0.2,0 -0.36,0.16 -0.36,0.35 0,0.19 0.16,0.35 0.36,0.35 0.19,0 0.35,-0.16 0.35,-0.35z"/>
    <path class="fil0" d="M7.77 0.39c0,-0.19 -0.16,-0.35 -0.35,-0.35 -0.2,0 -0.35,0.16 -0.35,0.35 0,0.19 0.15,0.35 0.35,0.35 0.19,0 0.35,-0.16 0.35,-0.35z"/>
    <path class="fil0" d="M8.55 0.39c0,-0.19 -0.16,-0.35 -0.35,-0.35 -0.2,0 -0.35,0.16 -0.35,0.35 0,0.19 0.15,0.35 0.35,0.35 0.19,0 0.35,-0.16 0.35,-0.35z"/>
    <path class="fil0" d="M12.45 0.39c0,-0.19 -0.16,-0.35 -0.35,-0.35 -0.19,0 -0.35,0.16 -0.35,0.35 0,0.19 0.16,0.35 0.35,0.35 0.19,0 0.35,-0.16 0.35,-0.35z"/>
    <path class="fil0" d="M13.23 0.39c0,-0.19 -0.16,-0.35 -0.35,-0.35 -0.19,0 -0.35,0.16 -0.35,0.35 0,0.19 0.16,0.35 0.35,0.35 0.19,0 0.35,-0.16 0.35,-0.35z"/>
    <path class="fil0" d="M14.01 0.39c0,-0.19 -0.15,-0.35 -0.35,-0.35 -0.19,0 -0.35,0.16 -0.35,0.35 0,0.19 0.16,0.35 0.35,0.35 0.2,0 0.35,-0.16 0.35,-0.35z"/>
    <path class="fil0" d="M16.35 0.39c0,-0.19 -0.15,-0.35 -0.35,-0.35 -0.19,0 -0.35,0.16 -0.35,0.35 0,0.19 0.16,0.35 0.35,0.35 0.2,0 0.35,-0.16 0.35,-0.35z"/>
    <path class="fil0" d="M7.77 1.17c0,-0.19 -0.16,-0.35 -0.35,-0.35 -0.2,0 -0.35,0.16 -0.35,0.35 0,0.2 0.15,0.35 0.35,0.35 0.19,0 0.35,-0.15 0.35,-0.35z"/>
    <path class="fil0" d="M9.33 1.17c0,-0.19 -0.16,-0.35 -0.35,-0.35 -0.2,0 -0.35,0.16 -0.35,0.35 0,0.2 0.15,0.35 0.35,0.35 0.19,0 0.35,-0.15 0.35,-0.35z"/>
    <path class="fil0" d="M10.11 1.17c0,-0.19 -0.16,-0.35 -0.35,-0.35 -0.2,0 -0.35,0.16 -0.35,0.35 0,0.2 0.15,0.35 0.35,0.35 0.19,0 0.35,-0.15 0.35,-0.35z"/>
    <path class="fil0" d="M12.45 1.17c0,-0.19 -0.16,-0.35 -0.35,-0.35 -0.19,0 -0.35,0.16 -0.35,0.35 0,0.2 0.16,0.35 0.35,0.35 0.19,0 0.35,-0.15 0.35,-0.35z"/>
    <path class="fil0" d="M13.23 1.17c0,-0.19 -0.16,-0.35 -0.35,-0.35 -0.19,0 -0.35,0.16 -0.35,0.35 0,0.2 0.16,0.35 0.35,0.35 0.19,0 0.35,-0.15 0.35,-0.35z"/>
    <path class="fil0" d="M14.79 1.17c0,-0.19 -0.15,-0.35 -0.35,-0.35 -0.19,0 -0.35,0.16 -0.35,0.35 0,0.2 0.16,0.35 0.35,0.35 0.2,0 0.35,-0.15 0.35,-0.35z"/>
    <path class="fil0" d="M15.57 1.17c0,-0.19 -0.15,-0.35 -0.35,-0.35 -0.19,0 -0.35,0.16 -0.35,0.35 0,0.2 0.16,0.35 0.35,0.35 0.2,0 0.35,-0.15 0.35,-0.35z"/>
    <path class="fil0" d="M16.35 1.17c0,-0.19 -0.15,-0.35 -0.35,-0.35 -0.19,0 -0.35,0.16 -0.35,0.35 0,0.2 0.16,0.35 0.35,0.35 0.2,0 0.35,-0.15 0.35,-0.35z"/>
    <path class="fil0" d="M7.77 1.95c0,-0.19 -0.16,-0.35 -0.35,-0.35 -0.2,0 -0.35,0.16 -0.35,0.35 0,0.2 0.15,0.35 0.35,0.35 0.19,0 0.35,-0.15 0.35,-0.35z"/>
    <path class="fil0" d="M8.55 1.95c0,-0.19 -0.16,-0.35 -0.35,-0.35 -0.2,0 -0.35,0.16 -0.35,0.35 0,0.2 0.15,0.35 0.35,0.35 0.19,0 0.35,-0.15 0.35,-0.35z"/>
    <path class="fil0" d="M10.89 1.95c0,-0.19 -0.16,-0.35 -0.35,-0.35 -0.2,0 -0.35,0.16 -0.35,0.35 0,0.2 0.15,0.35 0.35,0.35 0.19,0 0.35,-0.15 0.35,-0.35z"/>
    <path class="fil0" d="M13.23 1.95c0,-0.19 -0.16,-0.35 -0.35,-0.35 -0.19,0 -0.35,0.16 -0.35,0.35 0,0.2 0.16,0.35 0.35,0.35 0.19,0 0.35,-0.15 0.35,-0.35z"/>
    <path class="fil0" d="M14.79 1.95c0,-0.19 -0.15,-0.35 -0.35,-0.35 -0.19,0 -0.35,0.16 -0.35,0.35 0,0.2 0.16,0.35 0.35,0.35 0.2,0 0.35,-0.15 0.35,-0.35z"/>
    <path class="fil0" d="M16.35 1.95c0,-0.19 -0.15,-0.35 -0.35,-0.35 -0.19,0 -0.35,0.16 -0.35,0.35 0,0.2 0.16,0.35 0.35,0.35 0.2,0 0.35,-0.15 0.35,-0.35z"/>
    <path class="fil0" d="M6.99 2.73c0,-0.19 -0.16,-0.35 -0.35,-0.35 -0.2,0 -0.36,0.16 -0.36,0.35 0,0.2 0.16,0.35 0.36,0.35 0.19,0 0.35,-0.15 0.35,-0.35z"/>
    <path class="fil0" d="M8.55 2.73c0,-0.19 -0.16,-0.35 -0.35,-0.35 -0.2,0 -0.35,0.16 -0.35,0.35 0,0.2 0.15,0.35 0.35,0.35 0.19,0 0.35,-0.15 0.35,-0.35z"/>
    <path class="fil0" d="M10.11 2.73c0,-0.19 -0.16,-0.35 -0.35,-0.35 -0.2,0 -0.35,0.16 -0.35,0.35 0,0.2 0.15,0.35 0.35,0.35 0.19,0 0.35,-0.15 0.35,-0.35z"/>
    <path class="fil0" d="M11.67 2.73c0,-0.19 -0.16,-0.35 -0.35,-0.35 -0.19,0 -0.35,0.16 -0.35,0.35 0,0.2 0.16,0.35 0.35,0.35 0.19,0 0.35,-0.15 0.35,-0.35z"/>
    <path class="fil0" d="M12.45 2.73c0,-0.19 -0.16,-0.35 -0.35,-0.35 -0.19,0 -0.35,0.16 -0.35,0.35 0,0.2 0.16,0.35 0.35,0.35 0.19,0 0.35,-0.15 0.35,-0.35z"/>
    <path class="fil0" d="M13.23 2.73c0,-0.19 -0.16,-0.35 -0.35,-0.35 -0.19,0 -0.35,0.16 -0.35,0.35 0,0.2 0.16,0.35 0.35,0.35 0.19,0 0.35,-0.15 0.35,-0.35z"/>
    <path class="fil0" d="M14.79 2.73c0,-0.19 -0.15,-0.35 -0.35,-0.35 -0.19,0 -0.35,0.16 -0.35,0.35 0,0.2 0.16,0.35 0.35,0.35 0.2,0 0.35,-0.15 0.35,-0.35z"/>
    <path class="fil0" d="M15.57 2.73c0,-0.19 -0.15,-0.35 -0.35,-0.35 -0.19,0 -0.35,0.16 -0.35,0.35 0,0.2 0.16,0.35 0.35,0.35 0.2,0 0.35,-0.15 0.35,-0.35z"/>
    <path class="fil0" d="M8.55 3.51c0,-0.19 -0.16,-0.35 -0.35,-0.35 -0.2,0 -0.35,0.16 -0.35,0.35 0,0.2 0.15,0.35 0.35,0.35 0.19,0 0.35,-0.15 0.35,-0.35z"/>
    <path class="fil0" d="M9.33 3.51c0,-0.19 -0.16,-0.35 -0.35,-0.35 -0.2,0 -0.35,0.16 -0.35,0.35 0,0.2 0.15,0.35 0.35,0.35 0.19,0 0.35,-0.15 0.35,-0.35z"/>
    <path class="fil0" d="M11.67 3.51c0,-0.19 -0.16,-0.35 -0.35,-0.35 -0.19,0 -0.35,0.16 -0.35,0.35 0,0.2 0.16,0.35 0.35,0.35 0.19,0 0.35,-0.15 0.35,-0.35z"/>
    <path class="fil0" d="M14.01 3.51c0,-0.19 -0.15,-0.35 -0.35,-0.35 -0.19,0 -0.35,0.16 -0.35,0.35 0,0.2 0.16,0.35 0.35,0.35 0.2,0 0.35,-0.15 0.35,-0.35z"/>
    <path class="fil0" d="M15.57 3.51c0,-0.19 -0.15,-0.35 -0.35,-0.35 -0.19,0 -0.35,0.16 -0.35,0.35 0,0.2 0.16,0.35 0.35,0.35 0.2,0 0.35,-0.15 0.35,-0.35z"/>
    <path class="fil0" d="M7.77 4.29c0,-0.19 -0.16,-0.35 -0.35,-0.35 -0.2,0 -0.35,0.16 -0.35,0.35 0,0.2 0.15,0.35 0.35,0.35 0.19,0 0.35,-0.15 0.35,-0.35z"/>
    <path class="fil0" d="M8.55 4.29c0,-0.19 -0.16,-0.35 -0.35,-0.35 -0.2,0 -0.35,0.16 -0.35,0.35 0,0.2 0.15,0.35 0.35,0.35 0.19,0 0.35,-0.15 0.35,-0.35z"/>
    <path class="fil0" d="M9.33 4.29c0,-0.19 -0.16,-0.35 -0.35,-0.35 -0.2,0 -0.35,0.16 -0.35,0.35 0,0.2 0.15,0.35 0.35,0.35 0.19,0 0.35,-0.15 0.35,-0.35z"/>
    <path class="fil0" d="M10.11 4.29c0,-0.19 -0.16,-0.35 -0.35,-0.35 -0.2,0 -0.35,0.16 -0.35,0.35 0,0.2 0.15,0.35 0.35,0.35 0.19,0 0.35,-0.15 0.35,-0.35z"/>
    <path class="fil0" d="M11.67 4.29c0,-0.19 -0.16,-0.35 -0.35,-0.35 -0.19,0 -0.35,0.16 -0.35,0.35 0,0.2 0.16,0.35 0.35,0.35 0.19,0 0.35,-0.15 0.35,-0.35z"/>
    <path class="fil0" d="M13.23 4.29c0,-0.19 -0.16,-0.35 -0.35,-0.35 -0.19,0 -0.35,0.16 -0.35,0.35 0,0.2 0.16,0.35 0.35,0.35 0.19,0 0.35,-0.15 0.35,-0.35z"/>
    <path class="fil0" d="M14.79 4.29c0,-0.19 -0.15,-0.35 -0.35,-0.35 -0.19,0 -0.35,0.16 -0.35,0.35 0,0.2 0.16,0.35 0.35,0.35 0.2,0 0.35,-0.15 0.35,-0.35z"/>
    <path class="fil0" d="M15.57 4.29c0,-0.19 -0.15,-0.35 -0.35,-0.35 -0.19,0 -0.35,0.16 -0.35,0.35 0,0.2 0.16,0.35 0.35,0.35 0.2,0 0.35,-0.15 0.35,-0.35z"/>
    <path class="fil0" d="M6.99 5.07c0,-0.19 -0.16,-0.35 -0.35,-0.35 -0.2,0 -0.36,0.16 -0.36,0.35 0,0.2 0.16,0.36 0.36,0.36 0.19,0 0.35,-0.16 0.35,-0.36z"/>
    <path class="fil0" d="M8.55 5.07c0,-0.19 -0.16,-0.35 -0.35,-0.35 -0.2,0 -0.35,0.16 -0.35,0.35 0,0.2 0.15,0.36 0.35,0.36 0.19,0 0.35,-0.16 0.35,-0.36z"/>
    <path class="fil0" d="M10.11 5.07c0,-0.19 -0.16,-0.35 -0.35,-0.35 -0.2,0 -0.35,0.16 -0.35,0.35 0,0.2 0.15,0.36 0.35,0.36 0.19,0 0.35,-0.16 0.35,-0.36z"/>
    <path class="fil0" d="M11.67 5.07c0,-0.19 -0.16,-0.35 -0.35,-0.35 -0.19,0 -0.35,0.16 -0.35,0.35 0,0.2 0.16,0.36 0.35,0.36 0.19,0 0.35,-0.16 0.35,-0.36z"/>
    <path class="fil0" d="M13.23 5.07c0,-0.19 -0.16,-0.35 -0.35,-0.35 -0.19,0 -0.35,0.16 -0.35,0.35 0,0.2 0.16,0.36 0.35,0.36 0.19,0 0.35,-0.16 0.35,-0.36z"/>
    <path class="fil0" d="M14.79 5.07c0,-0.19 -0.15,-0.35 -0.35,-0.35 -0.19,0 -0.35,0.16 -0.35,0.35 0,0.2 0.16,0.36 0.35,0.36 0.2,0 0.35,-0.16 0.35,-0.36z"/>
    <path class="fil0" d="M16.35 5.07c0,-0.19 -0.15,-0.35 -0.35,-0.35 -0.19,0 -0.35,0.16 -0.35,0.35 0,0.2 0.16,0.36 0.35,0.36 0.2,0 0.35,-0.16 0.35,-0.36z"/>
    <path class="fil0" d="M8.55 5.86c0,-0.2 -0.16,-0.36 -0.35,-0.36 -0.2,0 -0.35,0.16 -0.35,0.36 0,0.19 0.15,0.35 0.35,0.35 0.19,0 0.35,-0.16 0.35,-0.35z"/>
    <path class="fil0" d="M10.11 5.86c0,-0.2 -0.16,-0.36 -0.35,-0.36 -0.2,0 -0.35,0.16 -0.35,0.36 0,0.19 0.15,0.35 0.35,0.35 0.19,0 0.35,-0.16 0.35,-0.35z"/>
    <path class="fil0" d="M11.67 5.86c0,-0.2 -0.16,-0.36 -0.35,-0.36 -0.19,0 -0.35,0.16 -0.35,0.36 0,0.19 0.16,0.35 0.35,0.35 0.19,0 0.35,-0.16 0.35,-0.35z"/>
    <path class="fil0" d="M13.23 5.86c0,-0.2 -0.16,-0.36 -0.35,-0.36 -0.19,0 -0.35,0.16 -0.35,0.36 0,0.19 0.16,0.35 0.35,0.35 0.19,0 0.35,-0.16 0.35,-0.35z"/>
    <path class="fil0" d="M2.3 6.64c0,-0.2 -0.15,-0.36 -0.35,-0.36 -0.19,0 -0.35,0.16 -0.35,0.36 0,0.19 0.16,0.35 0.35,0.35 0.2,0 0.35,-0.16 0.35,-0.35z"/>
    <path class="fil0" d="M3.86 6.64c0,-0.2 -0.15,-0.36 -0.35,-0.36 -0.19,0 -0.35,0.16 -0.35,0.36 0,0.19 0.16,0.35 0.35,0.35 0.2,0 0.35,-0.16 0.35,-0.35z"/>
    <path class="fil0" d="M4.64 6.64c0,-0.2 -0.15,-0.36 -0.35,-0.36 -0.19,0 -0.35,0.16 -0.35,0.36 0,0.19 0.16,0.35 0.35,0.35 0.2,0 0.35,-0.16 0.35,-0.35z"/>
    <path class="fil0" d="M5.43 6.64c0,-0.2 -0.16,-0.36 -0.36,-0.36 -0.19,0 -0.35,0.16 -0.35,0.36 0,0.19 0.16,0.35 0.35,0.35 0.2,0 0.36,-0.16 0.36,-0.35z"/>
    <path class="fil0" d="M6.99 6.64c0,-0.2 -0.16,-0.36 -0.35,-0.36 -0.2,0 -0.36,0.16 -0.36,0.36 0,0.19 0.16,0.35 0.36,0.35 0.19,0 0.35,-0.16 0.35,-0.35z"/>
    <path class="fil0" d="M8.55 6.64c0,-0.2 -0.16,-0.36 -0.35,-0.36 -0.2,0 -0.35,0.16 -0.35,0.36 0,0.19 0.15,0.35 0.35,0.35 0.19,0 0.35,-0.16 0.35,-0.35z"/>
    <path class="fil0" d="M11.67 6.64c0,-0.2 -0.16,-0.36 -0.35,-0.36 -0.19,0 -0.35,0.16 -0.35,0.36 0,0.19 0.16,0.35 0.35,0.35 0.19,0 0.35,-0.16 0.35,-0.35z"/>
    <path class="fil0" d="M12.45 6.64c0,-0.2 -0.16,-0.36 -0.35,-0.36 -0.19,0 -0.35,0.16 -0.35,0.36 0,0.19 0.16,0.35 0.35,0.35 0.19,0 0.35,-0.16 0.35,-0.35z"/>
    <path class="fil0" d="M13.23 6.64c0,-0.2 -0.16,-0.36 -0.35,-0.36 -0.19,0 -0.35,0.16 -0.35,0.36 0,0.19 0.16,0.35 0.35,0.35 0.19,0 0.35,-0.16 0.35,-0.35z"/>
    <path class="fil0" d="M16.35 6.64c0,-0.2 -0.15,-0.36 -0.35,-0.36 -0.19,0 -0.35,0.16 -0.35,0.36 0,0.19 0.16,0.35 0.35,0.35 0.2,0 0.35,-0.16 0.35,-0.35z"/>
    <path class="fil0" d="M17.14 6.64c0,-0.2 -0.16,-0.36 -0.36,-0.36 -0.19,0 -0.35,0.16 -0.35,0.36 0,0.19 0.16,0.35 0.35,0.35 0.2,0 0.36,-0.16 0.36,-0.35z"/>
    <path class="fil0" d="M20.26 6.64c0,-0.2 -0.16,-0.36 -0.35,-0.36 -0.2,0 -0.35,0.16 -0.35,0.36 0,0.19 0.15,0.35 0.35,0.35 0.19,0 0.35,-0.16 0.35,-0.35z"/>
    <path class="fil0" d="M22.6 6.64c0,-0.2 -0.16,-0.36 -0.35,-0.36 -0.2,0 -0.35,0.16 -0.35,0.36 0,0.19 0.15,0.35 0.35,0.35 0.19,0 0.35,-0.16 0.35,-0.35z"/>
    <path class="fil0" d="M0.74 7.42c0,-0.2 -0.16,-0.35 -0.35,-0.35 -0.19,0 -0.35,0.15 -0.35,0.35 0,0.19 0.16,0.35 0.35,0.35 0.19,0 0.35,-0.16 0.35,-0.35z"/>
    <path class="fil0" d="M1.52 7.42c0,-0.2 -0.16,-0.35 -0.35,-0.35 -0.19,0 -0.35,0.15 -0.35,0.35 0,0.19 0.16,0.35 0.35,0.35 0.19,0 0.35,-0.16 0.35,-0.35z"/>
    <path class="fil0" d="M2.3 7.42c0,-0.2 -0.15,-0.35 -0.35,-0.35 -0.19,0 -0.35,0.15 -0.35,0.35 0,0.19 0.16,0.35 0.35,0.35 0.2,0 0.35,-0.16 0.35,-0.35z"/>
    <path class="fil0" d="M3.08 7.42c0,-0.2 -0.15,-0.35 -0.35,-0.35 -0.19,0 -0.35,0.15 -0.35,0.35 0,0.19 0.16,0.35 0.35,0.35 0.2,0 0.35,-0.16 0.35,-0.35z"/>
    <path class="fil0" d="M9.33 7.42c0,-0.2 -0.16,-0.35 -0.35,-0.35 -0.2,0 -0.35,0.15 -0.35,0.35 0,0.19 0.15,0.35 0.35,0.35 0.19,0 0.35,-0.16 0.35,-0.35z"/>
    <path class="fil0" d="M10.11 7.42c0,-0.2 -0.16,-0.35 -0.35,-0.35 -0.2,0 -0.35,0.15 -0.35,0.35 0,0.19 0.15,0.35 0.35,0.35 0.19,0 0.35,-0.16 0.35,-0.35z"/>
    <path class="fil0" d="M10.89 7.42c0,-0.2 -0.16,-0.35 -0.35,-0.35 -0.2,0 -0.35,0.15 -0.35,0.35 0,0.19 0.15,0.35 0.35,0.35 0.19,0 0.35,-0.16 0.35,-0.35z"/>
    <path class="fil0" d="M15.57 7.42c0,-0.2 -0.15,-0.35 -0.35,-0.35 -0.19,0 -0.35,0.15 -0.35,0.35 0,0.19 0.16,0.35 0.35,0.35 0.2,0 0.35,-0.16 0.35,-0.35z"/>
    <path class="fil0" d="M16.35 7.42c0,-0.2 -0.15,-0.35 -0.35,-0.35 -0.19,0 -0.35,0.15 -0.35,0.35 0,0.19 0.16,0.35 0.35,0.35 0.2,0 0.35,-0.16 0.35,-0.35z"/>
    <path class="fil0" d="M17.92 7.42c0,-0.2 -0.16,-0.35 -0.36,-0.35 -0.19,0 -0.35,0.15 -0.35,0.35 0,0.19 0.16,0.35 0.35,0.35 0.2,0 0.36,-0.16 0.36,-0.35z"/>
    <path class="fil0" d="M18.7 7.42c0,-0.2 -0.16,-0.35 -0.35,-0.35 -0.2,0 -0.36,0.15 -0.36,0.35 0,0.19 0.16,0.35 0.36,0.35 0.19,0 0.35,-0.16 0.35,-0.35z"/>
    <path class="fil0" d="M20.26 7.42c0,-0.2 -0.16,-0.35 -0.35,-0.35 -0.2,0 -0.35,0.15 -0.35,0.35 0,0.19 0.15,0.35 0.35,0.35 0.19,0 0.35,-0.16 0.35,-0.35z"/>
    <path class="fil0" d="M22.6 7.42c0,-0.2 -0.16,-0.35 -0.35,-0.35 -0.2,0 -0.35,0.15 -0.35,0.35 0,0.19 0.15,0.35 0.35,0.35 0.19,0 0.35,-0.16 0.35,-0.35z"/>
    <path class="fil0" d="M0.74 8.2c0,-0.2 -0.16,-0.35 -0.35,-0.35 -0.19,0 -0.35,0.15 -0.35,0.35 0,0.19 0.16,0.35 0.35,0.35 0.19,0 0.35,-0.16 0.35,-0.35z"/>
    <path class="fil0" d="M1.52 8.2c0,-0.2 -0.16,-0.35 -0.35,-0.35 -0.19,0 -0.35,0.15 -0.35,0.35 0,0.19 0.16,0.35 0.35,0.35 0.19,0 0.35,-0.16 0.35,-0.35z"/>
    <path class="fil0" d="M2.3 8.2c0,-0.2 -0.15,-0.35 -0.35,-0.35 -0.19,0 -0.35,0.15 -0.35,0.35 0,0.19 0.16,0.35 0.35,0.35 0.2,0 0.35,-0.16 0.35,-0.35z"/>
    <path class="fil0" d="M5.43 8.2c0,-0.2 -0.16,-0.35 -0.36,-0.35 -0.19,0 -0.35,0.15 -0.35,0.35 0,0.19 0.16,0.35 0.35,0.35 0.2,0 0.36,-0.16 0.36,-0.35z"/>
    <path class="fil0" d="M6.99 8.2c0,-0.2 -0.16,-0.35 -0.35,-0.35 -0.2,0 -0.36,0.15 -0.36,0.35 0,0.19 0.16,0.35 0.36,0.35 0.19,0 0.35,-0.16 0.35,-0.35z"/>
    <path class="fil0" d="M8.55 8.2c0,-0.2 -0.16,-0.35 -0.35,-0.35 -0.2,0 -0.35,0.15 -0.35,0.35 0,0.19 0.15,0.35 0.35,0.35 0.19,0 0.35,-0.16 0.35,-0.35z"/>
    <path class="fil0" d="M9.33 8.2c0,-0.2 -0.16,-0.35 -0.35,-0.35 -0.2,0 -0.35,0.15 -0.35,0.35 0,0.19 0.15,0.35 0.35,0.35 0.19,0 0.35,-0.16 0.35,-0.35z"/>
    <path class="fil0" d="M10.11 8.2c0,-0.2 -0.16,-0.35 -0.35,-0.35 -0.2,0 -0.35,0.15 -0.35,0.35 0,0.19 0.15,0.35 0.35,0.35 0.19,0 0.35,-0.16 0.35,-0.35z"/>
    <path class="fil0" d="M11.67 8.2c0,-0.2 -0.16,-0.35 -0.35,-0.35 -0.19,0 -0.35,0.15 -0.35,0.35 0,0.19 0.16,0.35 0.35,0.35 0.19,0 0.35,-0.16 0.35,-0.35z"/>
    <path class="fil0" d="M14.01 8.2c0,-0.2 -0.15,-0.35 -0.35,-0.35 -0.19,0 -0.35,0.15 -0.35,0.35 0,0.19 0.16,0.35 0.35,0.35 0.2,0 0.35,-0.16 0.35,-0.35z"/>
    <path class="fil0" d="M15.57 8.2c0,-0.2 -0.15,-0.35 -0.35,-0.35 -0.19,0 -0.35,0.15 -0.35,0.35 0,0.19 0.16,0.35 0.35,0.35 0.2,0 0.35,-0.16 0.35,-0.35z"/>
    <path class="fil0" d="M16.35 8.2c0,-0.2 -0.15,-0.35 -0.35,-0.35 -0.19,0 -0.35,0.15 -0.35,0.35 0,0.19 0.16,0.35 0.35,0.35 0.2,0 0.35,-0.16 0.35,-0.35z"/>
    <path class="fil0" d="M18.7 8.2c0,-0.2 -0.16,-0.35 -0.35,-0.35 -0.2,0 -0.36,0.15 -0.36,0.35 0,0.19 0.16,0.35 0.36,0.35 0.19,0 0.35,-0.16 0.35,-0.35z"/>
    <path class="fil0" d="M20.26 8.2c0,-0.2 -0.16,-0.35 -0.35,-0.35 -0.2,0 -0.35,0.15 -0.35,0.35 0,0.19 0.15,0.35 0.35,0.35 0.19,0 0.35,-0.16 0.35,-0.35z"/>
    <path class="fil0" d="M21.82 8.2c0,-0.2 -0.16,-0.35 -0.35,-0.35 -0.2,0 -0.35,0.15 -0.35,0.35 0,0.19 0.15,0.35 0.35,0.35 0.19,0 0.35,-0.16 0.35,-0.35z"/>
    <path class="fil0" d="M22.6 8.2c0,-0.2 -0.16,-0.35 -0.35,-0.35 -0.2,0 -0.35,0.15 -0.35,0.35 0,0.19 0.15,0.35 0.35,0.35 0.19,0 0.35,-0.16 0.35,-0.35z"/>
    <path class="fil0" d="M0.74 8.98c0,-0.2 -0.16,-0.35 -0.35,-0.35 -0.19,0 -0.35,0.15 -0.35,0.35 0,0.19 0.16,0.35 0.35,0.35 0.19,0 0.35,-0.16 0.35,-0.35z"/>
    <path class="fil0" d="M1.52 8.98c0,-0.2 -0.16,-0.35 -0.35,-0.35 -0.19,0 -0.35,0.15 -0.35,0.35 0,0.19 0.16,0.35 0.35,0.35 0.19,0 0.35,-0.16 0.35,-0.35z"/>
    <path class="fil0" d="M2.3 8.98c0,-0.2 -0.15,-0.35 -0.35,-0.35 -0.19,0 -0.35,0.15 -0.35,0.35 0,0.19 0.16,0.35 0.35,0.35 0.2,0 0.35,-0.16 0.35,-0.35z"/>
    <path class="fil0" d="M3.86 8.98c0,-0.2 -0.15,-0.35 -0.35,-0.35 -0.19,0 -0.35,0.15 -0.35,0.35 0,0.19 0.16,0.35 0.35,0.35 0.2,0 0.35,-0.16 0.35,-0.35z"/>
    <path class="fil0" d="M4.64 8.98c0,-0.2 -0.15,-0.35 -0.35,-0.35 -0.19,0 -0.35,0.15 -0.35,0.35 0,0.19 0.16,0.35 0.35,0.35 0.2,0 0.35,-0.16 0.35,-0.35z"/>
    <path class="fil0" d="M6.21 8.98c0,-0.2 -0.16,-0.35 -0.35,-0.35 -0.2,0 -0.36,0.15 -0.36,0.35 0,0.19 0.16,0.35 0.36,0.35 0.19,0 0.35,-0.16 0.35,-0.35z"/>
    <path class="fil0" d="M6.99 8.98c0,-0.2 -0.16,-0.35 -0.35,-0.35 -0.2,0 -0.36,0.15 -0.36,0.35 0,0.19 0.16,0.35 0.36,0.35 0.19,0 0.35,-0.16 0.35,-0.35z"/>
    <path class="fil0" d="M7.77 8.98c0,-0.2 -0.16,-0.35 -0.35,-0.35 -0.2,0 -0.35,0.15 -0.35,0.35 0,0.19 0.15,0.35 0.35,0.35 0.19,0 0.35,-0.16 0.35,-0.35z"/>
    <path class="fil0" d="M8.55 8.98c0,-0.2 -0.16,-0.35 -0.35,-0.35 -0.2,0 -0.35,0.15 -0.35,0.35 0,0.19 0.15,0.35 0.35,0.35 0.19,0 0.35,-0.16 0.35,-0.35z"/>
    <path class="fil0" d="M9.33 8.98c0,-0.2 -0.16,-0.35 -0.35,-0.35 -0.2,0 -0.35,0.15 -0.35,0.35 0,0.19 0.15,0.35 0.35,0.35 0.19,0 0.35,-0.16 0.35,-0.35z"/>
    <path class="fil0" d="M11.67 8.98c0,-0.2 -0.16,-0.35 -0.35,-0.35 -0.19,0 -0.35,0.15 -0.35,0.35 0,0.19 0.16,0.35 0.35,0.35 0.19,0 0.35,-0.16 0.35,-0.35z"/>
    <path class="fil0" d="M13.23 8.98c0,-0.2 -0.16,-0.35 -0.35,-0.35 -0.19,0 -0.35,0.15 -0.35,0.35 0,0.19 0.16,0.35 0.35,0.35 0.19,0 0.35,-0.16 0.35,-0.35z"/>
    <path class="fil0" d="M14.79 8.98c0,-0.2 -0.15,-0.35 -0.35,-0.35 -0.19,0 -0.35,0.15 -0.35,0.35 0,0.19 0.16,0.35 0.35,0.35 0.2,0 0.35,-0.16 0.35,-0.35z"/>
    <path class="fil0" d="M16.35 8.98c0,-0.2 -0.15,-0.35 -0.35,-0.35 -0.19,0 -0.35,0.15 -0.35,0.35 0,0.19 0.16,0.35 0.35,0.35 0.2,0 0.35,-0.16 0.35,-0.35z"/>
    <path class="fil0" d="M17.14 8.98c0,-0.2 -0.16,-0.35 -0.36,-0.35 -0.19,0 -0.35,0.15 -0.35,0.35 0,0.19 0.16,0.35 0.35,0.35 0.2,0 0.36,-0.16 0.36,-0.35z"/>
    <path class="fil0" d="M17.92 8.98c0,-0.2 -0.16,-0.35 -0.36,-0.35 -0.19,0 -0.35,0.15 -0.35,0.35 0,0.19 0.16,0.35 0.35,0.35 0.2,0 0.36,-0.16 0.36,-0.35z"/>
    <path class="fil0" d="M18.7 8.98c0,-0.2 -0.16,-0.35 -0.35,-0.35 -0.2,0 -0.36,0.15 -0.36,0.35 0,0.19 0.16,0.35 0.36,0.35 0.19,0 0.35,-0.16 0.35,-0.35z"/>
    <path class="fil0" d="M21.82 8.98c0,-0.2 -0.16,-0.35 -0.35,-0.35 -0.2,0 -0.35,0.15 -0.35,0.35 0,0.19 0.15,0.35 0.35,0.35 0.19,0 0.35,-0.16 0.35,-0.35z"/>
    <path class="fil0" d="M1.52 9.76c0,-0.2 -0.16,-0.35 -0.35,-0.35 -0.19,0 -0.35,0.15 -0.35,0.35 0,0.19 0.16,0.35 0.35,0.35 0.19,0 0.35,-0.16 0.35,-0.35z"/>
    <path class="fil0" d="M2.3 9.76c0,-0.2 -0.15,-0.35 -0.35,-0.35 -0.19,0 -0.35,0.15 -0.35,0.35 0,0.19 0.16,0.35 0.35,0.35 0.2,0 0.35,-0.16 0.35,-0.35z"/>
    <path class="fil0" d="M3.86 9.76c0,-0.2 -0.15,-0.35 -0.35,-0.35 -0.19,0 -0.35,0.15 -0.35,0.35 0,0.19 0.16,0.35 0.35,0.35 0.2,0 0.35,-0.16 0.35,-0.35z"/>
    <path class="fil0" d="M4.64 9.76c0,-0.2 -0.15,-0.35 -0.35,-0.35 -0.19,0 -0.35,0.15 -0.35,0.35 0,0.19 0.16,0.35 0.35,0.35 0.2,0 0.35,-0.16 0.35,-0.35z"/>
    <path class="fil0" d="M5.43 9.76c0,-0.2 -0.16,-0.35 -0.36,-0.35 -0.19,0 -0.35,0.15 -0.35,0.35 0,0.19 0.16,0.35 0.35,0.35 0.2,0 0.36,-0.16 0.36,-0.35z"/>
    <path class="fil0" d="M6.21 9.76c0,-0.2 -0.16,-0.35 -0.35,-0.35 -0.2,0 -0.36,0.15 -0.36,0.35 0,0.19 0.16,0.35 0.36,0.35 0.19,0 0.35,-0.16 0.35,-0.35z"/>
    <path class="fil0" d="M8.55 9.76c0,-0.2 -0.16,-0.35 -0.35,-0.35 -0.2,0 -0.35,0.15 -0.35,0.35 0,0.19 0.15,0.35 0.35,0.35 0.19,0 0.35,-0.16 0.35,-0.35z"/>
    <path class="fil0" d="M9.33 9.76c0,-0.2 -0.16,-0.35 -0.35,-0.35 -0.2,0 -0.35,0.15 -0.35,0.35 0,0.19 0.15,0.35 0.35,0.35 0.19,0 0.35,-0.16 0.35,-0.35z"/>
    <path class="fil0" d="M10.89 9.76c0,-0.2 -0.16,-0.35 -0.35,-0.35 -0.2,0 -0.35,0.15 -0.35,0.35 0,0.19 0.15,0.35 0.35,0.35 0.19,0 0.35,-0.16 0.35,-0.35z"/>
    <path class="fil0" d="M13.23 9.76c0,-0.2 -0.16,-0.35 -0.35,-0.35 -0.19,0 -0.35,0.15 -0.35,0.35 0,0.19 0.16,0.35 0.35,0.35 0.19,0 0.35,-0.16 0.35,-0.35z"/>
    <path class="fil0" d="M15.57 9.76c0,-0.2 -0.15,-0.35 -0.35,-0.35 -0.19,0 -0.35,0.15 -0.35,0.35 0,0.19 0.16,0.35 0.35,0.35 0.2,0 0.35,-0.16 0.35,-0.35z"/>
    <path class="fil0" d="M17.92 9.76c0,-0.2 -0.16,-0.35 -0.36,-0.35 -0.19,0 -0.35,0.15 -0.35,0.35 0,0.19 0.16,0.35 0.35,0.35 0.2,0 0.36,-0.16 0.36,-0.35z"/>
    <path class="fil0" d="M18.7 9.76c0,-0.2 -0.16,-0.35 -0.35,-0.35 -0.2,0 -0.36,0.15 -0.36,0.35 0,0.19 0.16,0.35 0.36,0.35 0.19,0 0.35,-0.16 0.35,-0.35z"/>
    <path class="fil0" d="M2.3 10.54c0,-0.2 -0.15,-0.35 -0.35,-0.35 -0.19,0 -0.35,0.15 -0.35,0.35 0,0.19 0.16,0.35 0.35,0.35 0.2,0 0.35,-0.16 0.35,-0.35z"/>
    <path class="fil0" d="M4.64 10.54c0,-0.2 -0.15,-0.35 -0.35,-0.35 -0.19,0 -0.35,0.15 -0.35,0.35 0,0.19 0.16,0.35 0.35,0.35 0.2,0 0.35,-0.16 0.35,-0.35z"/>
    <path class="fil0" d="M7.77 10.54c0,-0.2 -0.16,-0.35 -0.35,-0.35 -0.2,0 -0.35,0.15 -0.35,0.35 0,0.19 0.15,0.35 0.35,0.35 0.19,0 0.35,-0.16 0.35,-0.35z"/>
    <path class="fil0" d="M10.89 10.54c0,-0.2 -0.16,-0.35 -0.35,-0.35 -0.2,0 -0.35,0.15 -0.35,0.35 0,0.19 0.15,0.35 0.35,0.35 0.19,0 0.35,-0.16 0.35,-0.35z"/>
    <path class="fil0" d="M11.67 10.54c0,-0.2 -0.16,-0.35 -0.35,-0.35 -0.19,0 -0.35,0.15 -0.35,0.35 0,0.19 0.16,0.35 0.35,0.35 0.19,0 0.35,-0.16 0.35,-0.35z"/>
    <path class="fil0" d="M12.45 10.54c0,-0.2 -0.16,-0.35 -0.35,-0.35 -0.19,0 -0.35,0.15 -0.35,0.35 0,0.19 0.16,0.35 0.35,0.35 0.19,0 0.35,-0.16 0.35,-0.35z"/>
    <path class="fil0" d="M14.01 10.54c0,-0.2 -0.15,-0.35 -0.35,-0.35 -0.19,0 -0.35,0.15 -0.35,0.35 0,0.19 0.16,0.35 0.35,0.35 0.2,0 0.35,-0.16 0.35,-0.35z"/>
    <path class="fil0" d="M16.35 10.54c0,-0.2 -0.15,-0.35 -0.35,-0.35 -0.19,0 -0.35,0.15 -0.35,0.35 0,0.19 0.16,0.35 0.35,0.35 0.2,0 0.35,-0.16 0.35,-0.35z"/>
    <path class="fil0" d="M17.14 10.54c0,-0.2 -0.16,-0.35 -0.36,-0.35 -0.19,0 -0.35,0.15 -0.35,0.35 0,0.19 0.16,0.35 0.35,0.35 0.2,0 0.36,-0.16 0.36,-0.35z"/>
    <path class="fil0" d="M17.92 10.54c0,-0.2 -0.16,-0.35 -0.36,-0.35 -0.19,0 -0.35,0.15 -0.35,0.35 0,0.19 0.16,0.35 0.35,0.35 0.2,0 0.36,-0.16 0.36,-0.35z"/>
    <path class="fil0" d="M18.7 10.54c0,-0.2 -0.16,-0.35 -0.35,-0.35 -0.2,0 -0.36,0.15 -0.36,0.35 0,0.19 0.16,0.35 0.36,0.35 0.19,0 0.35,-0.16 0.35,-0.35z"/>
    <path class="fil0" d="M21.82 10.54c0,-0.2 -0.16,-0.35 -0.35,-0.35 -0.2,0 -0.35,0.15 -0.35,0.35 0,0.19 0.15,0.35 0.35,0.35 0.19,0 0.35,-0.16 0.35,-0.35z"/>
    <path class="fil0" d="M22.6 10.54c0,-0.2 -0.16,-0.35 -0.35,-0.35 -0.2,0 -0.35,0.15 -0.35,0.35 0,0.19 0.15,0.35 0.35,0.35 0.19,0 0.35,-0.16 0.35,-0.35z"/>
    <path class="fil0" d="M3.08 11.32c0,-0.19 -0.15,-0.35 -0.35,-0.35 -0.19,0 -0.35,0.16 -0.35,0.35 0,0.19 0.16,0.35 0.35,0.35 0.2,0 0.35,-0.16 0.35,-0.35z"/>
    <path class="fil0" d="M4.64 11.32c0,-0.19 -0.15,-0.35 -0.35,-0.35 -0.19,0 -0.35,0.16 -0.35,0.35 0,0.19 0.16,0.35 0.35,0.35 0.2,0 0.35,-0.16 0.35,-0.35z"/>
    <path class="fil0" d="M5.43 11.32c0,-0.19 -0.16,-0.35 -0.36,-0.35 -0.19,0 -0.35,0.16 -0.35,0.35 0,0.19 0.16,0.35 0.35,0.35 0.2,0 0.36,-0.16 0.36,-0.35z"/>
    <path class="fil0" d="M6.21 11.32c0,-0.19 -0.16,-0.35 -0.35,-0.35 -0.2,0 -0.36,0.16 -0.36,0.35 0,0.19 0.16,0.35 0.36,0.35 0.19,0 0.35,-0.16 0.35,-0.35z"/>
    <path class="fil0" d="M6.99 11.32c0,-0.19 -0.16,-0.35 -0.35,-0.35 -0.2,0 -0.36,0.16 -0.36,0.35 0,0.19 0.16,0.35 0.36,0.35 0.19,0 0.35,-0.16 0.35,-0.35z"/>
    <path class="fil0" d="M8.55 11.32c0,-0.19 -0.16,-0.35 -0.35,-0.35 -0.2,0 -0.35,0.16 -0.35,0.35 0,0.19 0.15,0.35 0.35,0.35 0.19,0 0.35,-0.16 0.35,-0.35z"/>
    <path class="fil0" d="M9.33 11.32c0,-0.19 -0.16,-0.35 -0.35,-0.35 -0.2,0 -0.35,0.16 -0.35,0.35 0,0.19 0.15,0.35 0.35,0.35 0.19,0 0.35,-0.16 0.35,-0.35z"/>
    <path class="fil0" d="M14.01 11.32c0,-0.19 -0.15,-0.35 -0.35,-0.35 -0.19,0 -0.35,0.16 -0.35,0.35 0,0.19 0.16,0.35 0.35,0.35 0.2,0 0.35,-0.16 0.35,-0.35z"/>
    <path class="fil0" d="M16.35 11.32c0,-0.19 -0.15,-0.35 -0.35,-0.35 -0.19,0 -0.35,0.16 -0.35,0.35 0,0.19 0.16,0.35 0.35,0.35 0.2,0 0.35,-0.16 0.35,-0.35z"/>
    <path class="fil0" d="M17.92 11.32c0,-0.19 -0.16,-0.35 -0.36,-0.35 -0.19,0 -0.35,0.16 -0.35,0.35 0,0.19 0.16,0.35 0.35,0.35 0.2,0 0.36,-0.16 0.36,-0.35z"/>
    <path class="fil0" d="M18.7 11.32c0,-0.19 -0.16,-0.35 -0.35,-0.35 -0.2,0 -0.36,0.16 -0.36,0.35 0,0.19 0.16,0.35 0.36,0.35 0.19,0 0.35,-0.16 0.35,-0.35z"/>
    <path class="fil0" d="M21.04 11.32c0,-0.19 -0.16,-0.35 -0.35,-0.35 -0.2,0 -0.35,0.16 -0.35,0.35 0,0.19 0.15,0.35 0.35,0.35 0.19,0 0.35,-0.16 0.35,-0.35z"/>
    <path class="fil0" d="M21.82 11.32c0,-0.19 -0.16,-0.35 -0.35,-0.35 -0.2,0 -0.35,0.16 -0.35,0.35 0,0.19 0.15,0.35 0.35,0.35 0.19,0 0.35,-0.16 0.35,-0.35z"/>
    <path class="fil0" d="M22.6 11.32c0,-0.19 -0.16,-0.35 -0.35,-0.35 -0.2,0 -0.35,0.16 -0.35,0.35 0,0.19 0.15,0.35 0.35,0.35 0.19,0 0.35,-0.16 0.35,-0.35z"/>
    <path class="fil0" d="M0.74 12.1c0,-0.19 -0.16,-0.35 -0.35,-0.35 -0.19,0 -0.35,0.16 -0.35,0.35 0,0.19 0.16,0.35 0.35,0.35 0.19,0 0.35,-0.16 0.35,-0.35z"/>
    <path class="fil0" d="M1.52 12.1c0,-0.19 -0.16,-0.35 -0.35,-0.35 -0.19,0 -0.35,0.16 -0.35,0.35 0,0.19 0.16,0.35 0.35,0.35 0.19,0 0.35,-0.16 0.35,-0.35z"/>
    <path class="fil0" d="M2.3 12.1c0,-0.19 -0.15,-0.35 -0.35,-0.35 -0.19,0 -0.35,0.16 -0.35,0.35 0,0.19 0.16,0.35 0.35,0.35 0.2,0 0.35,-0.16 0.35,-0.35z"/>
    <path class="fil0" d="M3.86 12.1c0,-0.19 -0.15,-0.35 -0.35,-0.35 -0.19,0 -0.35,0.16 -0.35,0.35 0,0.19 0.16,0.35 0.35,0.35 0.2,0 0.35,-0.16 0.35,-0.35z"/>
    <path class="fil0" d="M6.21 12.1c0,-0.19 -0.16,-0.35 -0.35,-0.35 -0.2,0 -0.36,0.16 -0.36,0.35 0,0.19 0.16,0.35 0.36,0.35 0.19,0 0.35,-0.16 0.35,-0.35z"/>
    <path class="fil0" d="M6.99 12.1c0,-0.19 -0.16,-0.35 -0.35,-0.35 -0.2,0 -0.36,0.16 -0.36,0.35 0,0.19 0.16,0.35 0.36,0.35 0.19,0 0.35,-0.16 0.35,-0.35z"/>
    <path class="fil0" d="M8.55 12.1c0,-0.19 -0.16,-0.35 -0.35,-0.35 -0.2,0 -0.35,0.16 -0.35,0.35 0,0.19 0.15,0.35 0.35,0.35 0.19,0 0.35,-0.16 0.35,-0.35z"/>
    <path class="fil0" d="M9.33 12.1c0,-0.19 -0.16,-0.35 -0.35,-0.35 -0.2,0 -0.35,0.16 -0.35,0.35 0,0.19 0.15,0.35 0.35,0.35 0.19,0 0.35,-0.16 0.35,-0.35z"/>
    <path class="fil0" d="M12.45 12.1c0,-0.19 -0.16,-0.35 -0.35,-0.35 -0.19,0 -0.35,0.16 -0.35,0.35 0,0.19 0.16,0.35 0.35,0.35 0.19,0 0.35,-0.16 0.35,-0.35z"/>
    <path class="fil0" d="M13.23 12.1c0,-0.19 -0.16,-0.35 -0.35,-0.35 -0.19,0 -0.35,0.16 -0.35,0.35 0,0.19 0.16,0.35 0.35,0.35 0.19,0 0.35,-0.16 0.35,-0.35z"/>
    <path class="fil0" d="M14.01 12.1c0,-0.19 -0.15,-0.35 -0.35,-0.35 -0.19,0 -0.35,0.16 -0.35,0.35 0,0.19 0.16,0.35 0.35,0.35 0.2,0 0.35,-0.16 0.35,-0.35z"/>
    <path class="fil0" d="M16.35 12.1c0,-0.19 -0.15,-0.35 -0.35,-0.35 -0.19,0 -0.35,0.16 -0.35,0.35 0,0.19 0.16,0.35 0.35,0.35 0.2,0 0.35,-0.16 0.35,-0.35z"/>
    <path class="fil0" d="M17.14 12.1c0,-0.19 -0.16,-0.35 -0.36,-0.35 -0.19,0 -0.35,0.16 -0.35,0.35 0,0.19 0.16,0.35 0.35,0.35 0.2,0 0.36,-0.16 0.36,-0.35z"/>
    <path class="fil0" d="M18.7 12.1c0,-0.19 -0.16,-0.35 -0.35,-0.35 -0.2,0 -0.36,0.16 -0.36,0.35 0,0.19 0.16,0.35 0.36,0.35 0.19,0 0.35,-0.16 0.35,-0.35z"/>
    <path class="fil0" d="M21.82 12.1c0,-0.19 -0.16,-0.35 -0.35,-0.35 -0.2,0 -0.35,0.16 -0.35,0.35 0,0.19 0.15,0.35 0.35,0.35 0.19,0 0.35,-0.16 0.35,-0.35z"/>
    <path class="fil0" d="M22.6 12.1c0,-0.19 -0.16,-0.35 -0.35,-0.35 -0.2,0 -0.35,0.16 -0.35,0.35 0,0.19 0.15,0.35 0.35,0.35 0.19,0 0.35,-0.16 0.35,-0.35z"/>
    <path class="fil0" d="M1.52 12.88c0,-0.19 -0.16,-0.35 -0.35,-0.35 -0.19,0 -0.35,0.16 -0.35,0.35 0,0.19 0.16,0.35 0.35,0.35 0.19,0 0.35,-0.16 0.35,-0.35z"/>
    <path class="fil0" d="M2.3 12.88c0,-0.19 -0.15,-0.35 -0.35,-0.35 -0.19,0 -0.35,0.16 -0.35,0.35 0,0.19 0.16,0.35 0.35,0.35 0.2,0 0.35,-0.16 0.35,-0.35z"/>
    <path class="fil0" d="M3.08 12.88c0,-0.19 -0.15,-0.35 -0.35,-0.35 -0.19,0 -0.35,0.16 -0.35,0.35 0,0.19 0.16,0.35 0.35,0.35 0.2,0 0.35,-0.16 0.35,-0.35z"/>
    <path class="fil0" d="M3.86 12.88c0,-0.19 -0.15,-0.35 -0.35,-0.35 -0.19,0 -0.35,0.16 -0.35,0.35 0,0.19 0.16,0.35 0.35,0.35 0.2,0 0.35,-0.16 0.35,-0.35z"/>
    <path class="fil0" d="M5.43 12.88c0,-0.19 -0.16,-0.35 -0.36,-0.35 -0.19,0 -0.35,0.16 -0.35,0.35 0,0.19 0.16,0.35 0.35,0.35 0.2,0 0.36,-0.16 0.36,-0.35z"/>
    <path class="fil0" d="M6.99 12.88c0,-0.19 -0.16,-0.35 -0.35,-0.35 -0.2,0 -0.36,0.16 -0.36,0.35 0,0.19 0.16,0.35 0.36,0.35 0.19,0 0.35,-0.16 0.35,-0.35z"/>
    <path class="fil0" d="M7.77 12.88c0,-0.19 -0.16,-0.35 -0.35,-0.35 -0.2,0 -0.35,0.16 -0.35,0.35 0,0.19 0.15,0.35 0.35,0.35 0.19,0 0.35,-0.16 0.35,-0.35z"/>
    <path class="fil0" d="M8.55 12.88c0,-0.19 -0.16,-0.35 -0.35,-0.35 -0.2,0 -0.35,0.16 -0.35,0.35 0,0.19 0.15,0.35 0.35,0.35 0.19,0 0.35,-0.16 0.35,-0.35z"/>
    <path class="fil0" d="M10.11 12.88c0,-0.19 -0.16,-0.35 -0.35,-0.35 -0.2,0 -0.35,0.16 -0.35,0.35 0,0.19 0.15,0.35 0.35,0.35 0.19,0 0.35,-0.16 0.35,-0.35z"/>
    <path class="fil0" d="M11.67 12.88c0,-0.19 -0.16,-0.35 -0.35,-0.35 -0.19,0 -0.35,0.16 -0.35,0.35 0,0.19 0.16,0.35 0.35,0.35 0.19,0 0.35,-0.16 0.35,-0.35z"/>
    <path class="fil0" d="M14.01 12.88c0,-0.19 -0.15,-0.35 -0.35,-0.35 -0.19,0 -0.35,0.16 -0.35,0.35 0,0.19 0.16,0.35 0.35,0.35 0.2,0 0.35,-0.16 0.35,-0.35z"/>
    <path class="fil0" d="M14.79 12.88c0,-0.19 -0.15,-0.35 -0.35,-0.35 -0.19,0 -0.35,0.16 -0.35,0.35 0,0.19 0.16,0.35 0.35,0.35 0.2,0 0.35,-0.16 0.35,-0.35z"/>
    <path class="fil0" d="M16.35 12.88c0,-0.19 -0.15,-0.35 -0.35,-0.35 -0.19,0 -0.35,0.16 -0.35,0.35 0,0.19 0.16,0.35 0.35,0.35 0.2,0 0.35,-0.16 0.35,-0.35z"/>
    <path class="fil0" d="M17.92 12.88c0,-0.19 -0.16,-0.35 -0.36,-0.35 -0.19,0 -0.35,0.16 -0.35,0.35 0,0.19 0.16,0.35 0.35,0.35 0.2,0 0.36,-0.16 0.36,-0.35z"/>
    <path class="fil0" d="M20.26 12.88c0,-0.19 -0.16,-0.35 -0.35,-0.35 -0.2,0 -0.35,0.16 -0.35,0.35 0,0.19 0.15,0.35 0.35,0.35 0.19,0 0.35,-0.16 0.35,-0.35z"/>
    <path class="fil0" d="M21.82 12.88c0,-0.19 -0.16,-0.35 -0.35,-0.35 -0.2,0 -0.35,0.16 -0.35,0.35 0,0.19 0.15,0.35 0.35,0.35 0.19,0 0.35,-0.16 0.35,-0.35z"/>
    <path class="fil0" d="M1.52 13.66c0,-0.19 -0.16,-0.35 -0.35,-0.35 -0.19,0 -0.35,0.16 -0.35,0.35 0,0.2 0.16,0.35 0.35,0.35 0.19,0 0.35,-0.15 0.35,-0.35z"/>
    <path class="fil0" d="M3.86 13.66c0,-0.19 -0.15,-0.35 -0.35,-0.35 -0.19,0 -0.35,0.16 -0.35,0.35 0,0.2 0.16,0.35 0.35,0.35 0.2,0 0.35,-0.15 0.35,-0.35z"/>
    <path class="fil0" d="M4.64 13.66c0,-0.19 -0.15,-0.35 -0.35,-0.35 -0.19,0 -0.35,0.16 -0.35,0.35 0,0.2 0.16,0.35 0.35,0.35 0.2,0 0.35,-0.15 0.35,-0.35z"/>
    <path class="fil0" d="M6.99 13.66c0,-0.19 -0.16,-0.35 -0.35,-0.35 -0.2,0 -0.36,0.16 -0.36,0.35 0,0.2 0.16,0.35 0.36,0.35 0.19,0 0.35,-0.15 0.35,-0.35z"/>
    <path class="fil0" d="M9.33 13.66c0,-0.19 -0.16,-0.35 -0.35,-0.35 -0.2,0 -0.35,0.16 -0.35,0.35 0,0.2 0.15,0.35 0.35,0.35 0.19,0 0.35,-0.15 0.35,-0.35z"/>
    <path class="fil0" d="M10.89 13.66c0,-0.19 -0.16,-0.35 -0.35,-0.35 -0.2,0 -0.35,0.16 -0.35,0.35 0,0.2 0.15,0.35 0.35,0.35 0.19,0 0.35,-0.15 0.35,-0.35z"/>
    <path class="fil0" d="M11.67 13.66c0,-0.19 -0.16,-0.35 -0.35,-0.35 -0.19,0 -0.35,0.16 -0.35,0.35 0,0.2 0.16,0.35 0.35,0.35 0.19,0 0.35,-0.15 0.35,-0.35z"/>
    <path class="fil0" d="M12.45 13.66c0,-0.19 -0.16,-0.35 -0.35,-0.35 -0.19,0 -0.35,0.16 -0.35,0.35 0,0.2 0.16,0.35 0.35,0.35 0.19,0 0.35,-0.15 0.35,-0.35z"/>
    <path class="fil0" d="M15.57 13.66c0,-0.19 -0.15,-0.35 -0.35,-0.35 -0.19,0 -0.35,0.16 -0.35,0.35 0,0.2 0.16,0.35 0.35,0.35 0.2,0 0.35,-0.15 0.35,-0.35z"/>
    <path class="fil0" d="M17.92 13.66c0,-0.19 -0.16,-0.35 -0.36,-0.35 -0.19,0 -0.35,0.16 -0.35,0.35 0,0.2 0.16,0.35 0.35,0.35 0.2,0 0.36,-0.15 0.36,-0.35z"/>
    <path class="fil0" d="M20.26 13.66c0,-0.19 -0.16,-0.35 -0.35,-0.35 -0.2,0 -0.35,0.16 -0.35,0.35 0,0.2 0.15,0.35 0.35,0.35 0.19,0 0.35,-0.15 0.35,-0.35z"/>
    <path class="fil0" d="M21.82 13.66c0,-0.19 -0.16,-0.35 -0.35,-0.35 -0.2,0 -0.35,0.16 -0.35,0.35 0,0.2 0.15,0.35 0.35,0.35 0.19,0 0.35,-0.15 0.35,-0.35z"/>
    <path class="fil0" d="M22.6 13.66c0,-0.19 -0.16,-0.35 -0.35,-0.35 -0.2,0 -0.35,0.16 -0.35,0.35 0,0.2 0.15,0.35 0.35,0.35 0.19,0 0.35,-0.15 0.35,-0.35z"/>
    <path class="fil0" d="M0.74 14.44c0,-0.19 -0.16,-0.35 -0.35,-0.35 -0.19,0 -0.35,0.16 -0.35,0.35 0,0.2 0.16,0.35 0.35,0.35 0.19,0 0.35,-0.15 0.35,-0.35z"/>
    <path class="fil0" d="M3.08 14.44c0,-0.19 -0.15,-0.35 -0.35,-0.35 -0.19,0 -0.35,0.16 -0.35,0.35 0,0.2 0.16,0.35 0.35,0.35 0.2,0 0.35,-0.15 0.35,-0.35z"/>
    <path class="fil0" d="M3.86 14.44c0,-0.19 -0.15,-0.35 -0.35,-0.35 -0.19,0 -0.35,0.16 -0.35,0.35 0,0.2 0.16,0.35 0.35,0.35 0.2,0 0.35,-0.15 0.35,-0.35z"/>
    <path class="fil0" d="M5.43 14.44c0,-0.19 -0.16,-0.35 -0.36,-0.35 -0.19,0 -0.35,0.16 -0.35,0.35 0,0.2 0.16,0.35 0.35,0.35 0.2,0 0.36,-0.15 0.36,-0.35z"/>
    <path class="fil0" d="M6.99 14.44c0,-0.19 -0.16,-0.35 -0.35,-0.35 -0.2,0 -0.36,0.16 -0.36,0.35 0,0.2 0.16,0.35 0.36,0.35 0.19,0 0.35,-0.15 0.35,-0.35z"/>
    <path class="fil0" d="M7.77 14.44c0,-0.19 -0.16,-0.35 -0.35,-0.35 -0.2,0 -0.35,0.16 -0.35,0.35 0,0.2 0.15,0.35 0.35,0.35 0.19,0 0.35,-0.15 0.35,-0.35z"/>
    <path class="fil0" d="M14.01 14.44c0,-0.19 -0.15,-0.35 -0.35,-0.35 -0.19,0 -0.35,0.16 -0.35,0.35 0,0.2 0.16,0.35 0.35,0.35 0.2,0 0.35,-0.15 0.35,-0.35z"/>
    <path class="fil0" d="M14.79 14.44c0,-0.19 -0.15,-0.35 -0.35,-0.35 -0.19,0 -0.35,0.16 -0.35,0.35 0,0.2 0.16,0.35 0.35,0.35 0.2,0 0.35,-0.15 0.35,-0.35z"/>
    <path class="fil0" d="M16.35 14.44c0,-0.19 -0.15,-0.35 -0.35,-0.35 -0.19,0 -0.35,0.16 -0.35,0.35 0,0.2 0.16,0.35 0.35,0.35 0.2,0 0.35,-0.15 0.35,-0.35z"/>
    <path class="fil0" d="M17.14 14.44c0,-0.19 -0.16,-0.35 -0.36,-0.35 -0.19,0 -0.35,0.16 -0.35,0.35 0,0.2 0.16,0.35 0.35,0.35 0.2,0 0.36,-0.15 0.36,-0.35z"/>
    <path class="fil0" d="M20.26 14.44c0,-0.19 -0.16,-0.35 -0.35,-0.35 -0.2,0 -0.35,0.16 -0.35,0.35 0,0.2 0.15,0.35 0.35,0.35 0.19,0 0.35,-0.15 0.35,-0.35z"/>
    <path class="fil0" d="M21.82 14.44c0,-0.19 -0.16,-0.35 -0.35,-0.35 -0.2,0 -0.35,0.16 -0.35,0.35 0,0.2 0.15,0.35 0.35,0.35 0.19,0 0.35,-0.15 0.35,-0.35z"/>
    <path class="fil0" d="M22.6 14.44c0,-0.19 -0.16,-0.35 -0.35,-0.35 -0.2,0 -0.35,0.16 -0.35,0.35 0,0.2 0.15,0.35 0.35,0.35 0.19,0 0.35,-0.15 0.35,-0.35z"/>
    <path class="fil0" d="M1.52 15.22c0,-0.19 -0.16,-0.35 -0.35,-0.35 -0.19,0 -0.35,0.16 -0.35,0.35 0,0.2 0.16,0.35 0.35,0.35 0.19,0 0.35,-0.15 0.35,-0.35z"/>
    <path class="fil0" d="M2.3 15.22c0,-0.19 -0.15,-0.35 -0.35,-0.35 -0.19,0 -0.35,0.16 -0.35,0.35 0,0.2 0.16,0.35 0.35,0.35 0.2,0 0.35,-0.15 0.35,-0.35z"/>
    <path class="fil0" d="M3.86 15.22c0,-0.19 -0.15,-0.35 -0.35,-0.35 -0.19,0 -0.35,0.16 -0.35,0.35 0,0.2 0.16,0.35 0.35,0.35 0.2,0 0.35,-0.15 0.35,-0.35z"/>
    <path class="fil0" d="M6.21 15.22c0,-0.19 -0.16,-0.35 -0.35,-0.35 -0.2,0 -0.36,0.16 -0.36,0.35 0,0.2 0.16,0.35 0.36,0.35 0.19,0 0.35,-0.15 0.35,-0.35z"/>
    <path class="fil0" d="M8.55 15.22c0,-0.19 -0.16,-0.35 -0.35,-0.35 -0.2,0 -0.35,0.16 -0.35,0.35 0,0.2 0.15,0.35 0.35,0.35 0.19,0 0.35,-0.15 0.35,-0.35z"/>
    <path class="fil0" d="M9.33 15.22c0,-0.19 -0.16,-0.35 -0.35,-0.35 -0.2,0 -0.35,0.16 -0.35,0.35 0,0.2 0.15,0.35 0.35,0.35 0.19,0 0.35,-0.15 0.35,-0.35z"/>
    <path class="fil0" d="M10.89 15.22c0,-0.19 -0.16,-0.35 -0.35,-0.35 -0.2,0 -0.35,0.16 -0.35,0.35 0,0.2 0.15,0.35 0.35,0.35 0.19,0 0.35,-0.15 0.35,-0.35z"/>
    <path class="fil0" d="M11.67 15.22c0,-0.19 -0.16,-0.35 -0.35,-0.35 -0.19,0 -0.35,0.16 -0.35,0.35 0,0.2 0.16,0.35 0.35,0.35 0.19,0 0.35,-0.15 0.35,-0.35z"/>
    <path class="fil0" d="M13.23 15.22c0,-0.19 -0.16,-0.35 -0.35,-0.35 -0.19,0 -0.35,0.16 -0.35,0.35 0,0.2 0.16,0.35 0.35,0.35 0.19,0 0.35,-0.15 0.35,-0.35z"/>
    <path class="fil0" d="M14.01 15.22c0,-0.19 -0.15,-0.35 -0.35,-0.35 -0.19,0 -0.35,0.16 -0.35,0.35 0,0.2 0.16,0.35 0.35,0.35 0.2,0 0.35,-0.15 0.35,-0.35z"/>
    <path class="fil0" d="M17.92 15.22c0,-0.19 -0.16,-0.35 -0.36,-0.35 -0.19,0 -0.35,0.16 -0.35,0.35 0,0.2 0.16,0.35 0.35,0.35 0.2,0 0.36,-0.15 0.36,-0.35z"/>
    <path class="fil0" d="M20.26 15.22c0,-0.19 -0.16,-0.35 -0.35,-0.35 -0.2,0 -0.35,0.16 -0.35,0.35 0,0.2 0.15,0.35 0.35,0.35 0.19,0 0.35,-0.15 0.35,-0.35z"/>
    <path class="fil0" d="M0.74 16c0,-0.19 -0.16,-0.35 -0.35,-0.35 -0.19,0 -0.35,0.16 -0.35,0.35 0,0.2 0.16,0.35 0.35,0.35 0.19,0 0.35,-0.15 0.35,-0.35z"/>
    <path class="fil0" d="M3.08 16c0,-0.19 -0.15,-0.35 -0.35,-0.35 -0.19,0 -0.35,0.16 -0.35,0.35 0,0.2 0.16,0.35 0.35,0.35 0.2,0 0.35,-0.15 0.35,-0.35z"/>
    <path class="fil0" d="M5.43 16c0,-0.19 -0.16,-0.35 -0.36,-0.35 -0.19,0 -0.35,0.16 -0.35,0.35 0,0.2 0.16,0.35 0.35,0.35 0.2,0 0.36,-0.15 0.36,-0.35z"/>
    <path class="fil0" d="M6.21 16c0,-0.19 -0.16,-0.35 -0.35,-0.35 -0.2,0 -0.36,0.16 -0.36,0.35 0,0.2 0.16,0.35 0.36,0.35 0.19,0 0.35,-0.15 0.35,-0.35z"/>
    <path class="fil0" d="M7.77 16c0,-0.19 -0.16,-0.35 -0.35,-0.35 -0.2,0 -0.35,0.16 -0.35,0.35 0,0.2 0.15,0.35 0.35,0.35 0.19,0 0.35,-0.15 0.35,-0.35z"/>
    <path class="fil0" d="M8.55 16c0,-0.19 -0.16,-0.35 -0.35,-0.35 -0.2,0 -0.35,0.16 -0.35,0.35 0,0.2 0.15,0.35 0.35,0.35 0.19,0 0.35,-0.15 0.35,-0.35z"/>
    <path class="fil0" d="M10.11 16c0,-0.19 -0.16,-0.35 -0.35,-0.35 -0.2,0 -0.35,0.16 -0.35,0.35 0,0.2 0.15,0.35 0.35,0.35 0.19,0 0.35,-0.15 0.35,-0.35z"/>
    <path class="fil0" d="M11.67 16c0,-0.19 -0.16,-0.35 -0.35,-0.35 -0.19,0 -0.35,0.16 -0.35,0.35 0,0.2 0.16,0.35 0.35,0.35 0.19,0 0.35,-0.15 0.35,-0.35z"/>
    <path class="fil0" d="M13.23 16c0,-0.19 -0.16,-0.35 -0.35,-0.35 -0.19,0 -0.35,0.16 -0.35,0.35 0,0.2 0.16,0.35 0.35,0.35 0.19,0 0.35,-0.15 0.35,-0.35z"/>
    <path class="fil0" d="M14.01 16c0,-0.19 -0.15,-0.35 -0.35,-0.35 -0.19,0 -0.35,0.16 -0.35,0.35 0,0.2 0.16,0.35 0.35,0.35 0.2,0 0.35,-0.15 0.35,-0.35z"/>
    <path class="fil0" d="M14.79 16c0,-0.19 -0.15,-0.35 -0.35,-0.35 -0.19,0 -0.35,0.16 -0.35,0.35 0,0.2 0.16,0.35 0.35,0.35 0.2,0 0.35,-0.15 0.35,-0.35z"/>
    <path class="fil0" d="M15.57 16c0,-0.19 -0.15,-0.35 -0.35,-0.35 -0.19,0 -0.35,0.16 -0.35,0.35 0,0.2 0.16,0.35 0.35,0.35 0.2,0 0.35,-0.15 0.35,-0.35z"/>
    <path class="fil0" d="M21.82 16c0,-0.19 -0.16,-0.35 -0.35,-0.35 -0.2,0 -0.35,0.16 -0.35,0.35 0,0.2 0.15,0.35 0.35,0.35 0.19,0 0.35,-0.15 0.35,-0.35z"/>
    <path class="fil0" d="M22.6 16c0,-0.19 -0.16,-0.35 -0.35,-0.35 -0.2,0 -0.35,0.16 -0.35,0.35 0,0.2 0.15,0.35 0.35,0.35 0.19,0 0.35,-0.15 0.35,-0.35z"/>
    <path class="fil0" d="M6.99 16.78c0,-0.19 -0.16,-0.35 -0.35,-0.35 -0.2,0 -0.36,0.16 -0.36,0.35 0,0.2 0.16,0.36 0.36,0.36 0.19,0 0.35,-0.16 0.35,-0.36z"/>
    <path class="fil0" d="M10.11 16.78c0,-0.19 -0.16,-0.35 -0.35,-0.35 -0.2,0 -0.35,0.16 -0.35,0.35 0,0.2 0.15,0.36 0.35,0.36 0.19,0 0.35,-0.16 0.35,-0.36z"/>
    <path class="fil0" d="M10.89 16.78c0,-0.19 -0.16,-0.35 -0.35,-0.35 -0.2,0 -0.35,0.16 -0.35,0.35 0,0.2 0.15,0.36 0.35,0.36 0.19,0 0.35,-0.16 0.35,-0.36z"/>
    <path class="fil0" d="M11.67 16.78c0,-0.19 -0.16,-0.35 -0.35,-0.35 -0.19,0 -0.35,0.16 -0.35,0.35 0,0.2 0.16,0.36 0.35,0.36 0.19,0 0.35,-0.16 0.35,-0.36z"/>
    <path class="fil0" d="M13.23 16.78c0,-0.19 -0.16,-0.35 -0.35,-0.35 -0.19,0 -0.35,0.16 -0.35,0.35 0,0.2 0.16,0.36 0.35,0.36 0.19,0 0.35,-0.16 0.35,-0.36z"/>
    <path class="fil0" d="M14.01 16.78c0,-0.19 -0.15,-0.35 -0.35,-0.35 -0.19,0 -0.35,0.16 -0.35,0.35 0,0.2 0.16,0.36 0.35,0.36 0.2,0 0.35,-0.16 0.35,-0.36z"/>
    <path class="fil0" d="M21.82 16.78c0,-0.19 -0.16,-0.35 -0.35,-0.35 -0.2,0 -0.35,0.16 -0.35,0.35 0,0.2 0.15,0.36 0.35,0.36 0.19,0 0.35,-0.16 0.35,-0.36z"/>
    <path class="fil0" d="M22.6 16.78c0,-0.19 -0.16,-0.35 -0.35,-0.35 -0.2,0 -0.35,0.16 -0.35,0.35 0,0.2 0.15,0.36 0.35,0.36 0.19,0 0.35,-0.16 0.35,-0.36z"/>
    <path class="fil0" d="M9.33 17.56c0,-0.19 -0.16,-0.35 -0.35,-0.35 -0.2,0 -0.35,0.16 -0.35,0.35 0,0.2 0.15,0.36 0.35,0.36 0.19,0 0.35,-0.16 0.35,-0.36z"/>
    <path class="fil0" d="M12.45 17.56c0,-0.19 -0.16,-0.35 -0.35,-0.35 -0.19,0 -0.35,0.16 -0.35,0.35 0,0.2 0.16,0.36 0.35,0.36 0.19,0 0.35,-0.16 0.35,-0.36z"/>
    <path class="fil0" d="M13.23 17.56c0,-0.19 -0.16,-0.35 -0.35,-0.35 -0.19,0 -0.35,0.16 -0.35,0.35 0,0.2 0.16,0.36 0.35,0.36 0.19,0 0.35,-0.16 0.35,-0.36z"/>
    <path class="fil0" d="M14.79 17.56c0,-0.19 -0.15,-0.35 -0.35,-0.35 -0.19,0 -0.35,0.16 -0.35,0.35 0,0.2 0.16,0.36 0.35,0.36 0.2,0 0.35,-0.16 0.35,-0.36z"/>
    <path class="fil0" d="M15.57 17.56c0,-0.19 -0.15,-0.35 -0.35,-0.35 -0.19,0 -0.35,0.16 -0.35,0.35 0,0.2 0.16,0.36 0.35,0.36 0.2,0 0.35,-0.16 0.35,-0.36z"/>
    <path class="fil0" d="M21.04 17.56c0,-0.19 -0.16,-0.35 -0.35,-0.35 -0.2,0 -0.35,0.16 -0.35,0.35 0,0.2 0.15,0.36 0.35,0.36 0.19,0 0.35,-0.16 0.35,-0.36z"/>
    <path class="fil0" d="M22.6 17.56c0,-0.19 -0.16,-0.35 -0.35,-0.35 -0.2,0 -0.35,0.16 -0.35,0.35 0,0.2 0.15,0.36 0.35,0.36 0.19,0 0.35,-0.16 0.35,-0.36z"/>
    <path class="fil0" d="M6.99 18.35c0,-0.2 -0.16,-0.36 -0.35,-0.36 -0.2,0 -0.36,0.16 -0.36,0.36 0,0.19 0.16,0.35 0.36,0.35 0.19,0 0.35,-0.16 0.35,-0.35z"/>
    <path class="fil0" d="M7.77 18.35c0,-0.2 -0.16,-0.36 -0.35,-0.36 -0.2,0 -0.35,0.16 -0.35,0.36 0,0.19 0.15,0.35 0.35,0.35 0.19,0 0.35,-0.16 0.35,-0.35z"/>
    <path class="fil0" d="M10.11 18.35c0,-0.2 -0.16,-0.36 -0.35,-0.36 -0.2,0 -0.35,0.16 -0.35,0.36 0,0.19 0.15,0.35 0.35,0.35 0.19,0 0.35,-0.16 0.35,-0.35z"/>
    <path class="fil0" d="M12.45 18.35c0,-0.2 -0.16,-0.36 -0.35,-0.36 -0.19,0 -0.35,0.16 -0.35,0.36 0,0.19 0.16,0.35 0.35,0.35 0.19,0 0.35,-0.16 0.35,-0.35z"/>
    <path class="fil0" d="M13.23 18.35c0,-0.2 -0.16,-0.36 -0.35,-0.36 -0.19,0 -0.35,0.16 -0.35,0.36 0,0.19 0.16,0.35 0.35,0.35 0.19,0 0.35,-0.16 0.35,-0.35z"/>
    <path class="fil0" d="M14.01 18.35c0,-0.2 -0.15,-0.36 -0.35,-0.36 -0.19,0 -0.35,0.16 -0.35,0.36 0,0.19 0.16,0.35 0.35,0.35 0.2,0 0.35,-0.16 0.35,-0.35z"/>
    <path class="fil0" d="M21.82 18.35c0,-0.2 -0.16,-0.36 -0.35,-0.36 -0.2,0 -0.35,0.16 -0.35,0.36 0,0.19 0.15,0.35 0.35,0.35 0.19,0 0.35,-0.16 0.35,-0.35z"/>
    <path class="fil0" d="M6.99 19.13c0,-0.2 -0.16,-0.36 -0.35,-0.36 -0.2,0 -0.36,0.16 -0.36,0.36 0,0.19 0.16,0.35 0.36,0.35 0.19,0 0.35,-0.16 0.35,-0.35z"/>
    <path class="fil0" d="M7.77 19.13c0,-0.2 -0.16,-0.36 -0.35,-0.36 -0.2,0 -0.35,0.16 -0.35,0.36 0,0.19 0.15,0.35 0.35,0.35 0.19,0 0.35,-0.16 0.35,-0.35z"/>
    <path class="fil0" d="M10.11 19.13c0,-0.2 -0.16,-0.36 -0.35,-0.36 -0.2,0 -0.35,0.16 -0.35,0.36 0,0.19 0.15,0.35 0.35,0.35 0.19,0 0.35,-0.16 0.35,-0.35z"/>
    <path class="fil0" d="M10.89 19.13c0,-0.2 -0.16,-0.36 -0.35,-0.36 -0.2,0 -0.35,0.16 -0.35,0.36 0,0.19 0.15,0.35 0.35,0.35 0.19,0 0.35,-0.16 0.35,-0.35z"/>
    <path class="fil0" d="M11.67 19.13c0,-0.2 -0.16,-0.36 -0.35,-0.36 -0.19,0 -0.35,0.16 -0.35,0.36 0,0.19 0.16,0.35 0.35,0.35 0.19,0 0.35,-0.16 0.35,-0.35z"/>
    <path class="fil0" d="M20.26 19.13c0,-0.2 -0.16,-0.36 -0.35,-0.36 -0.2,0 -0.35,0.16 -0.35,0.36 0,0.19 0.15,0.35 0.35,0.35 0.19,0 0.35,-0.16 0.35,-0.35z"/>
    <path class="fil0" d="M21.82 19.13c0,-0.2 -0.16,-0.36 -0.35,-0.36 -0.2,0 -0.35,0.16 -0.35,0.36 0,0.19 0.15,0.35 0.35,0.35 0.19,0 0.35,-0.16 0.35,-0.35z"/>
    <path class="fil0" d="M22.6 19.13c0,-0.2 -0.16,-0.36 -0.35,-0.36 -0.2,0 -0.35,0.16 -0.35,0.36 0,0.19 0.15,0.35 0.35,0.35 0.19,0 0.35,-0.16 0.35,-0.35z"/>
    <path class="fil0" d="M7.77 19.91c0,-0.2 -0.16,-0.35 -0.35,-0.35 -0.2,0 -0.35,0.15 -0.35,0.35 0,0.19 0.15,0.35 0.35,0.35 0.19,0 0.35,-0.16 0.35,-0.35z"/>
    <path class="fil0" d="M9.33 19.91c0,-0.2 -0.16,-0.35 -0.35,-0.35 -0.2,0 -0.35,0.15 -0.35,0.35 0,0.19 0.15,0.35 0.35,0.35 0.19,0 0.35,-0.16 0.35,-0.35z"/>
    <path class="fil0" d="M10.11 19.91c0,-0.2 -0.16,-0.35 -0.35,-0.35 -0.2,0 -0.35,0.15 -0.35,0.35 0,0.19 0.15,0.35 0.35,0.35 0.19,0 0.35,-0.16 0.35,-0.35z"/>
    <path class="fil0" d="M12.45 19.91c0,-0.2 -0.16,-0.35 -0.35,-0.35 -0.19,0 -0.35,0.15 -0.35,0.35 0,0.19 0.16,0.35 0.35,0.35 0.19,0 0.35,-0.16 0.35,-0.35z"/>
    <path class="fil0" d="M14.01 19.91c0,-0.2 -0.15,-0.35 -0.35,-0.35 -0.19,0 -0.35,0.15 -0.35,0.35 0,0.19 0.16,0.35 0.35,0.35 0.2,0 0.35,-0.16 0.35,-0.35z"/>
    <path class="fil0" d="M14.79 19.91c0,-0.2 -0.15,-0.35 -0.35,-0.35 -0.19,0 -0.35,0.15 -0.35,0.35 0,0.19 0.16,0.35 0.35,0.35 0.2,0 0.35,-0.16 0.35,-0.35z"/>
    <path class="fil0" d="M16.35 19.91c0,-0.2 -0.15,-0.35 -0.35,-0.35 -0.19,0 -0.35,0.15 -0.35,0.35 0,0.19 0.16,0.35 0.35,0.35 0.2,0 0.35,-0.16 0.35,-0.35z"/>
    <path class="fil0" d="M17.14 19.91c0,-0.2 -0.16,-0.35 -0.36,-0.35 -0.19,0 -0.35,0.15 -0.35,0.35 0,0.19 0.16,0.35 0.35,0.35 0.2,0 0.36,-0.16 0.36,-0.35z"/>
    <path class="fil0" d="M19.48 19.91c0,-0.2 -0.16,-0.35 -0.35,-0.35 -0.2,0 -0.36,0.15 -0.36,0.35 0,0.19 0.16,0.35 0.36,0.35 0.19,0 0.35,-0.16 0.35,-0.35z"/>
    <path class="fil0" d="M21.04 19.91c0,-0.2 -0.16,-0.35 -0.35,-0.35 -0.2,0 -0.35,0.15 -0.35,0.35 0,0.19 0.15,0.35 0.35,0.35 0.19,0 0.35,-0.16 0.35,-0.35z"/>
    <path class="fil0" d="M6.99 20.69c0,-0.2 -0.16,-0.35 -0.35,-0.35 -0.2,0 -0.36,0.15 -0.36,0.35 0,0.19 0.16,0.35 0.36,0.35 0.19,0 0.35,-0.16 0.35,-0.35z"/>
    <path class="fil0" d="M7.77 20.69c0,-0.2 -0.16,-0.35 -0.35,-0.35 -0.2,0 -0.35,0.15 -0.35,0.35 0,0.19 0.15,0.35 0.35,0.35 0.19,0 0.35,-0.16 0.35,-0.35z"/>
    <path class="fil0" d="M8.55 20.69c0,-0.2 -0.16,-0.35 -0.35,-0.35 -0.2,0 -0.35,0.15 -0.35,0.35 0,0.19 0.15,0.35 0.35,0.35 0.19,0 0.35,-0.16 0.35,-0.35z"/>
    <path class="fil0" d="M9.33 20.69c0,-0.2 -0.16,-0.35 -0.35,-0.35 -0.2,0 -0.35,0.15 -0.35,0.35 0,0.19 0.15,0.35 0.35,0.35 0.19,0 0.35,-0.16 0.35,-0.35z"/>
    <path class="fil0" d="M10.11 20.69c0,-0.2 -0.16,-0.35 -0.35,-0.35 -0.2,0 -0.35,0.15 -0.35,0.35 0,0.19 0.15,0.35 0.35,0.35 0.19,0 0.35,-0.16 0.35,-0.35z"/>
    <path class="fil0" d="M13.23 20.69c0,-0.2 -0.16,-0.35 -0.35,-0.35 -0.19,0 -0.35,0.15 -0.35,0.35 0,0.19 0.16,0.35 0.35,0.35 0.19,0 0.35,-0.16 0.35,-0.35z"/>
    <path class="fil0" d="M14.01 20.69c0,-0.2 -0.15,-0.35 -0.35,-0.35 -0.19,0 -0.35,0.15 -0.35,0.35 0,0.19 0.16,0.35 0.35,0.35 0.2,0 0.35,-0.16 0.35,-0.35z"/>
    <path class="fil0" d="M14.79 20.69c0,-0.2 -0.15,-0.35 -0.35,-0.35 -0.19,0 -0.35,0.15 -0.35,0.35 0,0.19 0.16,0.35 0.35,0.35 0.2,0 0.35,-0.16 0.35,-0.35z"/>
    <path class="fil0" d="M15.57 20.69c0,-0.2 -0.15,-0.35 -0.35,-0.35 -0.19,0 -0.35,0.15 -0.35,0.35 0,0.19 0.16,0.35 0.35,0.35 0.2,0 0.35,-0.16 0.35,-0.35z"/>
    <path class="fil0" d="M18.7 20.69c0,-0.2 -0.16,-0.35 -0.35,-0.35 -0.2,0 -0.36,0.15 -0.36,0.35 0,0.19 0.16,0.35 0.36,0.35 0.19,0 0.35,-0.16 0.35,-0.35z"/>
    <path class="fil0" d="M19.48 20.69c0,-0.2 -0.16,-0.35 -0.35,-0.35 -0.2,0 -0.36,0.15 -0.36,0.35 0,0.19 0.16,0.35 0.36,0.35 0.19,0 0.35,-0.16 0.35,-0.35z"/>
    <path class="fil0" d="M20.26 20.69c0,-0.2 -0.16,-0.35 -0.35,-0.35 -0.2,0 -0.35,0.15 -0.35,0.35 0,0.19 0.15,0.35 0.35,0.35 0.19,0 0.35,-0.16 0.35,-0.35z"/>
    <path class="fil0" d="M22.6 20.69c0,-0.2 -0.16,-0.35 -0.35,-0.35 -0.2,0 -0.35,0.15 -0.35,0.35 0,0.19 0.15,0.35 0.35,0.35 0.19,0 0.35,-0.16 0.35,-0.35z"/>
    <path class="fil0" d="M8.55 21.47c0,-0.2 -0.16,-0.35 -0.35,-0.35 -0.2,0 -0.35,0.15 -0.35,0.35 0,0.19 0.15,0.35 0.35,0.35 0.19,0 0.35,-0.16 0.35,-0.35z"/>
    <path class="fil0" d="M10.89 21.47c0,-0.2 -0.16,-0.35 -0.35,-0.35 -0.2,0 -0.35,0.15 -0.35,0.35 0,0.19 0.15,0.35 0.35,0.35 0.19,0 0.35,-0.16 0.35,-0.35z"/>
    <path class="fil0" d="M11.67 21.47c0,-0.2 -0.16,-0.35 -0.35,-0.35 -0.19,0 -0.35,0.15 -0.35,0.35 0,0.19 0.16,0.35 0.35,0.35 0.19,0 0.35,-0.16 0.35,-0.35z"/>
    <path class="fil0" d="M13.23 21.47c0,-0.2 -0.16,-0.35 -0.35,-0.35 -0.19,0 -0.35,0.15 -0.35,0.35 0,0.19 0.16,0.35 0.35,0.35 0.19,0 0.35,-0.16 0.35,-0.35z"/>
    <path class="fil0" d="M14.79 21.47c0,-0.2 -0.15,-0.35 -0.35,-0.35 -0.19,0 -0.35,0.15 -0.35,0.35 0,0.19 0.16,0.35 0.35,0.35 0.2,0 0.35,-0.16 0.35,-0.35z"/>
    <path class="fil0" d="M15.57 21.47c0,-0.2 -0.15,-0.35 -0.35,-0.35 -0.19,0 -0.35,0.15 -0.35,0.35 0,0.19 0.16,0.35 0.35,0.35 0.2,0 0.35,-0.16 0.35,-0.35z"/>
    <path class="fil0" d="M17.14 21.47c0,-0.2 -0.16,-0.35 -0.36,-0.35 -0.19,0 -0.35,0.15 -0.35,0.35 0,0.19 0.16,0.35 0.35,0.35 0.2,0 0.36,-0.16 0.36,-0.35z"/>
    <path class="fil0" d="M18.7 21.47c0,-0.2 -0.16,-0.35 -0.35,-0.35 -0.2,0 -0.36,0.15 -0.36,0.35 0,0.19 0.16,0.35 0.36,0.35 0.19,0 0.35,-0.16 0.35,-0.35z"/>
    <path class="fil0" d="M21.82 21.47c0,-0.2 -0.16,-0.35 -0.35,-0.35 -0.2,0 -0.35,0.15 -0.35,0.35 0,0.19 0.15,0.35 0.35,0.35 0.19,0 0.35,-0.16 0.35,-0.35z"/>
    <path class="fil0" d="M9.33 22.25c0,-0.2 -0.16,-0.35 -0.35,-0.35 -0.2,0 -0.35,0.15 -0.35,0.35 0,0.19 0.15,0.35 0.35,0.35 0.19,0 0.35,-0.16 0.35,-0.35z"/>
    <path class="fil0" d="M10.11 22.25c0,-0.2 -0.16,-0.35 -0.35,-0.35 -0.2,0 -0.35,0.15 -0.35,0.35 0,0.19 0.15,0.35 0.35,0.35 0.19,0 0.35,-0.16 0.35,-0.35z"/>
    <path class="fil0" d="M13.23 22.25c0,-0.2 -0.16,-0.35 -0.35,-0.35 -0.19,0 -0.35,0.15 -0.35,0.35 0,0.19 0.16,0.35 0.35,0.35 0.19,0 0.35,-0.16 0.35,-0.35z"/>
    <path class="fil0" d="M14.01 22.25c0,-0.2 -0.15,-0.35 -0.35,-0.35 -0.19,0 -0.35,0.15 -0.35,0.35 0,0.19 0.16,0.35 0.35,0.35 0.2,0 0.35,-0.16 0.35,-0.35z"/>
    <path class="fil0" d="M14.79 22.25c0,-0.2 -0.15,-0.35 -0.35,-0.35 -0.19,0 -0.35,0.15 -0.35,0.35 0,0.19 0.16,0.35 0.35,0.35 0.2,0 0.35,-0.16 0.35,-0.35z"/>
    <path class="fil0" d="M16.35 22.25c0,-0.2 -0.15,-0.35 -0.35,-0.35 -0.19,0 -0.35,0.15 -0.35,0.35 0,0.19 0.16,0.35 0.35,0.35 0.2,0 0.35,-0.16 0.35,-0.35z"/>
    <path class="fil0" d="M17.14 22.25c0,-0.2 -0.16,-0.35 -0.36,-0.35 -0.19,0 -0.35,0.15 -0.35,0.35 0,0.19 0.16,0.35 0.35,0.35 0.2,0 0.36,-0.16 0.36,-0.35z"/>
    <path class="fil0" d="M19.48 22.25c0,-0.2 -0.16,-0.35 -0.35,-0.35 -0.2,0 -0.36,0.15 -0.36,0.35 0,0.19 0.16,0.35 0.36,0.35 0.19,0 0.35,-0.16 0.35,-0.35z"/>
    <path class="fil0" d="M20.26 22.25c0,-0.2 -0.16,-0.35 -0.35,-0.35 -0.2,0 -0.35,0.15 -0.35,0.35 0,0.19 0.15,0.35 0.35,0.35 0.19,0 0.35,-0.16 0.35,-0.35z"/>
    <path class="fil0" d="M21.82 22.25c0,-0.2 -0.16,-0.35 -0.35,-0.35 -0.2,0 -0.35,0.15 -0.35,0.35 0,0.19 0.15,0.35 0.35,0.35 0.19,0 0.35,-0.16 0.35,-0.35z"/>
    <path class="fil0" d="M22.6 22.25c0,-0.2 -0.16,-0.35 -0.35,-0.35 -0.2,0 -0.35,0.15 -0.35,0.35 0,0.19 0.15,0.35 0.35,0.35 0.19,0 0.35,-0.16 0.35,-0.35z"/>
   </g>
   <g>
    <path class="fil0" d="M0 0l5.46 0 0 5.46 -5.46 0 0 -5.46zm1.56 0.78l-0.78 0 0 3.9 3.9 0 0 -3.9 -3.12 0zm15.61 -0.78l5.47 0 0 5.46 -5.47 0 0 -5.46zm1.57 0.78l-0.78 0 0 3.9 3.9 0 0 -3.9 -3.12 0zm-3.13 14.83l3.91 0 0 3.91 -3.91 0 0 -3.91zm1.56 0.78l-0.78 0 0 2.35 2.35 0 0 -2.35 -1.57 0zm-17.17 0.78l5.46 0 0 5.47 -5.46 0 0 -5.47zm1.56 0.79l-0.78 0 0 3.9 3.9 0 0 -3.9 -3.12 0z"/>
   </g>
   <g>
    <path class="fil0" d="M1.56 1.56l2.34 0 0 2.34 -2.34 0 0 -2.34zm17.18 0l2.34 0 0 2.34 -2.34 0 0 -2.34zm-1.57 15.61l0.79 0 0 0.79 -0.79 0 0 -0.79zm-15.61 1.57l2.34 0 0 2.34 -2.34 0 0 -2.34z"/>
   </g>
  </g>
 </g>
</svg>
