<?xml version="1.0" encoding="UTF-8"?>
<!DOCTYPE svg PUBLIC "-//W3C//DTD SVG 1.1//EN" "http://www.w3.org/Graphics/SVG/1.1/DTD/svg11.dtd">
<!-- Creator: CorelDRAW 2021 (64-Bit) -->
<svg xmlns="http://www.w3.org/2000/svg" xml:space="preserve" width="25px" height="500px" version="1.1" style="shape-rendering:geometricPrecision; text-rendering:geometricPrecision; image-rendering:optimizeQuality; fill-rule:evenodd; clip-rule:evenodd"
viewBox="0 0 9.83 196.56"
 xmlns:xlink="http://www.w3.org/1999/xlink"
 xmlns:xodm="http://www.corel.com/coreldraw/odm/2003">
 <defs>
  <style type="text/css">
   <![CDATA[
    .fil0 {fill:white;fill-rule:nonzero}
   ]]>
  </style>
 </defs>
 <g id="Слой_x0020_1">
  <metadata id="CorelCorpID_0Corel-Layer"/>
  <path class="fil0" d="M7.52 45.36l-5.21 0 0 -15.12 5.21 0 0 15.12zm0 30.24l-5.21 0 0 -15.12 5.21 0 0 15.12zm0 30.24l-5.21 0 0 -15.12 5.21 0 0 15.12zm0 30.24l-5.21 0 0 -15.12 5.21 0 0 15.12zm0 30.24l-5.21 0 0 -15.12 5.21 0 0 15.12zm2.31 -166.32l-2.31 0 0 15.12 -5.21 0 0 -15.12 -2.31 0 0 196.56 2.31 0 0 -15.12 5.21 0 0 15.12 2.31 0 0 -196.56z"/>
 </g>
</svg>
