<?xml version="1.0" encoding="UTF-8"?>
<!DOCTYPE svg PUBLIC "-//W3C//DTD SVG 1.1//EN" "http://www.w3.org/Graphics/SVG/1.1/DTD/svg11.dtd">
<!-- Creator: CorelDRAW 2021 (64-Bit) -->
<svg xmlns="http://www.w3.org/2000/svg" xml:space="preserve" width="118px" height="118px" version="1.1" style="shape-rendering:geometricPrecision; text-rendering:geometricPrecision; image-rendering:optimizeQuality; fill-rule:evenodd; clip-rule:evenodd"
viewBox="0 0 8.23 8.23"
 xmlns:xlink="http://www.w3.org/1999/xlink"
 xmlns:xodm="http://www.corel.com/coreldraw/odm/2003">
 <defs>
  <style type="text/css">
   <![CDATA[
    .fil0 {fill:black}
   ]]>
  </style>
 </defs>
 <g id="Слой_x0020_1">
  <metadata id="CorelCorpID_0Corel-Layer"/>
  <path class="fil0" d="M0 0l8.23 0 0 8.23 -8.23 0 0 -8.23zm1.58 6.09c0,0.31 0.26,0.56 0.57,0.56l3.94 0c0.31,0 0.56,-0.25 0.56,-0.56l0 -3.94c0,-0.31 -0.25,-0.57 -0.56,-0.57l-3.94 0c-0.31,0 -0.57,0.26 -0.57,0.57l0 3.94zm1.13 -1.13l1.97 0 0 0.56 -1.97 0 0 -0.56zm0 -1.12l2.82 0 0 0.56 -2.82 0 0 -0.56zm0 -1.13l2.82 0 0 0.56 -2.82 0 0 -0.56zm-0.56 3.38l3.94 0 0 -3.94 -3.94 0 0 3.94z"/>
 </g>
</svg>
