<?xml version="1.0" encoding="UTF-8"?>
<!DOCTYPE svg PUBLIC "-//W3C//DTD SVG 1.1//EN" "http://www.w3.org/Graphics/SVG/1.1/DTD/svg11.dtd">
<!-- Creator: CorelDRAW 2021 (64-Bit) -->
<svg xmlns="http://www.w3.org/2000/svg" xml:space="preserve" width="118px" height="118px" version="1.1" style="shape-rendering:geometricPrecision; text-rendering:geometricPrecision; image-rendering:optimizeQuality; fill-rule:evenodd; clip-rule:evenodd"
viewBox="0 0 9.75 9.75"
 xmlns:xlink="http://www.w3.org/1999/xlink"
 xmlns:xodm="http://www.corel.com/coreldraw/odm/2003">
 <defs>
  <style type="text/css">
   <![CDATA[
    .fil0 {fill:black}
   ]]>
  </style>
 </defs>
 <g id="Слой_x0020_1">
  <metadata id="CorelCorpID_0Corel-Layer"/>
  <path class="fil0" d="M0 0l9.75 0 0 9.75 -9.75 0 0 -9.75zm7.28 6.68l-4.81 0 0 -3.01 2.4 1.5 2.41 -1.5 0 3.01zm-2.41 -2.11l-2.4 -1.5 4.81 0 -2.41 1.5zm-2.38 -2.1l4.77 0c0.34,0 0.62,0.28 0.62,0.62l0 3.57c0,0.34 -0.28,0.62 -0.62,0.62l-4.77 0c-0.34,0 -0.62,-0.28 -0.62,-0.62l0 -3.57c0,-0.34 0.28,-0.62 0.62,-0.62z"/>
 </g>
</svg>
