<?xml version="1.0" encoding="UTF-8"?>
<!DOCTYPE svg PUBLIC "-//W3C//DTD SVG 1.1//EN" "http://www.w3.org/Graphics/SVG/1.1/DTD/svg11.dtd">
<!-- Creator: CorelDRAW 2021 (64-Bit) -->
<svg xmlns="http://www.w3.org/2000/svg" xml:space="preserve" width="118px" height="118px" version="1.1" style="shape-rendering:geometricPrecision; text-rendering:geometricPrecision; image-rendering:optimizeQuality; fill-rule:evenodd; clip-rule:evenodd"
viewBox="0 0 7.11 7.11"
 xmlns:xlink="http://www.w3.org/1999/xlink"
 xmlns:xodm="http://www.corel.com/coreldraw/odm/2003">
 <defs>
  <style type="text/css">
   <![CDATA[
    .fil0 {fill:black}
   ]]>
  </style>
 </defs>
 <g id="Слой_x0020_1">
  <metadata id="CorelCorpID_0Corel-Layer"/>
  <path class="fil0" d="M0 0l7.11 0 0 7.11 -7.11 0 0 -7.11zm3.55 5.95c0,0 -1.68,-1.86 -1.68,-3.12 0,-0.93 0.75,-1.68 1.68,-1.68 0.93,0 1.68,0.75 1.68,1.68 0,1.26 -1.68,3.12 -1.68,3.12zm0 -2.53c-0.33,0 -0.6,-0.27 -0.6,-0.6 0,-0.33 0.27,-0.6 0.6,-0.6 0.33,0 0.6,0.27 0.6,0.6 0,0.33 -0.27,0.6 -0.6,0.6zm0 -1.8c-0.66,0 -1.2,0.54 -1.2,1.2 0,0.68 0.7,1.73 1.2,2.37 0.51,-0.65 1.2,-1.68 1.2,-2.37 0,-0.66 -0.53,-1.2 -1.2,-1.2z"/>
 </g>
</svg>
