<?xml version="1.0" encoding="UTF-8"?>
<!DOCTYPE svg PUBLIC "-//W3C//DTD SVG 1.1//EN" "http://www.w3.org/Graphics/SVG/1.1/DTD/svg11.dtd">
<!-- Creator: CorelDRAW 2021 (64-Bit) -->
<svg xmlns="http://www.w3.org/2000/svg" xml:space="preserve" width="118px" height="118px" version="1.1" style="shape-rendering:geometricPrecision; text-rendering:geometricPrecision; image-rendering:optimizeQuality; fill-rule:evenodd; clip-rule:evenodd"
viewBox="0 0 11.99 11.99"
 xmlns:xlink="http://www.w3.org/1999/xlink"
 xmlns:xodm="http://www.corel.com/coreldraw/odm/2003">
 <defs>
  <style type="text/css">
   <![CDATA[
    .fil0 {fill:black}
   ]]>
  </style>
 </defs>
 <g id="Слой_x0020_1">
  <metadata id="CorelCorpID_0Corel-Layer"/>
  <path class="fil0" d="M0 0l11.99 0 0 11.99 -11.99 0 0 -11.99zm5.99 2.62c-1.86,0 -3.37,1.51 -3.37,3.37 0,1.86 1.51,3.37 3.37,3.37 1.86,0 3.37,-1.51 3.37,-3.37 0,-1.86 -1.51,-3.37 -3.37,-3.37zm2.33 2.03l-0.99 0c-0.11,-0.43 -0.26,-0.83 -0.46,-1.2 0.62,0.21 1.13,0.64 1.45,1.2zm-2.33 -1.34c0.28,0.41 0.5,0.85 0.65,1.34l-1.29 0c0.14,-0.49 0.36,-0.93 0.64,-1.34l0 0zm-2.6 3.36c-0.06,-0.22 -0.09,-0.44 -0.09,-0.68 0,-0.23 0.03,-0.46 0.09,-0.67l1.13 0c-0.02,0.22 -0.04,0.44 -0.04,0.67 0,0.23 0.02,0.45 0.04,0.68l-1.13 0zm0.27 0.67l1 0c0.1,0.42 0.26,0.83 0.46,1.2 -0.62,-0.21 -1.13,-0.64 -1.46,-1.2zm1 -2.69l-1 0c0.33,-0.56 0.84,-0.99 1.46,-1.2 -0.2,0.37 -0.36,0.77 -0.46,1.2zm1.33 4.02c-0.28,-0.4 -0.5,-0.85 -0.64,-1.33l1.29 0c-0.15,0.48 -0.37,0.93 -0.65,1.33l0 0zm0.79 -2l-1.58 0c-0.03,-0.23 -0.05,-0.45 -0.05,-0.68 0,-0.23 0.02,-0.45 0.05,-0.67l1.58 0c0.03,0.22 0.06,0.44 0.06,0.67 0,0.23 -0.03,0.45 -0.06,0.68zm0.09 1.87c0.2,-0.37 0.35,-0.78 0.46,-1.2l0.99 0c-0.32,0.56 -0.83,0.99 -1.45,1.2zm0.59 -1.87c0.03,-0.23 0.05,-0.45 0.05,-0.68 0,-0.23 -0.02,-0.45 -0.05,-0.67l1.14 0c0.05,0.21 0.09,0.44 0.09,0.67 0,0.24 -0.04,0.46 -0.09,0.68l-1.14 0z"/>
 </g>
</svg>
