<?xml version="1.0" encoding="UTF-8"?>
<!DOCTYPE svg PUBLIC "-//W3C//DTD SVG 1.1//EN" "http://www.w3.org/Graphics/SVG/1.1/DTD/svg11.dtd">
<!-- Creator: CorelDRAW 2021 (64-Bit) -->
<svg xmlns="http://www.w3.org/2000/svg" xml:space="preserve" width="118px" height="118px" version="1.1" style="shape-rendering:geometricPrecision; text-rendering:geometricPrecision; image-rendering:optimizeQuality; fill-rule:evenodd; clip-rule:evenodd"
viewBox="0 0 15.04 15.04"
 xmlns:xlink="http://www.w3.org/1999/xlink"
 xmlns:xodm="http://www.corel.com/coreldraw/odm/2003">
 <defs>
  <style type="text/css">
   <![CDATA[
    .fil0 {fill:black}
   ]]>
  </style>
 </defs>
 <g id="Слой_x0020_1">
  <metadata id="CorelCorpID_0Corel-Layer"/>
  <path class="fil0" d="M0 0l15.04 0 0 15.04 -15.04 0 0 -15.04zm8.06 3.29c-2.33,0 -4.23,1.9 -4.23,4.22 0,0.75 0.2,1.47 0.57,2.12l-0.58 2.12 2.22 -0.52c0.61,0.33 1.31,0.51 2.01,0.51l0 0c2.33,0 4.23,-1.89 4.23,-4.22 0,-1.13 -0.44,-2.19 -1.24,-2.99 -0.79,-0.8 -1.85,-1.24 -2.98,-1.24zm-0.01 0.85c0.91,0 1.76,0.35 2.39,0.99 0.64,0.64 0.99,1.49 0.99,2.39 0,1.86 -1.51,3.37 -3.38,3.37 -0.56,0 -1.12,-0.14 -1.61,-0.41l-0.28 -0.15 -0.32 0.07 -0.83 0.2 0.2 -0.76 0.09 -0.33 -0.17 -0.31c-0.3,-0.51 -0.45,-1.09 -0.45,-1.69 0,-1.86 1.51,-3.37 3.37,-3.37zm-1.49 1.43c-0.07,0 -0.18,0.02 -0.28,0.13 -0.1,0.1 -0.37,0.36 -0.37,0.88 0,0.52 0.38,1.02 0.43,1.09 0.05,0.07 0.73,1.17 1.8,1.59 0.89,0.35 1.08,0.28 1.27,0.27 0.19,-0.02 0.62,-0.26 0.71,-0.51 0.09,-0.24 0.09,-0.45 0.06,-0.5 -0.02,-0.04 -0.09,-0.07 -0.2,-0.12 -0.1,-0.05 -0.62,-0.31 -0.72,-0.34 -0.1,-0.04 -0.17,-0.06 -0.24,0.05 -0.07,0.1 -0.27,0.34 -0.33,0.41 -0.06,0.07 -0.12,0.08 -0.23,0.03 -0.11,-0.05 -0.45,-0.17 -0.85,-0.53 -0.31,-0.27 -0.52,-0.62 -0.59,-0.73 -0.06,-0.1 0,-0.16 0.05,-0.21 0.05,-0.05 0.11,-0.12 0.16,-0.19 0.05,-0.06 0.07,-0.1 0.1,-0.17 0.04,-0.07 0.02,-0.13 0,-0.19 -0.03,-0.05 -0.24,-0.57 -0.33,-0.78 -0.08,-0.18 -0.16,-0.18 -0.24,-0.18 -0.06,0 -0.13,0 -0.2,0z"/>
 </g>
</svg>
