<svg xmlns="http://www.w3.org/2000/svg" xmlns:xlink="http://www.w3.org/1999/xlink" width="500" height="500" viewBox="0 0 16.72 16.72" shape-rendering="geometricPrecision" image-rendering="optimizeQuality" fill-rule="evenodd" xmlns:v="https://vecta.io/nano"><use xlink:href="#B"/><use xlink:href="#C"/><use xlink:href="#B" x="1.73"/><use xlink:href="#B" x="5.19"/><use xlink:href="#C" x="5.19"/><use xlink:href="#B" x="6.92"/><use xlink:href="#D"/><use xlink:href="#E"/><use xlink:href="#E" x="1.73"/><use xlink:href="#F"/><use xlink:href="#E" x="3.46"/><use xlink:href="#D" x="5.19"/><use xlink:href="#F" x="3.46"/><use xlink:href="#B" y="1.15"/><use xlink:href="#C" x="1.73" y="1.15"/><use xlink:href="#C" x="3.46" y="1.15"/><use xlink:href="#G"/><use xlink:href="#C" x="5.19" y="1.15"/><use xlink:href="#G" x="1.73"/><use xlink:href="#B" x="6.92" y="1.15"/><use xlink:href="#H"/><use xlink:href="#I"/><use xlink:href="#H" x="1.73"/><use xlink:href="#H" x="3.46"/><use xlink:href="#I" x="3.46"/><use xlink:href="#H" x="5.19"/><use xlink:href="#E" y="1.73"/><use xlink:href="#D" x="1.73" y="1.73"/><use xlink:href="#E" x="1.73" y="1.73"/><use xlink:href="#D" x="3.46" y="1.73"/><use xlink:href="#E" x="3.46" y="1.73"/><use xlink:href="#F" x="3.46" y="1.73"/><use xlink:href="#D" x="6.92" y="1.73"/><use xlink:href="#B" y="2.88"/><use xlink:href="#G" x="-3.46" y="1.73"/><use xlink:href="#C" x="1.73" y="2.88"/><use xlink:href="#G" x="-1.73" y="1.73"/><use xlink:href="#B" x="3.46" y="2.88"/><use xlink:href="#C" x="3.46" y="2.88"/><use xlink:href="#G" y="1.73"/><use xlink:href="#C" x="5.19" y="2.88"/><use xlink:href="#I" x="-1.73" y="1.73"/><use xlink:href="#H" y="1.73"/><use xlink:href="#J"/><use xlink:href="#I" x="1.73" y="1.73"/><use xlink:href="#H" x="3.46" y="1.73"/><use xlink:href="#J" x="3.46"/><use xlink:href="#I" x="5.19" y="1.73"/><use xlink:href="#K"/><use xlink:href="#L"/><use xlink:href="#L" x="1.73"/><use xlink:href="#L" x="3.46"/><use xlink:href="#M"/><use xlink:href="#M" x="1.73"/><use xlink:href="#B" x="-3.46" y="4.61"/><use xlink:href="#C" x="-3.46" y="4.61"/><use xlink:href="#N"/><use xlink:href="#C" x="-1.73" y="4.61"/><use xlink:href="#B" y="4.61"/><use xlink:href="#C" y="4.61"/><use xlink:href="#B" x="1.73" y="4.61"/><use xlink:href="#C" x="1.73" y="4.61"/><use xlink:href="#G" x="-1.73" y="3.46"/><use xlink:href="#B" x="3.46" y="4.61"/><use xlink:href="#C" x="3.46" y="4.61"/><use xlink:href="#C" x="5.19" y="4.61"/><use xlink:href="#B" x="6.92" y="4.61"/><use xlink:href="#C" x="6.92" y="4.61"/><use xlink:href="#G" x="3.46" y="3.46"/><use xlink:href="#B" x="8.65" y="4.61"/><use xlink:href="#B" x="10.38" y="4.61"/><use xlink:href="#C" x="10.38" y="4.61"/><use xlink:href="#G" x="6.92" y="3.46"/><use xlink:href="#I" x="-6.34" y="3.46"/><use xlink:href="#O"/><use xlink:href="#H" x="-1.73" y="3.46"/><use xlink:href="#I" x="-1.73" y="3.46"/><use xlink:href="#J" x="-1.73" y="1.73"/><use xlink:href="#H" y="3.46"/><use xlink:href="#I" x="1.73" y="3.46"/><use xlink:href="#H" x="3.46" y="3.46"/><use xlink:href="#H" x="6.92" y="3.46"/><use xlink:href="#J" x="6.92" y="1.73"/><use xlink:href="#H" x="10.38" y="3.46"/><use xlink:href="#P"/><use xlink:href="#L" x="-3.46" y="1.73"/><use xlink:href="#L" x="-1.73" y="1.73"/><use xlink:href="#M" x="-5.19" y="1.73"/><use xlink:href="#K" x="1.73" y="1.73"/><use xlink:href="#M" x="-1.73" y="1.73"/><use xlink:href="#K" x="3.46" y="1.73"/><use xlink:href="#L" x="5.19" y="1.73"/><use xlink:href="#K" x="6.92" y="1.73"/><use xlink:href="#L" x="6.92" y="1.73"/><use xlink:href="#M" x="3.46" y="1.73"/><use xlink:href="#L" x="8.65" y="1.73"/><use xlink:href="#M" x="5.19" y="1.73"/><use xlink:href="#K" x="10.38" y="1.73"/><use xlink:href="#G" x="-5.19" y="5.19"/><use xlink:href="#C" y="6.34"/><use xlink:href="#G" x="-3.46" y="5.19"/><use xlink:href="#B" x="3.46" y="6.34"/><use xlink:href="#B" x="5.19" y="6.34"/><use xlink:href="#C" x="5.19" y="6.34"/><use xlink:href="#C" x="6.92" y="6.34"/><use xlink:href="#G" x="3.46" y="5.19"/><use xlink:href="#G" x="5.19" y="5.19"/><use xlink:href="#C" x="10.38" y="6.34"/><use xlink:href="#O" y="1.73"/><use xlink:href="#J" x="-5.19" y="3.46"/><use xlink:href="#I" x="-3.46" y="5.19"/><use xlink:href="#J" x="-3.46" y="3.46"/><use xlink:href="#J" x="-1.73" y="3.46"/><use xlink:href="#I" y="5.19"/><use xlink:href="#I" x="1.73" y="5.19"/><use xlink:href="#H" x="3.46" y="5.19"/><use xlink:href="#J" x="3.46" y="3.46"/><use xlink:href="#I" x="5.19" y="5.19"/><use xlink:href="#J" x="5.19" y="3.46"/><use xlink:href="#I" x="6.92" y="5.19"/><use xlink:href="#I" x="8.65" y="5.19"/><use xlink:href="#J" x="8.65" y="3.46"/><use xlink:href="#H" x="10.38" y="5.19"/><use xlink:href="#K" x="-4.61" y="3.46"/><use xlink:href="#K" x="-3.46" y="3.46"/><use xlink:href="#P" x="1.73" y="1.73"/><use xlink:href="#M" x="-5.19" y="3.46"/><use xlink:href="#K" x="1.73" y="3.46"/><use xlink:href="#L" x="3.46" y="3.46"/><use xlink:href="#L" x="5.19" y="3.46"/><use xlink:href="#M" x="1.73" y="3.46"/><use xlink:href="#K" x="6.92" y="3.46"/><use xlink:href="#L" x="6.92" y="3.46"/><use xlink:href="#M" x="3.46" y="3.46"/><use xlink:href="#L" x="8.65" y="3.46"/><use xlink:href="#M" x="5.19" y="3.46"/><use xlink:href="#L" x="10.38" y="3.46"/><use xlink:href="#M" x="6.92" y="3.46"/><use xlink:href="#B" x="-4.61" y="8.07"/><use xlink:href="#N" x="-1.73" y="3.46"/><use xlink:href="#B" x="-3.46" y="8.07"/><use xlink:href="#C" x="-1.73" y="8.07"/><use xlink:href="#B" y="8.07"/><use xlink:href="#C" y="8.07"/><use xlink:href="#G" x="-3.46" y="6.92"/><use xlink:href="#G" x="-1.73" y="6.92"/><use xlink:href="#B" x="3.46" y="8.07"/><use xlink:href="#C" x="3.46" y="8.07"/><use xlink:href="#C" x="5.19" y="8.07"/><use xlink:href="#C" x="6.92" y="8.07"/><use xlink:href="#B" x="8.65" y="8.07"/><use xlink:href="#I" x="-5.19" y="6.92"/><use xlink:href="#O" x="1.73" y="3.46"/><use xlink:href="#I" x="-3.46" y="6.92"/><use xlink:href="#H" x="-1.73" y="6.92"/><use xlink:href="#I" x="-1.73" y="6.92"/><use xlink:href="#H" x="1.73" y="6.92"/><use xlink:href="#J" x="1.73" y="5.19"/><use xlink:href="#I" x="3.46" y="6.92"/><use xlink:href="#H" x="5.19" y="6.92"/><use xlink:href="#I" x="5.19" y="6.92"/><use xlink:href="#J" x="5.19" y="5.19"/><use xlink:href="#J" x="6.92" y="5.19"/><use xlink:href="#H" x="8.65" y="6.92"/><use xlink:href="#J" x="8.65" y="5.19"/><use xlink:href="#H" x="10.38" y="6.92"/><use xlink:href="#K" x="-4.61" y="5.19"/><use xlink:href="#P" y="3.46"/><use xlink:href="#K" x="-3.46" y="5.19"/><use xlink:href="#L" x="-1.73" y="5.19"/><use xlink:href="#M" x="-5.19" y="5.19"/><use xlink:href="#K" y="5.19"/><use xlink:href="#M" x="-3.46" y="5.19"/><use xlink:href="#K" x="1.73" y="5.19"/><use xlink:href="#L" x="1.73" y="5.19"/><use xlink:href="#M" x="-1.73" y="5.19"/><use xlink:href="#K" x="3.46" y="5.19"/><use xlink:href="#L" x="3.46" y="5.19"/><use xlink:href="#L" x="6.92" y="5.19"/><use xlink:href="#M" x="5.19" y="5.19"/><use xlink:href="#K" x="10.38" y="5.19"/><use xlink:href="#M" x="6.92" y="5.19"/><use xlink:href="#B" x="-4.61" y="9.8"/><use xlink:href="#N" y="5.19"/><use xlink:href="#G" x="-5.19" y="8.65"/><use xlink:href="#B" y="9.8"/><use xlink:href="#B" x="1.73" y="9.8"/><use xlink:href="#C" x="1.73" y="9.8"/><use xlink:href="#C" x="3.46" y="9.8"/><use xlink:href="#G" y="8.65"/><use xlink:href="#C" x="5.19" y="9.8"/><use xlink:href="#B" x="6.92" y="9.8"/><use xlink:href="#G" x="3.46" y="8.65"/><use xlink:href="#B" x="8.65" y="9.8"/><use xlink:href="#C" x="8.65" y="9.8"/><use xlink:href="#C" x="10.38" y="9.8"/><use xlink:href="#G" x="6.92" y="8.65"/><use xlink:href="#I" x="-6.34" y="8.65"/><use xlink:href="#I" x="-5.19" y="8.65"/><use xlink:href="#J" x="-3.46" y="6.92"/><use xlink:href="#I" x="-1.73" y="8.65"/><use xlink:href="#J" x="-1.73" y="6.92"/><use xlink:href="#H" x="1.73" y="8.65"/><use xlink:href="#I" x="1.73" y="8.65"/><use xlink:href="#H" x="5.19" y="8.65"/><use xlink:href="#H" x="6.92" y="8.65"/><use xlink:href="#H" x="8.65" y="8.65"/><use xlink:href="#I" x="8.65" y="8.65"/><use xlink:href="#K" x="-4.61" y="6.92"/><use xlink:href="#K" x="-3.46" y="6.92"/><use xlink:href="#L" x="-3.46" y="6.92"/><use xlink:href="#P" x="1.73" y="5.19"/><use xlink:href="#M" x="-5.19" y="6.92"/><use xlink:href="#L" y="6.92"/><use xlink:href="#M" x="-1.73" y="6.92"/><use xlink:href="#M" y="6.92"/><use xlink:href="#K" x="5.19" y="6.92"/><use xlink:href="#M" x="1.73" y="6.92"/><use xlink:href="#K" x="6.92" y="6.92"/><use xlink:href="#M" x="3.46" y="6.92"/><use xlink:href="#K" x="8.65" y="6.92"/><use xlink:href="#L" x="8.65" y="6.92"/><use xlink:href="#L" x="10.38" y="6.92"/><use xlink:href="#B" x="-4.61" y="11.53"/><use xlink:href="#C" x="-1.73" y="11.53"/><use xlink:href="#G" x="-5.19" y="10.38"/><use xlink:href="#G" x="-3.46" y="10.38"/><use xlink:href="#C" x="1.73" y="11.53"/><use xlink:href="#G" x="-1.73" y="10.38"/><use xlink:href="#B" x="3.46" y="11.53"/><use xlink:href="#C" x="3.46" y="11.53"/><use xlink:href="#G" y="10.38"/><use xlink:href="#C" x="5.19" y="11.53"/><use xlink:href="#G" x="1.73" y="10.38"/><use xlink:href="#B" x="10.38" y="11.53"/><use xlink:href="#I" x="-1.73" y="10.38"/><use xlink:href="#H" y="10.38"/><use xlink:href="#I" y="10.38"/><use xlink:href="#J" y="8.65"/><use xlink:href="#J" x="1.73" y="8.65"/><use xlink:href="#H" x="3.46" y="10.38"/><use xlink:href="#I" x="3.46" y="10.38"/><use xlink:href="#J" x="3.46" y="8.65"/><use xlink:href="#H" x="5.19" y="10.38"/><use xlink:href="#H" x="8.65" y="10.38"/><use xlink:href="#J" x="8.65" y="8.65"/><use xlink:href="#H" x="10.38" y="10.38"/><use xlink:href="#L" x="1.73" y="8.65"/><use xlink:href="#K" x="3.46" y="8.65"/><use xlink:href="#M" x="1.73" y="8.65"/><use xlink:href="#L" x="10.38" y="8.65"/><use xlink:href="#G" x="-1.73" y="12.11"/><use xlink:href="#G" x="1.73" y="12.11"/><use xlink:href="#G" x="5.19" y="12.11"/><use xlink:href="#C" x="10.38" y="13.26"/><use xlink:href="#I" x="-1.73" y="12.11"/><use xlink:href="#J" y="10.38"/><use xlink:href="#H" x="1.73" y="12.11"/><use xlink:href="#I" x="3.46" y="12.11"/><use xlink:href="#H" x="8.65" y="12.11"/><use xlink:href="#I" x="8.65" y="12.11"/><use xlink:href="#K" y="10.38"/><use xlink:href="#K" x="1.73" y="10.38"/><use xlink:href="#M" x="-1.73" y="10.38"/><use xlink:href="#K" x="3.46" y="10.38"/><use xlink:href="#M" y="10.38"/><use xlink:href="#M" x="1.73" y="10.38"/><use xlink:href="#K" x="6.92" y="10.38"/><use xlink:href="#L" x="6.92" y="10.38"/><use xlink:href="#K" x="8.65" y="10.38"/><use xlink:href="#M" x="5.19" y="10.38"/><use xlink:href="#K" x="10.38" y="10.38"/><use xlink:href="#B" y="14.99"/><use xlink:href="#G" x="-3.46" y="13.84"/><use xlink:href="#B" x="1.73" y="14.99"/><use xlink:href="#C" x="1.73" y="14.99"/><use xlink:href="#G" x="-1.73" y="13.84"/><use xlink:href="#B" x="5.19" y="14.99"/><use xlink:href="#C" x="5.19" y="14.99"/><use xlink:href="#G" x="1.73" y="13.84"/><use xlink:href="#B" x="6.92" y="14.99"/><use xlink:href="#C" x="6.92" y="14.99"/><use xlink:href="#G" x="3.46" y="13.84"/><use xlink:href="#B" x="8.65" y="14.99"/><use xlink:href="#C" x="8.65" y="14.99"/><use xlink:href="#G" x="5.19" y="13.84"/><use xlink:href="#B" x="10.38" y="14.99"/><use xlink:href="#C" x="10.38" y="14.99"/><use xlink:href="#H" y="13.84"/><use xlink:href="#J" y="12.11"/><use xlink:href="#H" x="1.73" y="13.84"/><use xlink:href="#I" x="1.73" y="13.84"/><use xlink:href="#J" x="3.46" y="12.11"/><use xlink:href="#J" x="5.19" y="12.11"/><use xlink:href="#J" x="6.92" y="12.11"/><use xlink:href="#H" x="8.65" y="13.84"/><use xlink:href="#J" x="8.65" y="12.11"/><use xlink:href="#M" x="-3.46" y="12.11"/><use xlink:href="#L" x="1.73" y="12.11"/><use xlink:href="#M" x="-1.73" y="12.11"/><use xlink:href="#L" x="3.46" y="12.11"/><use xlink:href="#M" y="12.11"/><use xlink:href="#L" x="6.92" y="12.11"/><use xlink:href="#M" x="3.46" y="12.11"/><use xlink:href="#L" x="8.65" y="12.11"/><use xlink:href="#M" x="5.19" y="12.11"/><use xlink:href="#K" x="10.38" y="12.11"/><path d="M0 0h4.04v4.04H0V0zm1.15.58H.58v2.88h2.88V.58H1.15zM12.69 0h4.03v4.04h-4.03V0zm1.15.58h-.58v2.88h2.88V.58h-2.3zm-2.31 10.95h2.88v2.88h-2.88v-2.88zm1.16.58h-.58v1.73h1.73v-1.73h-1.15zM0 12.69h4.04v4.03H0v-4.03zm1.15.57H.58v2.88h2.88v-2.88H1.15zm0-12.11h1.73v1.73H1.15V1.15zm12.69 0h1.73v1.73h-1.73V1.15zm-1.15 11.54h.57v.57h-.57v-.57zM1.15 13.84h1.73v1.73H1.15v-1.73z"/><defs ><path id="B" d="M5.16.29c0-.14-.12-.26-.26-.26s-.26.12-.26.26.12.26.26.26.26-.12.26-.26z"/><path id="C" d="M5.74.29c0-.14-.12-.26-.26-.26-.15 0-.26.12-.26.26s.11.26.26.26c.14 0 .26-.12.26-.26z"/><path id="D" d="M5.16.86c0-.14-.12-.25-.26-.25s-.26.11-.26.25c0 .15.12.26.26.26s.26-.11.26-.26z"/><path id="E" d="M5.74.86c0-.14-.12-.25-.26-.25a.25.25 0 0 0-.26.25c0 .15.11.26.26.26.14 0 .26-.11.26-.26z"/><path id="F" d="M8.04.86a.25.25 0 0 0-.26-.25c-.14 0-.26.11-.26.25 0 .15.12.26.26.26.15 0 .26-.11.26-.26z"/><path id="G" d="M9.77 1.44c0-.14-.11-.26-.26-.26-.14 0-.26.12-.26.26s.12.26.26.26c.15 0 .26-.12.26-.26z"/><path id="H" d="M6.31 2.02c0-.15-.11-.26-.26-.26-.14 0-.26.11-.26.26 0 .14.12.26.26.26.15 0 .26-.12.26-.26z"/><path id="I" d="M6.89 2.02c0-.15-.12-.26-.26-.26s-.26.11-.26.26c0 .14.12.26.26.26s.26-.12.26-.26z"/><path id="J" d="M7.47 3.75c0-.15-.12-.26-.26-.26-.15 0-.26.11-.26.26 0 .14.11.26.26.26.14 0 .26-.12.26-.26z"/><path id="K" d="M5.16 4.32c0-.14-.12-.26-.26-.26s-.26.12-.26.26c0 .15.12.26.26.26s.26-.11.26-.26z"/><path id="L" d="M5.74 4.32c0-.14-.12-.26-.26-.26-.15 0-.26.12-.26.26 0 .15.11.26.26.26.14 0 .26-.11.26-.26z"/><path id="M" d="M9.77 4.32c0-.14-.11-.26-.26-.26-.14 0-.26.12-.26.26 0 .15.12.26.26.26.15 0 .26-.11.26-.26z"/><path id="N" d="M2.85 4.9c0-.14-.11-.26-.26-.26-.14 0-.25.12-.25.26s.11.26.25.26c.15 0 .26-.12.26-.26z"/><path id="O" d="M1.12 5.48c0-.15-.11-.26-.26-.26a.25.25 0 0 0-.25.26c0 .14.11.26.25.26.15 0 .26-.12.26-.26z"/><path id="P" d="M1.12 6.05c0-.14-.11-.26-.26-.26-.14 0-.25.12-.25.26a.25.25 0 0 0 .25.26c.15 0 .26-.11.26-.26z"/></defs></svg>