<svg xmlns="http://www.w3.org/2000/svg" xmlns:xlink="http://www.w3.org/1999/xlink" width="500" height="500" viewBox="0 0 22.64 22.64" shape-rendering="geometricPrecision" image-rendering="optimizeQuality" fill-rule="evenodd" xmlns:v="https://vecta.io/nano"><use xlink:href="#B"/><use xlink:href="#C"/><use xlink:href="#C" x="1.56"/><use xlink:href="#C" x="2.34"/><use xlink:href="#C" x="3.12"/><use xlink:href="#D"/><use xlink:href="#E"/><use xlink:href="#E" x="0.78"/><use xlink:href="#C" x="1.56" y="0.78"/><use xlink:href="#C" x="3.12" y="0.78"/><use xlink:href="#D" x="0.78" y="0.78"/><use xlink:href="#E" x="-0.78" y="0.78"/><use xlink:href="#E" x="0.78" y="0.78"/><use xlink:href="#F"/><use xlink:href="#G"/><use xlink:href="#H"/><use xlink:href="#H" x="0.78"/><use xlink:href="#H" x="1.56"/><use xlink:href="#I"/><use xlink:href="#I" x="1.56"/><use xlink:href="#I" x="3.12"/><use xlink:href="#G" x="-0.78" y="0.78"/><use xlink:href="#H" x="-0.78" y="0.78"/><use xlink:href="#H" x="0.78" y="0.78"/><use xlink:href="#H" x="1.56" y="0.78"/><use xlink:href="#F" y="1.56"/><use xlink:href="#I" y="0.78"/><use xlink:href="#I" x="1.56" y="0.78"/><use xlink:href="#I" x="2.34" y="0.78"/><use xlink:href="#I" x="3.12" y="0.78"/><use xlink:href="#G" x="-0.78" y="1.56"/><use xlink:href="#G" y="1.56"/><use xlink:href="#H" x="0.78" y="1.56"/><use xlink:href="#H" x="1.56" y="1.56"/><use xlink:href="#I" x="0.78" y="1.56"/><use xlink:href="#I" x="2.34" y="1.56"/><use xlink:href="#I" x="3.12" y="1.56"/><use xlink:href="#G" x="0.78" y="2.34"/><use xlink:href="#H" y="2.34"/><use xlink:href="#J"/><use xlink:href="#K"/><use xlink:href="#K" x="1.56"/><use xlink:href="#L"/><use xlink:href="#L" x="1.56"/><use xlink:href="#M"/><use xlink:href="#M" x="1.56"/><use xlink:href="#J" y="0.78"/><use xlink:href="#K" y="0.78"/><use xlink:href="#K" x="1.56" y="0.78"/><use xlink:href="#L" y="0.78"/><use xlink:href="#L" x="1.56" y="0.78"/><use xlink:href="#M" x="0.78" y="0.78"/><use xlink:href="#N"/><use xlink:href="#O"/><use xlink:href="#P"/><use xlink:href="#P" x="1.56"/><use xlink:href="#P" x="3.12"/><use xlink:href="#Q"/><use xlink:href="#Q" x="0.78"/><use xlink:href="#Q" x="1.56"/><use xlink:href="#N" x="10.15"/><use xlink:href="#N" x="11.71"/><use xlink:href="#O" x="12.49"/><use xlink:href="#R"/><use xlink:href="#P" x="13.27"/><use xlink:href="#P" x="14.83"/><use xlink:href="#Q" x="-10.93" y="0.78"/><use xlink:href="#Q" x="-10.15" y="0.78"/><use xlink:href="#N" x="-0.78" y="0.78"/><use xlink:href="#R" x="-12.49" y="0.78"/><use xlink:href="#P" x="0.78" y="0.78"/><use xlink:href="#P" x="1.56" y="0.78"/><use xlink:href="#P" x="2.34" y="0.78"/><use xlink:href="#Q" y="0.78"/><use xlink:href="#Q" x="1.56" y="0.78"/><use xlink:href="#N" x="11.71" y="0.78"/><use xlink:href="#O" x="11.71" y="0.78"/><use xlink:href="#R" y="0.78"/><use xlink:href="#P" x="13.27" y="0.78"/><use xlink:href="#P" x="14.05" y="0.78"/><path d="M1.52 8.2c0-.2-.16-.35-.35-.35S.82 8 .82 8.2c0 .19.16.35.35.35s.35-.16.35-.35z"/><use xlink:href="#S"/><use xlink:href="#S" x="0.78"/><use xlink:href="#T"/><use xlink:href="#U"/><use xlink:href="#V"/><use xlink:href="#V" x="1.56"/><use xlink:href="#W"/><use xlink:href="#W" x="0.78"/><use xlink:href="#S" x="12.49"/><use xlink:href="#S" x="14.05"/><use xlink:href="#T" x="11.71"/><use xlink:href="#T" x="12.49"/><use xlink:href="#U" x="13.27"/><use xlink:href="#V" x="10.93"/><use xlink:href="#V" x="11.71"/><use xlink:href="#S" x="0.78" y="0.78"/><use xlink:href="#U" y="0.78"/><use xlink:href="#U" x="0.78" y="0.78"/><use xlink:href="#V" x="-0.78" y="0.78"/><use xlink:href="#V" y="0.78"/><use xlink:href="#V" x="0.78" y="0.78"/><use xlink:href="#W" y="0.78"/><use xlink:href="#W" x="0.78" y="0.78"/><use xlink:href="#W" x="1.56" y="0.78"/><use xlink:href="#S" x="11.71" y="0.78"/><use xlink:href="#S" x="12.49" y="0.78"/><use xlink:href="#T" x="12.49" y="0.78"/><use xlink:href="#V" x="10.93" y="0.78"/><use xlink:href="#S" y="1.56"/><use xlink:href="#S" x="0.78" y="1.56"/><use xlink:href="#S" x="1.56" y="1.56"/><use xlink:href="#T" y="1.56"/><use xlink:href="#U" x="0.78" y="1.56"/><use xlink:href="#V" x="-1.56" y="1.56"/><use xlink:href="#V" x="-0.78" y="1.56"/><use xlink:href="#V" y="1.56"/><use xlink:href="#V" x="1.56" y="1.56"/><use xlink:href="#S" x="11.71" y="1.56"/><use xlink:href="#S" x="12.49" y="1.56"/><use xlink:href="#S" x="13.27" y="1.56"/><use xlink:href="#T" x="11.71" y="1.56"/><use xlink:href="#T" x="12.49" y="1.56"/><use xlink:href="#V" x="10.93" y="1.56"/><use xlink:href="#V" x="12.49" y="1.56"/><use xlink:href="#S" y="2.34"/><use xlink:href="#S" x="0.78" y="2.34"/><use xlink:href="#U" y="2.34"/><use xlink:href="#V" x="-1.56" y="2.34"/><use xlink:href="#V" y="2.34"/><use xlink:href="#V" x="1.56" y="2.34"/><use xlink:href="#S" x="11.71" y="2.34"/><use xlink:href="#S" x="12.49" y="2.34"/><use xlink:href="#S" x="13.27" y="2.34"/><use xlink:href="#S" x="14.05" y="2.34"/><use xlink:href="#T" x="12.49" y="2.34"/><use xlink:href="#U" x="13.27" y="2.34"/><use xlink:href="#V" x="10.93" y="2.34"/><use xlink:href="#V" x="13.27" y="2.34"/><use xlink:href="#D" x="-11.71" y="10.93"/><use xlink:href="#D" x="-10.93" y="10.93"/><use xlink:href="#E" x="-12.49" y="10.93"/><use xlink:href="#E" x="-10.93" y="10.93"/><use xlink:href="#E" x="-10.15" y="10.93"/><use xlink:href="#X"/><use xlink:href="#B" y="10.93"/><use xlink:href="#C" y="10.93"/><use xlink:href="#D" x="-0.78" y="10.93"/><use xlink:href="#D" y="10.93"/><use xlink:href="#E" x="-0.78" y="10.93"/><use xlink:href="#X" x="11.71"/><use xlink:href="#B" x="11.71" y="10.93"/><use xlink:href="#D" x="-10.93" y="11.71"/><use xlink:href="#E" x="-11.71" y="11.71"/><use xlink:href="#E" x="-10.15" y="11.71"/><use xlink:href="#B" x="-0.78" y="11.71"/><use xlink:href="#C" x="3.12" y="11.71"/><use xlink:href="#D" x="-0.78" y="11.71"/><use xlink:href="#D" x="0.78" y="11.71"/><use xlink:href="#E" x="0.78" y="11.71"/><use xlink:href="#X" x="12.49" y="0.78"/><use xlink:href="#B" x="12.49" y="11.71"/><use xlink:href="#C" x="12.49" y="11.71"/><use xlink:href="#C" x="13.27" y="11.71"/><use xlink:href="#D" x="-11.71" y="12.49"/><use xlink:href="#E" x="-12.49" y="12.49"/><use xlink:href="#E" x="-10.93" y="12.49"/><use xlink:href="#E" x="-10.15" y="12.49"/><use xlink:href="#X" y="1.56"/><use xlink:href="#B" x="-0.78" y="12.49"/><use xlink:href="#C" y="12.49"/><use xlink:href="#C" x="1.56" y="12.49"/><use xlink:href="#C" x="2.34" y="12.49"/><use xlink:href="#D" y="12.49"/><use xlink:href="#E" y="12.49"/><use xlink:href="#X" x="11.71" y="1.56"/><use xlink:href="#C" x="12.49" y="12.49"/><use xlink:href="#C" x="13.27" y="12.49"/><use xlink:href="#C" x="14.83" y="12.49"/><use xlink:href="#G" x="-11.71" y="11.71"/><use xlink:href="#H" x="-12.49" y="11.71"/><use xlink:href="#H" x="-10.93" y="11.71"/><use xlink:href="#H" x="-10.15" y="11.71"/><use xlink:href="#F" y="11.71"/><use xlink:href="#I" y="10.93"/><use xlink:href="#I" x="0.78" y="10.93"/><use xlink:href="#I" x="2.34" y="10.93"/><use xlink:href="#G" y="11.71"/><use xlink:href="#H" y="11.71"/><use xlink:href="#H" x="1.56" y="11.71"/><use xlink:href="#Y"/><use xlink:href="#Y" x="0.78"/><use xlink:href="#F" x="11.71" y="11.71"/><use xlink:href="#F" x="12.49" y="11.71"/><use xlink:href="#I" x="14.83" y="10.93"/><use xlink:href="#G" x="-11.71" y="12.49"/><use xlink:href="#G" x="-10.93" y="12.49"/><use xlink:href="#H" x="-11.71" y="12.49"/><use xlink:href="#H" x="-10.93" y="12.49"/><use xlink:href="#H" x="-10.15" y="12.49"/><use xlink:href="#Y" x="-11.71" y="0.78"/><use xlink:href="#F" x="-0.78" y="12.49"/><use xlink:href="#I" y="11.71"/><use xlink:href="#I" x="0.78" y="11.71"/><use xlink:href="#I" x="1.56" y="11.71"/><use xlink:href="#G" y="12.49"/><use xlink:href="#H" x="-0.78" y="12.49"/><use xlink:href="#H" x="1.56" y="12.49"/><use xlink:href="#F" x="11.71" y="12.49"/><use xlink:href="#I" x="14.83" y="11.71"/><use xlink:href="#G" x="-11.71" y="13.27"/><use xlink:href="#H" x="-11.71" y="13.27"/><use xlink:href="#H" x="-10.93" y="13.27"/><use xlink:href="#I" x="1.56" y="12.49"/><use xlink:href="#I" x="2.34" y="12.49"/><use xlink:href="#I" x="3.12" y="12.49"/><use xlink:href="#H" x="-0.78" y="13.27"/><use xlink:href="#H" x="0.78" y="13.27"/><use xlink:href="#H" x="1.56" y="13.27"/><use xlink:href="#Y" y="1.56"/><use xlink:href="#Y" x="0.78" y="1.56"/><use xlink:href="#F" x="11.71" y="13.27"/><use xlink:href="#F" x="12.49" y="13.27"/><use xlink:href="#G" x="-11.71" y="14.05"/><path d="M2.3 16c0-.19-.15-.35-.35-.35-.19 0-.35.16-.35.35 0 .2.16.35.35.35A.34.34 0 0 0 2.3 16z"/><use xlink:href="#Y" x="-11.71" y="2.34"/><use xlink:href="#F" x="-0.78" y="14.05"/><use xlink:href="#I" x="0.78" y="13.27"/><use xlink:href="#I" x="2.34" y="13.27"/><use xlink:href="#I" x="3.12" y="13.27"/><use xlink:href="#G" x="-0.78" y="14.05"/><use xlink:href="#G" y="14.05"/><use xlink:href="#G" x="0.78" y="14.05"/><use xlink:href="#H" y="14.05"/><use xlink:href="#H" x="0.78" y="14.05"/><use xlink:href="#I" x="13.27" y="13.27"/><use xlink:href="#J" y="11.71"/><use xlink:href="#K" x="-0.78" y="11.71"/><use xlink:href="#K" x="0.78" y="11.71"/><use xlink:href="#K" x="1.56" y="11.71"/><use xlink:href="#K" x="2.34" y="11.71"/><use xlink:href="#L" y="11.71"/><use xlink:href="#M" y="11.71"/><use xlink:href="#M" x="0.78" y="11.71"/><use xlink:href="#K" x="11.71" y="11.71"/><use xlink:href="#K" x="12.49" y="11.71"/><use xlink:href="#K" y="12.49"/><use xlink:href="#K" x="1.56" y="12.49"/><use xlink:href="#M" x="-0.78" y="12.49"/><use xlink:href="#M" x="0.78" y="12.49"/><use xlink:href="#K" x="13.27" y="12.49"/><use xlink:href="#R" x="-12.49" y="11.71"/><use xlink:href="#P" y="11.71"/><use xlink:href="#P" x="0.78" y="11.71"/><use xlink:href="#Q" x="0.78" y="11.71"/><use xlink:href="#N" x="10.93" y="11.71"/><use xlink:href="#P" x="12.49" y="11.71"/><use xlink:href="#P" x="0.78" y="12.49"/><use xlink:href="#P" x="1.56" y="12.49"/><use xlink:href="#P" x="2.34" y="12.49"/><use xlink:href="#N" x="10.93" y="12.49"/><use xlink:href="#P" x="14.83" y="12.49"/><use xlink:href="#V" x="-1.56" y="11.71"/><use xlink:href="#V" x="-0.78" y="11.71"/><use xlink:href="#V" x="0.78" y="11.71"/><use xlink:href="#V" x="1.56" y="11.71"/><use xlink:href="#W" x="0.78" y="11.71"/><use xlink:href="#S" x="13.27" y="11.71"/><use xlink:href="#S" x="14.05" y="11.71"/><use xlink:href="#U" x="12.49" y="11.71"/><use xlink:href="#V" x="10.93" y="11.71"/><use xlink:href="#V" x="11.71" y="11.71"/><use xlink:href="#V" x="12.49" y="11.71"/><use xlink:href="#V" x="-0.78" y="12.49"/><use xlink:href="#V" x="0.78" y="12.49"/><use xlink:href="#V" x="1.56" y="12.49"/><use xlink:href="#S" x="11.71" y="12.49"/><use xlink:href="#S" x="12.49" y="12.49"/><use xlink:href="#S" x="13.27" y="12.49"/><use xlink:href="#S" x="14.05" y="12.49"/><use xlink:href="#T" x="11.71" y="12.49"/><use xlink:href="#T" x="12.49" y="12.49"/><use xlink:href="#U" x="12.49" y="12.49"/><use xlink:href="#U" x="13.27" y="12.49"/><use xlink:href="#V" x="10.93" y="12.49"/><use xlink:href="#V" x="11.71" y="12.49"/><use xlink:href="#V" x="12.49" y="12.49"/><use xlink:href="#V" x="-1.56" y="13.27"/><use xlink:href="#V" y="13.27"/><use xlink:href="#V" x="0.78" y="13.27"/><use xlink:href="#V" x="1.56" y="13.27"/><use xlink:href="#W" x="0.78" y="13.27"/><use xlink:href="#W" x="1.56" y="13.27"/><use xlink:href="#S" x="12.49" y="13.27"/><use xlink:href="#S" x="14.05" y="13.27"/><use xlink:href="#T" x="12.49" y="13.27"/><use xlink:href="#U" x="13.27" y="13.27"/><use xlink:href="#V" x="10.93" y="13.27"/><use xlink:href="#V" x="11.71" y="13.27"/><use xlink:href="#V" x="13.27" y="13.27"/><use xlink:href="#V" x="-0.78" y="14.05"/><use xlink:href="#V" x="0.78" y="14.05"/><use xlink:href="#V" x="1.56" y="14.05"/><use xlink:href="#W" x="1.56" y="14.05"/><use xlink:href="#U" x="13.27" y="14.05"/><use xlink:href="#V" x="10.93" y="14.05"/><use xlink:href="#V" x="11.71" y="14.05"/><path d="M0 0h5.46v5.46H0V0zm1.56.78H.78v3.9h3.9V.78H1.56zM17.17 0h5.47v5.46h-5.47V0zm1.57.78h-.79v3.9h3.91V.78h-3.12zm-3.13 14.83h3.91v3.91h-3.91v-3.91zm1.56.78h-.78v2.35h2.35v-2.35h-1.57zM0 17.17h5.46v5.47H0v-5.47zm1.56.78H.78v3.91h3.9v-3.91H1.56zm0-16.39H3.9V3.9H1.56V1.56zm17.18 0h2.34V3.9h-2.34V1.56zm-1.57 15.61h.78v.78h-.78v-.78zM1.56 18.74H3.9v2.34H1.56v-2.34z"/><defs ><path id="B" d="M6.99.39c0-.19-.16-.35-.35-.35-.2 0-.36.16-.36.35s.16.35.36.35c.19 0 .35-.16.35-.35z"/><path id="C" d="M7.77.39c0-.19-.16-.35-.35-.35-.2 0-.35.16-.35.35s.15.35.35.35c.19 0 .35-.16.35-.35z"/><path id="D" d="M12.45.39c0-.19-.16-.35-.35-.35s-.35.16-.35.35.16.35.35.35.35-.16.35-.35z"/><path id="E" d="M14.79.39c0-.19-.15-.35-.35-.35-.19 0-.35.16-.35.35s.16.35.35.35c.2 0 .35-.16.35-.35z"/><path id="F" d="M6.99 1.95c0-.19-.16-.35-.35-.35-.2 0-.36.16-.36.35a.35.35 0 0 0 .36.35c.19 0 .35-.15.35-.35z"/><path id="G" d="M12.45 1.95c0-.19-.16-.35-.35-.35s-.35.16-.35.35c0 .2.16.35.35.35s.35-.15.35-.35z"/><path id="H" d="M14.79 1.95c0-.19-.15-.35-.35-.35-.19 0-.35.16-.35.35 0 .2.16.35.35.35a.34.34 0 0 0 .35-.35z"/><path id="I" d="M7.77 2.73c0-.19-.16-.35-.35-.35-.2 0-.35.16-.35.35a.34.34 0 0 0 .35.35c.19 0 .35-.15.35-.35z"/><path id="J" d="M6.99 5.07c0-.19-.16-.35-.35-.35-.2 0-.36.16-.36.35a.36.36 0 0 0 .36.36c.19 0 .35-.16.35-.36z"/><path id="K" d="M8.55 5.07c0-.19-.16-.35-.35-.35-.2 0-.35.16-.35.35a.35.35 0 0 0 .35.36c.19 0 .35-.16.35-.36z"/><path id="L" d="M11.67 5.07c0-.19-.16-.35-.35-.35s-.35.16-.35.35c0 .2.16.36.35.36s.35-.16.35-.36z"/><path id="M" d="M14.79 5.07c0-.19-.15-.35-.35-.35-.19 0-.35.16-.35.35 0 .2.16.36.35.36a.35.35 0 0 0 .35-.36z"/><path id="N" d="M4.64 6.64a.35.35 0 0 0-.35-.36c-.19 0-.35.16-.35.36 0 .19.16.35.35.35.2 0 .35-.16.35-.35z"/><path id="O" d="M5.43 6.64a.36.36 0 0 0-.36-.36c-.19 0-.35.16-.35.36 0 .19.16.35.35.35.2 0 .36-.16.36-.35z"/><path id="P" d="M7.77 6.64c0-.2-.16-.36-.35-.36a.35.35 0 0 0-.35.36c0 .19.15.35.35.35.19 0 .35-.16.35-.35z"/><path id="Q" d="M11.67 6.64c0-.2-.16-.36-.35-.36s-.35.16-.35.36c0 .19.16.35.35.35s.35-.16.35-.35z"/><path id="R" d="M19.48 6.64c0-.2-.16-.36-.35-.36a.36.36 0 0 0-.36.36c0 .19.16.35.36.35.19 0 .35-.16.35-.35z"/><path id="S" d="M2.3 8.2a.34.34 0 0 0-.35-.35c-.19 0-.35.15-.35.35 0 .19.16.35.35.35.2 0 .35-.16.35-.35z"/><path id="T" d="M5.43 8.2a.35.35 0 0 0-.36-.35c-.19 0-.35.15-.35.35 0 .19.16.35.35.35.2 0 .36-.16.36-.35z"/><path id="U" d="M6.21 8.2c0-.2-.16-.35-.35-.35a.35.35 0 0 0-.36.35c0 .19.16.35.36.35.19 0 .35-.16.35-.35z"/><path id="V" d="M9.33 8.2c0-.2-.16-.35-.35-.35a.34.34 0 0 0-.35.35c0 .19.15.35.35.35.19 0 .35-.16.35-.35z"/><path id="W" d="M11.67 8.2c0-.2-.16-.35-.35-.35s-.35.15-.35.35c0 .19.16.35.35.35s.35-.16.35-.35z"/><path id="X" d="M5.43 11.32c0-.19-.16-.35-.36-.35-.19 0-.35.16-.35.35s.16.35.35.35c.2 0 .36-.16.36-.35z"/><path id="Y" d="M17.14 13.66c0-.19-.16-.35-.36-.35-.19 0-.35.16-.35.35 0 .2.16.35.35.35a.35.35 0 0 0 .36-.35z"/></defs></svg>